<?xml version="1.0" encoding="UTF-8"?><svg id="Layer_1" xmlns="http://www.w3.org/2000/svg" viewBox="0 0 512 512"><g><polygon points="155.17156 209.87 134.6073 236.10717 163.68092 261.63523 155.17156 209.87" fill="#1d3b5b"/><polygon points="314.72191 201.36065 340.24997 235.39806 304.79433 251.70765 314.72191 201.36065" fill="#1d3b5b"/><path d="m165.0954,265.88717l-23.40072,41.8447s-59.56546,41.83412-65.94748,5.66937c-6.38201-36.16475,70.20215-90.76289,70.20215-90.76289,11.80636,2.36127,17.68696,31.35273,19.14604,43.24882Z" fill="#f4f2f2"/><path d="m164.89337,266.24878l-12.29608,21.99673.62766-60.23558c.91487,1.22318,1.75521,2.60594,2.54231,4.10575l9.1261,34.1331Z" fill="#d6d6d6"/><path d="m397.68808,305.95556c-6.38201,36.16475-65.94748-5.66937-65.94748-5.66937l-22.68814-46.09938c1.38285-11.75338,6.91214-36.6842,18.43347-38.99414,0,0,76.58417,54.59815,70.20215,90.76289Z" fill="#f4f2f2"/><path d="m320.86993,278.20447l-11.81748-24.01766s2.02113-17.17828,7.92428-28.78288l3.89319,52.80054Z" fill="#d6d6d6"/><path d="m317.55116,207.3322l-1.96763,44.84426-6.36098,145.14829h-141.70169l-12.99826-182.96171c-.2976-4.15898,2.53167-7.96687,6.91385-9.31775l44.27003-13.63624,56.27863-2.2975,47.39715,8.82844c4.91402.91474,8.36055,4.88227,8.16891,9.39222Z" fill="#f4f2f2"/><path d="m315.58353,252.17646l-.04259,1.06367-11.93433-.59565c-13.30651-.67012-25.64517,6.63728-31.44212,18.61421l-3.96746,8.17962c-11.96993,24.68351-46.61418,25.83047-60.29933,2.24433l-4.27597-7.37122c-6.7757-11.65777-19.7737-18.00791-33.13344-16.17836l-13.8277,1.90394-.13815-1.05302,13.81705-1.90401c13.78511-1.8933,27.20874,4.66952,34.19685,16.69962l4.28662,7.37122c13.25993,22.86556,46.81906,21.73507,58.41688-2.18051l3.96746-8.16897c5.98833-12.35983,18.70977-19.90127,32.45229-19.22051l11.92395.59565Z" fill="#d6d6d6"/></g><g><path d="m416.22685,308.09305v189.03209c0,4.9013-5.45421,8.87485-12.18185,8.87485H70.93123c-6.72765,0-12.18185-3.97356-12.18185-8.87485v-189.03209c0-4.9013,5.45421-8.87485,12.18185-8.87485h333.11377c6.72765,0,12.18185,3.97356,12.18185,8.87485Z" fill="#ddecff"/><path d="m416.22685,311.40005v15.18937H58.74937v-15.18937c0-6.72765,5.45421-12.18185,12.18185-12.18185h333.11377c6.72765,0,12.18185,5.45421,12.18185,12.18185Z" fill="#9dc9ed"/><g><circle cx="353.26704" cy="312.65079" r="5.71345" fill="#f4f2f2"/><circle cx="373.04437" cy="312.65079" r="5.71345" fill="#f4f2f2"/><circle cx="392.82171" cy="312.65079" r="5.71345" fill="#f4f2f2"/></g></g><g><path d="m101.4655,290.36161c-3.0707,1.16979-5.41029,3.87494-6.21452,7.09186-1.97402,7.67676-5.04473,23.90762,4.31361,26.32032,12.28281,3.14381,14.76862-17.61999,14.76862-17.61999,0,0-1.38913-20.32513-12.86771-15.79219Z" fill="#1d3b5b"/><path d="m119.08549,287.29091s-.29245.14622-.80423.43867c-2.70514,1.75469-10.89369,8.48099-6.50697,24.12696,5.19095,18.57044,17.25443,17.25443,20.69069,1.31602,3.43626-15.93842-4.75228-31.51127-13.3795-25.88164Z" fill="#1d3b5b"/><path d="m139.70307,285.97489s-12.06348.87734-8.18854,23.32272c3.87493,22.44538,21.56804,15.49974,22.81094,6.43385s3.94805-34.50886-14.62239-29.75658Z" fill="#1d3b5b"/><rect x="111.2631" y="294.41494" width="1.06367" height="20.20971" fill="#112c44"/><rect x="131.17095" y="293.85306" width="1.06389" height="19.34948" transform="translate(-23.49468 11.31471) rotate(-4.51689)" fill="#112c44"/></g><g><path d="m359.10583,306.1538s2.48581,20.7638,14.76862,17.61999c9.35833-2.4127,6.28763-18.64356,4.31361-26.32032-.80423-3.21693-3.14382-5.92207-6.21452-7.09186-11.47858-4.53294-12.86771,15.79219-12.86771,15.79219Z" fill="#1d3b5b"/><path d="m340.97405,313.17255c3.43626,15.93842,15.49974,17.25443,20.69069-1.31602,4.38672-15.64597-3.80182-22.37227-6.50697-24.12696-.51178-.29245-.80423-.43867-.80423-.43867-8.62721-5.62962-16.81576,9.94323-13.3795,25.88164Z" fill="#1d3b5b"/><path d="m319.11357,315.73147c1.2429,9.06589,18.936,16.01153,22.81094-6.43385,3.87493-22.44538-8.18854-23.32272-8.18854-23.32272-18.57044-4.75228-15.8653,20.69069-14.62239,29.75658Z" fill="#1d3b5b"/><rect x="340.19687" y="295.47522" width="1.06407" height="17.70068" transform="translate(-8.29868 9.5545) rotate(-1.58722)" fill="#112c44"/><rect x="350.05319" y="304.25368" width="19.68506" height="1.06407" transform="translate(45.38666 656.2161) rotate(-88.43371)" fill="#112c44"/></g><g><circle cx="70.61592" cy="190.10611" r="37.46272" fill="#f4f2f2"/><path d="m55.78212,207.8369l-10.1464-18.93933c-1.38724-2.58906-.4129-5.81278,2.17616-7.1995,2.58906-1.38724,5.81278-.4129,7.1995,2.17616l6.76375,12.62484,25.37224-25.37276c2.07748-2.07644,5.44403-2.07644,7.52151,0,2.07696,2.07696,2.07696,5.44455,0,7.52151l-30.43818,30.43818c-2.5206,2.5206-6.76527,1.8931-8.44859-1.24908Z" fill="#4171aa"/></g><g><path d="m486.57156,33.98734v47.53202c0,5.13861-4.74846,9.3655-10.52107,9.3655h-52.74476s-11.73141,13.09515-11.73141,13.09515c-2.83973,3.14945-5.12085,2.44496-5.12085-1.57473v-11.47897h-18.85404c-5.77258,0-10.52101-4.22692-10.52101-9.36552v-47.57345c0-5.13858,4.74843-9.3655,10.52101-9.3655h88.45107c5.81915,0,10.56755,4.22692,10.52107,9.3655Z" fill="#f4f2f2"/><g><rect x="392.25628" y="40.97674" width="76.8088" height="3.1126" fill="#9dc9ed"/><rect x="443.6506" y="50.75262" width="25.41447" height="3.1126" fill="#9dc9ed"/><rect x="392.25628" y="50.75262" width="43.01478" height="3.1126" fill="#9dc9ed"/><rect x="392.25628" y="60.52812" width="76.8088" height="3.1126" fill="#9dc9ed"/><rect x="425.26227" y="70.304" width="43.80281" height="3.1126" fill="#9dc9ed"/><rect x="392.25628" y="70.304" width="22.06554" height="3.1126" fill="#9dc9ed"/></g></g><g><path d="m384.17496,349.70121v35.74153c0,3.86396-3.57059,7.04235-7.91128,7.04235H122.52091s-8.82139,9.84685-8.82139,9.84685c-2.13533,2.36822-3.8506,1.83848-3.8506-1.18411v-8.63157h-14.17723c-4.34067,0-7.91123-3.17841-7.91123-7.04237v-35.77268c0-3.86394,3.57057-7.04235,7.91123-7.04235h280.592c4.37569,0,7.94623,3.17841,7.91128,7.04235Z" fill="#9dc9ed"/><g><rect x="99.17339" y="354.95687" width="271.83764" height="2.34051" fill="#ddecff"/><rect x="137.81916" y="362.30781" width="233.19187" height="2.34051" fill="#ddecff"/><rect x="99.17339" y="362.30781" width="32.3448" height="2.34051" fill="#ddecff"/><rect x="99.17339" y="369.65846" width="271.83764" height="2.34051" fill="#ddecff"/><rect x="123.99212" y="377.00939" width="247.01891" height="2.34051" fill="#ddecff"/><rect x="99.17339" y="377.00939" width="16.5921" height="2.34051" fill="#ddecff"/></g></g><g><path d="m88.55496,428.41272v35.74153c0,3.86396,3.57059,7.04235,7.91128,7.04235h253.74278s8.82139,9.84685,8.82139,9.84685c2.13533,2.36822,3.8506,1.83848,3.8506-1.18411v-8.63157h14.17723c4.34067,0,7.91123-3.17841,7.91123-7.04237v-35.77268c0-3.86394-3.57057-7.04235-7.91123-7.04235H96.46624c-4.37569,0-7.94623,3.17841-7.91128,7.04235Z" fill="#9dc9ed"/><g><rect x="101.71889" y="433.66838" width="271.83764" height="2.34051" fill="#ddecff"/><rect x="101.71889" y="441.01931" width="233.19187" height="2.34051" fill="#ddecff"/><rect x="341.21173" y="441.01931" width="32.3448" height="2.34051" fill="#ddecff"/><rect x="101.71889" y="448.36996" width="271.83764" height="2.34051" fill="#ddecff"/><rect x="101.71889" y="455.7209" width="247.01891" height="2.34051" fill="#ddecff"/><rect x="356.96443" y="455.7209" width="16.5921" height="2.34051" fill="#ddecff"/></g></g><g><path d="m455.30134,185.06289c0,19.57404-15.86432,35.44114-35.43965,35.44114s-35.44262-15.8671-35.44262-35.44114,15.86728-35.44114,35.44262-35.44114,35.43965,15.86728,35.43965,35.44114Z" fill="#9dc9ed"/><path d="m438.21467,182.17277c-.87481-.65921-.58925-.59976-1.97187-1.37441-.52816-.27288-1.76888-.93391-2.57452-1.28188-.60201,0-13.30997-7.72532-30.1751,1.25926-1.35216.71836-2.57173,1.99987-3.41822,3.30122-2.11255,3.25263-2.31436,5.97712.12535,8.88434.55203.66199,1.11555.89266,1.94072.66458,2.39724-.65049,4.80283-1.27317,7.20267-1.89566.92434-.24141,1.27939-.90876,1.23645-1.88156-.05482-1.42046-.12844-2.6336-.22808-3.96895-.08159-.99706.38588-1.53499,1.30154-1.82222,5.45889-1.72413,10.91221-1.74954,16.3698.00538,1.70961.54519,1.38722,1.66505,1.28448,2.98858-.14444,1.80535-.24115,3.03684-.11274,3.55507.10699.48156.39997.87597,1.03118,1.05046,2.51796.68183,5.02479,1.37181,7.55444,2.0084.39441.0929,1.0143.07046,1.26204-.17746,1.00837-.98037,1.876-2.08999,2.15211-3.41971.36964-1.65337-.29643-5.0162-2.98024-7.89544Z" fill="#f4f2f2"/></g><g><path d="m267.12271,193.92994c0,3.26612-2.03465,6.86163-5.57362,8.44553-16.7102,7.44568-32.67588,7.79671-47.84381.77652-3.38265-1.56363-5.39287-4.92479-5.45676-8.47748-.10994-3.62479,2.01128-5.07418,2.57426-14.6361.2976-6.64793-.92552-13.46602-3.48887-20.42246h61.59698c-2.78036,7.61684-3.78856,15.33428-3.40369,21.67758.1488,3.39311,1.70021,9.98632,1.5955,12.63639Z" fill="#1d3b5b"/><g><path d="m265.5272,181.29354c-18.10752,1.87538-36.53306,1.87408-54.76831-.19145.02129-.35096.04259-.70199.06388-1.06367,17.9759,2.03164,36.23902,2.09546,54.66183.19145.01065.35103.02129.7127.04259,1.06367Z" fill="#112c44"/><path d="m267.12271,193.92994c0,.36168-.03194.72329-.08518,1.07432-19.23126,2.12475-39.04248,2.1204-58.78901-.32973-.01065-.35103,0-.70199.03194-1.06367,19.32678,2.39326,39.00466,2.4996,58.84224.31909Z" fill="#112c44"/></g></g><g><path d="m346.22911,123.00359l-215.57015-2.12734c-3.5115-.03532-5.93374-3.70292-4.72523-7.15016l25.59677-72.98805c3.97998-20.1557,21.06071-34.73804,40.77242-34.73804h89.91292c18.98979,0,35.51096,13.37636,40.28882,32.57227l28.51522,77.19598c1.26322,3.4207-1.09215,7.23534-4.79077,7.23534Zm-208.26658-12.69287l200.87264,1.98243-26.11065-70.79527c-3.53114-14.63791-16.0768-24.86118-30.50869-24.86118h-89.91292c-15.00187,0-27.98744,11.17683-30.8766,26.57562-.05114.27475-.12363.54482-.21548.80762l-23.24831,66.29078Z" fill="#f4f2f2"/><g><path d="m260.07831,59.56223l-45.09816-.35129.01678-2.62774c.05405-8.46248,6.5746-15.27484,14.561-15.21263l16.18878.1261c7.97981.06216,14.40249,6.96444,14.34848,15.41994l-.0169,2.64562Z" fill="#6fb1fa"/><ellipse cx="329.29893" cy="111.81152" rx="41.70777" ry="25.52139" transform="translate(215.67905 440.49088) rotate(-89.68506)" fill="#6fb1fa"/><ellipse cx="145.23547" cy="110.38686" rx="41.70777" ry="25.52139" transform="translate(34.05197 255.01337) rotate(-89.68506)" fill="#6fb1fa"/><rect x="132.81288" y="52.03561" width="209.60058" height="121.4578" rx="40.03304" ry="40.03304" fill="#f4f2f2"/><g><path d="m306.79385,160.13993c-43.6838,3.99178-90.4514,4.18701-138.89803-1.35481-13.09094-.1277-23.19349-13.73078-21.76638-29.30855,0,0,2.53456-27.66631,2.53474-27.66826,2.25484-24.59679,29.81905-25.60067,51.1988-26.40657,16.84524-.63498,33.57001-.85684,50.427-.07361,24.71258,1.14825,75.16256-1.94911,77.1469,29.13934l1.72864,27.02126c.99309,15.52344-9.35655,28.77812-22.37167,28.6512Z" fill="#393d49"/><g><path d="m192.41922,134.02676c-6.9838-.2554-12.4342-6.01549-12.17382-12.86553l.68996-18.15091c.26035-6.84911,6.13206-12.19609,13.11678-11.94065,6.9838.2554,12.4342,6.01549,12.17382,12.86553l-.68996,18.15091c-.26035,6.84911-6.13206,12.19609-13.11678,11.94065Z" fill="#6fb1fa"/><path d="m275.71615,136.46706c-6.9838-.2554-12.4342-6.01549-12.17382-12.86553l.68996-18.15091c.26035-6.84911,6.13206-12.19609,13.11678-11.94065,6.9838.2554,12.4342,6.01549,12.17382,12.86553l-.68996,18.15091c-.26035,6.84911-6.13206,12.19609-13.11678,11.94065Z" fill="#6fb1fa"/><path d="m233.55403,146.82136c-7.56034-.2874-20.5707-2.6649-20.28346-10.21704.03376-.88033.75672-1.55759,1.65523-1.5337.88033.03376,1.56694.77438,1.5337,1.65523-.0857,2.25354,2.92924,3.82983,4.73457,4.56889,10.23347,4.19142,30.0946,2.64611,30.3208-3.29176.03324-.87981.77074-1.54512,1.65523-1.5337.88033.03376,1.56694.77438,1.5337,1.65523-.28724,7.55353-13.59619,8.98275-21.14977,8.69684Z" fill="#6fb1fa"/></g></g></g><g><path d="m267.63351,163.91381c-.46639-2.90016,1.50617-5.62893,4.40581-6.09584,57.20181-9.20479,68.13195-34.05507,68.23582-34.3054,1.05432-2.74123,4.1186-4.07549,6.86035-3.02273,2.74175,1.05432,4.09679,4.16379,3.04195,6.90502-.47886,1.24597-12.47058,30.6293-76.44809,40.92477-2.89335.46735-5.62828-1.50059-6.09584-4.40581Z" fill="#6fb1fa"/><circle cx="264.37491" cy="165.19591" r="11.3458" fill="#6fb1fa"/></g></g><g><g><path d="m99.77375,95.48132l-10.62409,11.92895s5.43996,5.61852,11.05061.04264l.89028-.99963c4.8916-6.21628-1.31681-10.97196-1.31681-10.97196Z" fill="#7b8f95"/><path d="m99.75002,95.22016l-10.86094,12.19406c.68259.70958,1.56915,1.33629,2.41513,1.77586,3.05508,1.57184,6.218,1.19476,9.03998-1.60909l.89526-1.01063c1.48656-1.88685,2.1141-3.8342,1.8694-5.78535-.27777-2.1902-1.70486-4.29983-3.35883-5.56486Z" fill="#4171aa"/></g><g><path d="m54.573,37.44368c-9.18485.50717-15.21151,4.76172-20.63026,10.91261-5.54625,6.16009-9.01187,12.63887-8.46053,21.75114,1.08751,17.97577,16.71423,29.51357,30.21674,27.26431,3.44813-.5744,9.54827-1.96152,24.82919,5.79193.86495.43888,1.53871-1.05502,2.21747-1.96828.00324.00257.00652.00517.00976.00769.28553-.21088.54696-.45684.76945-.7227,6.38123-7.62885,1.07046-1.66578,7.91245-8.88427.23838-.25162.45256-.53969.62911-.84764-.0029-.0029-.00583-.00588-.00876-.0088.81004-.76176,2.23803-1.61671,1.69941-2.42968-9.46402-14.28478-8.78971-20.50416-8.61681-23.99553.37105-7.49305-3.58451-15.01346-9.60962-20.13131-5.77821-4.90788-13.47546-7.15255-20.9576-6.73947Z" fill="#9dc9ed"/><path d="m94.05724,84.63932c1.52349-.67058,3.12241.75343,2.632,2.3441,1.52034-.66929,3.12036.74718,2.63197,2.34407,1.52334-.67062,3.12103.75231,2.63058,2.34283,1.9079-.83978,3.60498,1.51517,2.23083,3.05809l-16.07742,18.05206c-1.37039,1.5387-3.91044.13569-3.29373-1.86465-1.51348.66493-3.12601-.73618-2.63058-2.34283-1.52947.66911-3.12308-.75143-2.63197-2.34407-1.52589.67163-3.12318-.75094-2.632-2.3441-1.54481.68007-3.12288-.7772-2.63197-2.34407-1.91791.84419-3.60064-1.52004-2.23207-3.05671l16.07742-18.05206c1.37044-1.53876,3.91097-.13481,3.29496,1.86326.67365-.29651,1.48905-.1971,2.07254.32256.58352.51969.77631,1.31819.55943,2.02151Z" fill="#4171aa"/></g><path d="m89.22776,92.72098l-.9067.55738c-6.68145-10.86713-15.73571-20.13679-26.40095-27.08-.30489,2.96259-1.5104,5.82296-3.47901,7.99323,2.59501,1.84905,2.90646,2.47217,23.04628,25.30582l-.79749.70422c-19.86409-22.52104-20.46884-23.47938-23.00554-25.23831-2.839,2.67098-6.87343,4.28384-11.63234,3.77539-.46763-5.04216,5.56079-8.68638,11.48809-5.13777,2.02313-2.17454,3.18445-5.08611,3.36972-8.05046-1.33575-.84315-2.6946-1.64957-4.0772-2.41896-1.01965-.56743-4.12219-2.2938-3.56906-4.87396.60219-2.81073,5.9526-4.13017,8.03824,2.09507.49717,1.48363.72285,3.05616.6929,4.62743,11.01622,7.0637,20.36315,16.56886,27.23306,27.74092Zm-34.92449-34.24066c-.47627,2.22182,3.02212,3.58922,6.62635,5.82791-.07694-2.54313-1.01536-6.11197-3.32623-7.11908-.69723-.30375-1.60429-.26595-2.31068.09709-.49091.25223-.87377.65904-.98944,1.19408Zm-7.24614,19.28749c3.49441.23863,7.09103-1.04328,9.69559-3.39083-.81224-.46006-1.66741-.80754-2.58674-1.01332-3.0596-.68504-7.01715,1.34433-7.10884,4.40415Z" fill="#4171aa"/></g></svg>