<?xml version="1.0" encoding="utf-8"?>
<!-- Generator: Adobe Illustrator 23.0.5, SVG Export Plug-In . SVG Version: 6.00 Build 0)  -->
<svg version="1.1" xmlns="http://www.w3.org/2000/svg" xmlns:xlink="http://www.w3.org/1999/xlink" x="0px" y="0px"
	 viewBox="0 0 2340 1560" style="enable-background:new 0 0 2340 1560;" xml:space="preserve">
<style type="text/css">
	.st0{fill-rule:evenodd;clip-rule:evenodd;fill:#FFFFFF;}
	.st1{fill-rule:evenodd;clip-rule:evenodd;fill:#B6CBF0;}
	.st2{fill-rule:evenodd;clip-rule:evenodd;fill:#B2CCFF;}
	.st3{fill-rule:evenodd;clip-rule:evenodd;fill:#2D59C4;}
	.st4{fill:#B2CCFF;}
	.st5{fill:#FFFFFF;}
	.st6{fill-rule:evenodd;clip-rule:evenodd;fill:#7C9DEE;}
	.st7{fill:#1E3B81;}
</style>
<g id="Backgrounds">
	<polygon class="st0" points="2339.6,0.1 -0.4,0.1 -0.4,1560.1 2339.6,1560.1 2339.6,0.1 	"/>
</g>
<g id="Object">
	<g>
		<path class="st1" d="M780.1,1276.4c109.2,0,197.8,12.7,197.8,28.3c0,15.6-88.5,28.3-197.8,28.3c-109.2,0-197.8-12.7-197.8-28.3
			C582.3,1289.1,670.8,1276.4,780.1,1276.4L780.1,1276.4z"/>
	</g>
	<g>
		<path class="st0" d="M1780,288.1L1719,514.9l11.8,1.8c0,0,34.7,2,43.6,27.4c5.2,4.2,9.6,9.8,11.8,17.4c7.8,27.1-5.5,64.1-5.5,64.1
			l-174.9,596.7c0,0-13.9,51-69.3,47.8l-6.6,8c0.8,3,0.9,5.9,1.6,8.3l14.9,4.4l4.8,8c-0.1,6.9-1.3,13.7-3.4,20.1l-17.7,0.7
			c-2.1,5.4-5,10.4-8.6,14.9l8,14.8c-5.3,5.5-11.4,10.2-18.1,14.1l-12.6-11.7c-5.3,2.3-11,3.9-17,4.6l-5.9,18
			c-7,0.5-13.8,0.1-20.2-1.1l-4.8-8l-0.5-13.2c-3.4-1.5-6.7-3.3-9.7-5.4l-18,10.9c-5.2-4.4-16.7-12-18.7-22.6l0.5-0.7l13.4-16.2
			c-1.4-2.9-2.5-5.9-3.4-9l-15.4-2.9c-1.1-2.4-3.5-4.8-4.8-8c0-6.6,1-13.1,2.8-19.4l19-2.1c2-5.2,4.7-10,8.1-14.3l-5.7-13.6
			l-18.4-3.4c-0.9,7.2-2.4,14.3-4.6,21.2l-28.3,1c-3.3,8.6-8,16.6-13.8,23.8l12.7,23.7c-8.4,8.7-18.1,16.3-28.9,22.5l-20.1-18.7
			c-8.4,3.7-17.5,6.2-27.1,7.4l-9.4,28.7c-11.1,0.8-22,0.1-32.3-1.8l-7.7-12.7l-0.8-21.1c-5.5-2.4-10.7-5.2-15.5-8.5l-28.8,17.4
			c-8.3-7-26.6-19.1-29.9-36.1l0.9-1l21.4-25.9c-2.2-4.6-4.1-9.4-5.4-14.4l-24.6-4.6c-1.8-3.8-5.6-7.7-7.7-12.7
			c0.1-10.6,1.6-20.9,4.5-30.9l9.7-1l-300.2-55.9l4.9,69.7l1.6,22.8c33.4,3.8,39.4,39.3,39,45c-0.4,5.9,0.3,9.7-28.5,12.9
			c-18.3,2-45.2,0.2-65.2-3.3c-11.4-2-20.6-4.5-24.6-7.2c-10.9-7.3-4.4-36-2-45.8c0.9-3.7,2-13.5,3.1-24.4c1.7-18,3.2-38.8,3.2-38.8
			c-11.4,2.1-24.2,3.4-38.6,3.7l-0.3,48.5l-0.2,26.8c28.2,12.9,34,43.8,27.6,51.7c-7,8.6-73.4,13.3-101.4,5.5
			c-0.4-0.1-0.8-0.2-1.2-0.4c-26.4-7.7-19.5-14.1-19.5-14.1l8.4-70.3l8.1-67.7c0,0-15.3-13.5-19.2-26c-5.5,7.8-15.6,4.7-15.6,4.7
			c-1.9,4.4-4.8,7.9-8.3,10.1c-7.4,4.6-16.8-2.8-16.8-2.8c-19.7,7.7-25.8-11.9-25.8-11.9c-8.7-1.5-12.9-4.9-11.8-18.2
			c1.1-13.3,11.7-20.7,11.7-20.7c0-2.7,0.4-5.6,1-8.4c2-10.1,6.4-19.7,6.4-19.7c20.4-73.1,57-94.2,57-94.2
			c17-18.2,33.7-27.9,33.7-27.9l-1.5-4.5c-53.7-8.2-86.7-33.2-104.7-65.3c-17-1.6-31.8-21.9-33.6-47.1c-1.4-19.9,5.6-37.2,16.9-44.9
			c1.2-12.8,3.7-25.5,7.1-37.5c19.5-69.5,87.1-108.8,155.5-117.4c-2.5-15.1-7.9-33.6-10.4-41.9c-10.1-0.7-18.2-9-18.6-19.4
			c-0.3-11,8.3-20.2,19.4-20.5c11-0.3,20.2,8.4,20.6,19.4c0.2,7.9-4.1,14.8-10.6,18.2c2.7,9,8,27.6,10.5,43.1
			c21.6-1.7,43-0.3,62.8,4.3c36.9,8.4,64.3,25.9,83.9,46.2c2.8,2.9,5.4,5.8,7.8,8.7L954.1,473c0.3-2,0.8-4.2,1.5-6.6L944,455.6
			c-8.4,3.7-17.5,6.2-27.1,7.4l-9.4,28.7c-11.1,0.8-22,0.1-32.3-1.8l-7.7-12.7l-0.8-21.1c-5.5-2.4-10.7-5.2-15.5-8.5l-28.8,17.4
			c-8.3-7-26.6-19.1-29.9-36.1l0.9-1l21.4-25.9c-2.2-4.6-4.1-9.4-5.4-14.4l-24.6-4.6c-1.8-3.8-5.6-7.6-7.7-12.7
			c0.1-10.6,1.6-20.9,4.5-30.9l30.4-3.3c3.1-8.2,7.5-15.9,13-22.9l-11.4-27.2c8-7.9,17.1-14.9,27-20.6l21,19.5
			c8.3-3.7,17.3-6.2,26.7-7.5l9.2-29.6c12-0.8,23.6,0,34.6,2.4c2.5,0.4,6.8,8.7,7.7,12.7l0.6,21.8c5.6,2.5,10.8,5.5,15.6,8.9
			l30.3-15.5c7.5,7,13.9,15,19.1,23.8c3,3.8,5.2,8.5,7.7,12.7l-19.4,23.5c1.2,4.7,1.4,9.4,2.5,13.3l23.7,7.1l7.7,12.7
			c-0.2,11-2.1,21.8-5.4,32.1l-28.3,1c-3,7.8-7.1,15.1-12.1,21.7c13.2-11,31.6-18.2,55.9-14.4l161.8,24.5l181.9-250.5l91.6,13.5
			l35.2,45.9l40.6,244l33.2,5l71.5-266.7l92,13.1L1780,288.1L1780,288.1z M1379.9,392.6l39.2,6.2l-7-52.9L1379.9,392.6L1379.9,392.6
			z M829.2,929.5c-5.8,1.8-11.9,3.5-18.3,5c3.5,1,7.4,2.4,7.5,3.3c0,0,2.9,1.3,7.5,4.1L829.2,929.5L829.2,929.5z M1228,1213.4
			c-4.4,8.2-6.8,17.6-6.5,27.4c0.2,7.1,1.8,13.8,4.5,20c11.1,13.8,28.8,22.6,48.5,22c29.9-0.8,53.9-22.6,57-50.2L1228,1213.4
			L1228,1213.4z M1474.6,1266.5c-20.4,0.5-36.5,16.8-35.9,36.3c0.1,4.4,1.1,8.7,2.8,12.5c7,8.7,18.1,14.1,30.4,13.8
			c20.4-0.5,36.5-16.8,35.9-36.3c-0.1-4.4-1.1-8.7-2.8-12.5C1498,1271.6,1487,1266.2,1474.6,1266.5L1474.6,1266.5z M848.5,377.5
			c0.2,7.1,1.8,13.8,4.5,20c11.1,13.8,28.8,22.6,48.5,22c32.6-0.9,58.2-26.8,57.3-57.9c-0.2-7.1-1.8-13.8-4.5-20
			c-11.1-13.8-28.8-22.6-48.5-22C873.2,320.5,847.5,346.4,848.5,377.5L848.5,377.5z"/>
	</g>
	<g>
		<path class="st2" d="M593.5,1087c-0.6,2.8-0.9,5.7-1,8.4c0,0-10.6,7.4-11.7,20.7c-1.1,13.3,3.1,16.7,11.8,18.2
			c0,0,6,19.5,25.8,11.9c0,0,9.5,7.4,16.8,2.8c3.5-2.2,6.4-5.7,8.3-10.1c0,0,10.1,3.1,15.6-4.7c4,12.4,19.2,26,19.2,26
			c2.4-9.6,7.6-20.5,35.1-13.4c27.5,7.1,43.4,33.5,43.4,33.5c14.3-0.3,27.1-1.6,38.6-3.7c32.9-6.2,54.4-19.4,68.1-36.3
			c1.9-2.3,3.6-4.7,5.2-7.1c5.8-8.8,9.7-18.5,12.3-28.4c3.3-13,4.2-26.6,3.7-39.8c4.4,2,8.2,6.3,11.8,11.3
			c6.6,9.4,12.4,21.4,19.1,26.1c10.4,7.3,17.5-1.1,16-6.9c-0.6-2.3-0.8-5.1-0.8-7.8c11.2,14.7,23.5,9.5,32,3.4
			c8.6-6.1,3.1-19.4,3.1-19.4c3.7-0.3,6.5-10.1,2.4-17.6c-4.1-7.5-19.8-9.6-19.8-9.6c-2.1-3.6-4.6-7.4-7.2-11.3
			c-0.4-0.5-0.7-1.1-1.1-1.6l1.5,0.3c-14.4-19.2-27.9-33.9-40.2-45.2c-38.8-35.5-65.2-37-65.2-37c-4-3.3-7.7-5.9-10.7-7.8
			c-4.6-2.9-7.5-4.1-7.5-4.1c0-0.9-4-2.3-7.5-3.3c-6.3,1.5-12.9,2.8-19.9,3.8c-40.2,6.3-73.8,6.6-101.9,2.4l1.5,4.5
			c0,0-16.7,9.7-33.7,27.9c0,0-36.6,21.1-57,94.2C599.9,1067.4,595.5,1076.9,593.5,1087L593.5,1087z"/>
	</g>
	<g>
		<path class="st2" d="M670.5,1228l-8.4,70.3c0,0-7,6.4,19.5,14.1c0.4,0.1,0.8,0.2,1.2,0.4c27.9,7.8,94.4,3.1,101.4-5.5
			c6.4-7.9,0.7-38.8-27.6-51.7l0.2-26.8l0.3-48.5c0,0-15.9-26.4-43.4-33.5c-27.5-7.1-32.6,3.8-35.1,13.4L670.5,1228L670.5,1228z
			 M868.9,1215.4l-4.9-69.7l-0.4-5.4c-13.7,16.9-35.3,30.1-68.1,36.3c0,0-1.5,20.8-3.2,38.8c-1,10.9-2.1,20.7-3.1,24.4
			c-2.4,9.8-9,38.5,2,45.8c4,2.7,13.1,5.2,24.6,7.2c20,3.5,46.9,5.3,65.2,3.3c28.7-3.1,28-7,28.5-12.9c0.4-5.7-5.5-41.2-39-45
			L868.9,1215.4L868.9,1215.4z"/>
	</g>
	<g>
		<path class="st3" d="M1005.4,301.9c3,3.8,5.2,8.5,7.7,12.7l-19.4,23.5c1.2,4.7,1.4,9.4,2.5,13.3l23.7,7.1l7.7,12.7
			c-0.2,11-2.1,21.8-5.4,32.1l-28.3,1c-3.3,8.6-8,16.6-13.8,23.8l12.7,23.7c-8.4,8.7-18.1,16.3-28.9,22.5L944,455.6
			c-8.4,3.7-17.5,6.2-27.1,7.4l-9.4,28.7c-11.1,0.8-22,0.1-32.3-1.8l-7.7-12.7l-0.8-21.1c-5.5-2.4-10.7-5.2-15.5-8.5l-28.8,17.4
			c-8.3-7-26.6-19.1-29.9-36.1l0.9-1l21.4-25.9c-2.2-4.6-4.1-9.4-5.4-14.4l-24.6-4.6c-1.8-3.8-5.6-7.6-7.7-12.7
			c0.1-10.6,1.6-20.9,4.5-30.9l30.4-3.3c3.1-8.2,7.5-15.9,13-22.9l-11.4-27.2c8-7.9,17.1-14.9,27-20.6l21,19.5
			c8.3-3.7,17.3-6.2,26.7-7.5l9.2-29.6c12-0.8,23.6,0,34.6,2.4c2.5,0.4,6.8,8.7,7.7,12.7l0.6,21.8c5.6,2.5,10.8,5.5,15.6,8.9
			l30.3-15.5C993.7,285.1,1000.2,293.1,1005.4,301.9L1005.4,301.9z M954.3,341.6c-11.1-13.8-28.8-22.6-48.5-22
			c-32.6,0.9-58.2,26.8-57.3,57.9c0.2,7.1,1.8,13.8,4.5,20c11.1,13.8,28.8,22.6,48.5,22c32.6-0.9,58.2-26.8,57.3-57.9
			C958.5,354.6,957,347.8,954.3,341.6L954.3,341.6z"/>
	</g>
	<g>
		<path class="st2" d="M932.9,281.8c8.4,2.9,16.1,6.9,23.1,11.9l30.3-15.5c7.5,7,13.9,15,19.1,23.8l-21.1,25.6
			c3.2,7,5.5,14.5,6.6,22.4l29,8.7c-0.2,11-2.1,21.8-5.4,32.1l-28.3,1c-3.3,8.6-8,16.6-13.8,23.8l12.7,23.7
			c-8.4,8.7-18.1,16.3-28.9,22.5l-20.1-18.7c-8.4,3.7-17.5,6.2-27.1,7.4l-9.4,28.7c-11.1,0.8-22,0.1-32.3-1.8l-1.2-31
			c-8.2-2.8-15.9-6.6-22.9-11.3l-28.8,17.4c-8.3-7-15.5-15.3-21.3-24.4l21.4-25.9c-3.9-8.1-6.6-16.8-7.7-26.1l-30-5.6
			c0.1-10.6,1.6-20.9,4.5-30.9l30.4-3.3c3.1-8.2,7.5-15.9,13-22.9l-11.4-27.2c8-7.9,17.1-14.9,27-20.6l21,19.5
			c8.3-3.7,17.3-6.2,26.7-7.5l9.2-29.6c12-0.8,23.6,0,34.6,2.4L932.9,281.8L932.9,281.8z M898,306.9c32.6-0.9,59.8,23.6,60.7,54.8
			c0.9,31.1-24.7,57.1-57.3,57.9c-32.6,0.9-59.8-23.6-60.7-54.8C839.8,333.7,865.5,307.8,898,306.9L898,306.9z"/>
	</g>
	<g>
		<path class="st2" d="M1296.4,675.1c114.4,5.9,181.8,109.1,151.9,203.5c-19.2,60.6-56.7,84.3-93,90.3
			c-11.3,43.3-62.8,37.7-95.1,24.7c0,0-1.9,34.8-13.8,34.6c-11.9-0.3-23.5-73.2-23.5-73.2c-38.4-4.4-77-10.1-94-24.9
			c-19.4-16.9-15.4-44.7,0.4-66.3c0,0-57.4,31.1-56.7-52C1073.1,728.7,1182,669.2,1296.4,675.1L1296.4,675.1z"/>
	</g>
	<g>
		<path class="st2" d="M1565.6,555.7l13,17.8h0l21.6,29.7l69.4,10.9l21.8,3.4l20.5-76.1l7.1-26.4l61.1-226.9l-34.6-47.5l-92-13.1
			l-71.5,266.7l-7.2,26.9L1565.6,555.7L1565.6,555.7z M1566.3,593.9L1566.3,593.9l-12.7-76l-4.8-28.8l-40.6-244l-35.2-45.9
			l-91.6-13.5l-181.9,250.5l-19.2,26.5l-24.6,33.9l35.2,45.9l91.6,14.3l42.4-61l108.1,16.4l3.3,25.1l35.2,45.9l19.5,2.8l29.5,4.2
			c-0.2,0.1-0.4,0.2-0.7,0.4l47,7.4L1566.3,593.9L1566.3,593.9z M1412.1,346l7,52.9l-39.2-6.2L1412.1,346L1412.1,346z"/>
	</g>
	<g>
		<path class="st3" d="M1378.4,1165.2c3,3.8,5.2,8.5,7.7,12.7l-19.4,23.5c1.2,4.7,1.4,9.4,2.5,13.3l23.7,7.1l7.7,12.7
			c-0.2,11-2.1,21.8-5.4,32.1l-28.3,1c-3.3,8.6-8,16.6-13.8,23.8l12.7,23.7c-8.4,8.7-18.1,16.3-28.9,22.5l-20.1-18.7
			c-8.4,3.7-17.5,6.2-27.1,7.4l-9.4,28.7c-11.1,0.8-22,0.1-32.3-1.8l-7.7-12.7l-0.8-21.1c-5.5-2.4-10.7-5.2-15.5-8.5l-28.8,17.4
			c-8.3-7-26.6-19.1-29.9-36.1l0.9-1l21.4-25.9c-2.2-4.6-4.1-9.4-5.4-14.4l-24.6-4.6c-1.8-3.8-5.6-7.7-7.7-12.7
			c0.1-10.6,1.6-20.9,4.5-30.9l30.4-3.3c3.1-8.2,7.5-15.9,13-22.9l-11.4-27.2c8-7.9,17.1-14.9,27-20.6l21,19.5
			c8.3-3.7,17.3-6.2,26.7-7.5l9.2-29.6c12-0.8,23.6,0,34.6,2.4c2.5,0.4,6.8,8.7,7.7,12.7l0.5,21.8c5.6,2.5,10.8,5.5,15.6,8.9
			l30.3-15.5C1366.7,1148.4,1373.2,1156.4,1378.4,1165.2L1378.4,1165.2z M1331.4,1232.7l-103.5-19.2c-4.4,8.2-6.8,17.6-6.5,27.4
			c0.2,7.1,1.8,13.8,4.5,20c11.1,13.8,28.8,22.6,48.5,22C1304.3,1282.1,1328.3,1260.3,1331.4,1232.7L1331.4,1232.7z M1474.6,1266.5
			c-20.4,0.5-36.5,16.8-35.9,36.3c0.1,4.4,1.1,8.7,2.8,12.5c7,8.7,18.1,14.1,30.4,13.8c20.4-0.5,36.5-16.8,35.9-36.3
			c-0.1-4.4-1.1-8.7-2.8-12.5C1498,1271.6,1487,1266.2,1474.6,1266.5L1474.6,1266.5z M1537.1,1255.4c1.9,2.4,3.3,5.3,4.8,8
			l-12.2,14.7c0.8,3,0.9,5.9,1.6,8.3l14.9,4.4l4.8,8c-0.1,6.9-1.3,13.7-3.4,20.1l-17.7,0.7c-2.1,5.4-5,10.4-8.6,14.9l8,14.8
			c-5.3,5.5-11.4,10.2-18.1,14.1l-12.6-11.7c-5.3,2.3-11,3.9-17,4.6l-5.9,18c-7,0.5-13.8,0.1-20.2-1.1l-4.8-8l-0.5-13.2
			c-3.4-1.5-6.7-3.3-9.7-5.4l-18,10.9c-5.2-4.4-16.7-12-18.7-22.6l0.5-0.7l13.4-16.2c-1.4-2.9-2.5-5.9-3.4-9l-15.4-2.9
			c-1.1-2.4-3.5-4.8-4.8-8c0-6.6,1-13.1,2.8-19.4l19-2.1c2-5.2,4.7-10,8.1-14.3l-7.1-17c5-5,10.7-9.3,16.9-12.9l13.2,12.3
			c5.2-2.3,10.8-3.9,16.8-4.7l5.8-18.5c7.5-0.5,14.8,0,21.7,1.5c1.6,0.2,4.3,5.5,4.8,8l0.3,13.7c3.5,1.6,6.8,3.4,9.8,5.6l19-9.7
			C1529.8,1244.8,1533.8,1249.9,1537.1,1255.4L1537.1,1255.4z"/>
	</g>
	<g>
		<path class="st2" d="M634,837.8c-2.5,34.2-17.1,40.1-48.9,37.7c-0.2,0-0.5,0-0.7-0.1c18,32.1,50.9,57.1,104.7,65.3
			c28,4.3,61.7,3.9,101.9-2.4c7-1.1,13.6-2.4,19.9-3.8c6.4-1.5,12.5-3.2,18.3-5c12.5-4,23.6-8.8,33.3-14.2c15.1-8.4,27-18.3,36.4-29
			c-88.2,56.3-176.5,29.4-189.1,15.4c-13.7-15.2-55.5-135.9-23.1-174.2c29.1-34.4,143.1-56.2,201.2-49.6
			c-19.6-20.3-47-37.8-83.9-46.2c-19.8-4.5-41.2-5.9-62.8-4.3c0.7,4.3,1.2,8.4,1.3,11.9c0.2,4,0.2,7.5,0.1,10.5
			c-0.9,1-2.9,1.8-5.3,1.8c-2.6,0.1-4.9-0.7-5.6-1.9c0.1-2.8,0.1-6.1-0.1-10.1c-0.1-3.3-0.6-7.1-1.3-11.2
			c-68.4,8.6-136,47.9-155.5,117.4c-3.4,12.1-5.8,24.7-7.1,37.5c0.7-0.5,1.5-0.9,2.2-1.4c0,0,3.3-4.8,11.1-9
			c20-10.8,35.1-0.7,43.2,12.9C633.1,800.9,635.2,821,634,837.8L634,837.8z"/>
	</g>
	<g>
		<path class="st2" d="M585.1,875.5c31.9,2.4,46.5-3.5,48.9-37.7c1.2-16.8-0.9-36.9-9.8-51.9c-8.1-13.6-23.2-23.7-43.2-12.9
			c-7.8,4.2-11.1,9-11.1,9c-0.8,0.4-1.5,0.9-2.2,1.4c-11.3,7.6-18.3,24.9-16.9,44.9c1.8,25.2,16.6,45.5,33.6,47.1
			C584.6,875.5,584.9,875.5,585.1,875.5L585.1,875.5z"/>
	</g>
	<g>
		<path class="st3" d="M686.6,727.6c-32.4,38.3,9.4,159,23.1,174.2c12.6,13.9,100.9,40.9,189.1-15.4c38.8-44.5,33.3-103,30.1-128.1
			c-1.4-11.4-5.5-25.4-12.7-40c-5.2-10.5-12-21.3-20.6-31.7c-2.5-2.9-5.1-5.9-7.8-8.7C829.7,671.4,715.7,693.2,686.6,727.6
			L686.6,727.6z"/>
	</g>
	<g>
		<path class="st2" d="M580.2,779.4c18.2-0.5,34.5,20.6,36.4,47.2c1.9,26.6-11.3,48.5-29.4,49c-18.2,0.5-34.5-20.6-36.4-47.2
			C548.8,801.8,562,779.8,580.2,779.4L580.2,779.4z"/>
	</g>
	<g>
		<path class="st4" d="M730.6,584.4c3.5,11.5,11.2,38.7,11.8,55c0.2,4,0.2,7.5,0.1,10.5c-0.9,1-2.9,1.8-5.3,1.8
			c-2.6,0.1-4.9-0.7-5.6-1.9l0,0.2c0.1-2.8,0.1-6.3-0.1-10.4c-0.6-15.5-8.4-42.5-11.6-53.1c0.7,0,1.3,0.1,2,0
			C725,586.6,728,585.8,730.6,584.4L730.6,584.4z"/>
	</g>
	<g>
		<path class="st2" d="M720.6,546.7c11-0.3,20.2,8.4,20.6,19.4c0.3,11-8.3,20.2-19.4,20.5c-11,0.3-20.2-8.4-20.6-19.4
			C700.9,556.2,709.6,547,720.6,546.7L720.6,546.7z"/>
	</g>
	<g>
		<path class="st5" d="M822.4,871.9c-0.3,0-0.5,0-0.8,0c-18.8-0.2-33.6-6.8-34.3-7c-1.6-0.7-2.3-2.6-1.6-4.2
			c0.7-1.6,2.6-2.3,4.2-1.6c0.2,0.1,14.4,6.4,31.9,6.5c0.2,0,0.4,0,0.5,0c22.8,0,40.3-10.1,52-30.1c0.9-1.5,2.9-2,4.4-1.1
			c1.5,0.9,2,2.9,1.1,4.4C863.9,866,839.9,871.9,822.4,871.9z"/>
	</g>
	<g>
		<path class="st0" d="M756.4,737.4c12.8-2.2,26.4,15.1,30.5,38.6c4.1,23.5-2.9,44.3-15.7,46.5c-12.8,2.2-26.4-15.1-30.5-38.6
			C736.6,760.4,743.6,739.6,756.4,737.4L756.4,737.4z"/>
	</g>
	<g>
		<path class="st0" d="M857.1,719.4c11.3-2,23.3,14,26.9,35.9c3.6,21.9-2.6,41.2-13.8,43.3c-11.3,2-23.3-14-26.9-35.9
			C839.6,740.8,845.8,721.5,857.1,719.4L857.1,719.4z"/>
	</g>
	<g>
		<path class="st3" d="M1468.8,1098.4c2.4,0.4,5.2-2,6.1-5.3l17.6-65.2c0.9-3.3-0.4-6.4-2.8-6.8l-27.7-4.6c-2.4-0.4-5.2,2-6.1,5.3
			l-17.6,65.2c-0.9,3.3,0.4,6.4,2.8,6.8L1468.8,1098.4L1468.8,1098.4z"/>
	</g>
	<g>
		<path class="st3" d="M1424.1,1090.9c2.4,0.4,5.2-2,6.1-5.3l8.5-31.3c0.9-3.3-0.4-6.4-2.8-6.8l-27.7-4.6c-2.4-0.4-5.2,2-6.1,5.3
			l-8.5,31.3c-0.9,3.3,0.4,6.4,2.8,6.8L1424.1,1090.9L1424.1,1090.9z"/>
	</g>
	<g>
		<path class="st3" d="M1513.6,1105.9c2.4,0.4,5.2-2,6.1-5.3l26.7-98.6c0.9-3.3-0.4-6.4-2.8-6.8l-27.7-4.6c-2.4-0.4-5.2,2-6.1,5.3
			l-26.7,98.6c-0.9,3.3,0.4,6.4,2.8,6.8L1513.6,1105.9L1513.6,1105.9z"/>
	</g>
	<g>
		<path class="st3" d="M1549.4,649.6l64.2,11.9c2.1,0.4,3.5,2.5,3,4.6l-4.7,19.8c-0.5,2.1-2.7,3.5-4.8,3.1l-64.2-11.9
			c-2.1-0.4-3.5-2.5-3-4.6l4.7-19.8C1545.1,650.6,1547.3,649.2,1549.4,649.6L1549.4,649.6z"/>
	</g>
	<g>
		<path class="st3" d="M1560.5,692.1l23.5,4.4c2.1,0.4,3.4,2.4,2.9,4.6l-4.7,19.8c-0.5,2.1-2.6,3.5-4.7,3.1l-23.5-4.4
			c-2.1-0.4-3.4-2.4-2.9-4.6l4.7-19.8C1556.3,693.1,1558.4,691.7,1560.5,692.1L1560.5,692.1z"/>
	</g>
	<g>
		<path class="st3" d="M1510.7,682.8l23.5,4.4c2.1,0.4,3.4,2.4,2.9,4.6l-4.7,19.8c-0.5,2.1-2.6,3.5-4.7,3.1l-23.5-4.4
			c-2.1-0.4-3.4-2.4-2.9-4.6l4.7-19.8C1506.5,683.9,1508.6,682.4,1510.7,682.8L1510.7,682.8z"/>
	</g>
	<g>
		<path class="st3" d="M1610.2,701.3l23.5,4.4c2.1,0.4,3.4,2.4,2.9,4.6l-4.7,19.8c-0.5,2.1-2.6,3.5-4.7,3.1l-23.5-4.4
			c-2.1-0.4-3.4-2.4-2.9-4.6l4.7-19.8C1606,702.4,1608.1,700.9,1610.2,701.3L1610.2,701.3z"/>
	</g>
	<g>
		<path class="st3" d="M1558.6,611.1l64.2,11.9c2.1,0.4,3.5,2.5,3,4.6l-4.7,19.8c-0.5,2.1-2.7,3.5-4.8,3.1l-64.2-11.9
			c-2.1-0.4-3.5-2.5-3-4.6l4.7-19.8C1554.3,612.1,1556.5,610.7,1558.6,611.1L1558.6,611.1z"/>
	</g>
	<g>
		<path class="st3" d="M1398.4,814.7c6.3-0.2,11.6,4.8,11.8,11.2c0.2,6.4-4.8,11.6-11.1,11.8c-6.3,0.2-11.6-4.8-11.8-11.2
			C1387,820.1,1392,814.8,1398.4,814.7L1398.4,814.7z M1282.5,882.1c6.3-0.2,11.6,4.8,11.8,11.2c0.2,6.4-4.8,11.6-11.1,11.8
			c-6.3,0.2-11.6-4.8-11.8-11.2C1271.2,887.5,1276.2,882.2,1282.5,882.1L1282.5,882.1z M1327.6,931.4c6.3-0.2,11.6,4.8,11.8,11.2
			c0.2,6.4-4.8,11.6-11.1,11.8c-6.3,0.2-11.6-4.8-11.8-11.2C1316.2,936.9,1321.2,931.6,1327.6,931.4L1327.6,931.4z M1331.9,896.2
			c6.3-0.2,11.6,4.8,11.8,11.2c0.2,6.4-4.8,11.6-11.1,11.8c-6.3,0.2-11.6-4.8-11.8-11.2C1320.5,901.7,1325.5,896.4,1331.9,896.2
			L1331.9,896.2z M1238.4,847.5c6.3-0.2,11.6,4.8,11.8,11.2c0.2,6.4-4.8,11.6-11.1,11.8c-6.3,0.2-11.6-4.8-11.8-11.2
			C1227.1,852.9,1232.1,847.6,1238.4,847.5L1238.4,847.5z M1190,916.3c6.3-0.2,11.6,4.8,11.8,11.2c0.2,6.4-4.8,11.6-11.1,11.8
			c-6.3,0.2-11.6-4.8-11.8-11.2C1178.7,921.7,1183.7,916.4,1190,916.3L1190,916.3z M1171.8,757c6.3-0.2,11.6,4.8,11.8,11.2
			c0.2,6.4-4.8,11.6-11.1,11.8c-6.3,0.2-11.6-4.8-11.8-11.2C1160.4,762.4,1165.4,757.1,1171.8,757L1171.8,757z M1208.8,744.2
			c6.3-0.2,11.6,4.8,11.8,11.2c0.2,6.4-4.8,11.6-11.1,11.8c-6.3,0.2-11.6-4.8-11.8-11.2C1197.5,749.7,1202.5,744.4,1208.8,744.2
			L1208.8,744.2z M1221.6,709.8c6.3-0.2,11.6,4.8,11.8,11.2c0.2,6.4-4.8,11.6-11.1,11.8c-6.3,0.2-11.6-4.8-11.8-11.2
			C1210.3,715.2,1215.2,709.9,1221.6,709.8L1221.6,709.8z M1304.4,722.1c6.3-0.2,11.6,4.8,11.8,11.2c0.2,6.4-4.8,11.6-11.1,11.8
			c-6.3,0.2-11.6-4.8-11.8-11.2C1293,727.5,1298,722.2,1304.4,722.1L1304.4,722.1z M1288.5,782.4c6.3-0.2,11.6,4.8,11.8,11.2
			c0.2,6.4-4.8,11.6-11.1,11.8c-6.3,0.2-11.6-4.8-11.8-11.2C1277.1,787.9,1282.1,782.6,1288.5,782.4L1288.5,782.4z M1340.4,783.8
			c6.3-0.2,11.6,4.8,11.8,11.2c0.2,6.4-4.8,11.6-11.1,11.8c-6.3,0.2-11.6-4.8-11.8-11.2C1329.1,789.2,1334.1,784,1340.4,783.8
			L1340.4,783.8z M1371.2,759.8c6.3-0.2,11.6,4.8,11.8,11.2c0.2,6.4-4.8,11.6-11.1,11.8c-6.3,0.2-11.6-4.8-11.8-11.2
			C1359.8,765.2,1364.8,760,1371.2,759.8L1371.2,759.8z"/>
	</g>
	<g>
		<path class="st3" d="M986,935.9c13.2-0.1,23.9,10.6,24.1,23.8c0.1,13.2-10.5,23.9-23.7,24c-13.2,0.1-23.9-10.6-24.1-23.8
			C962.3,946.7,972.9,936,986,935.9L986,935.9z M1011.9,989.4l16,30.7l-14.1,7.4l-15.8-30.2c-3.6,1.1-7.5,1.8-11.5,1.8
			c-21.6,0.1-39.3-17.3-39.5-39c-0.2-21.6,17.2-39.3,38.8-39.4c21.6-0.1,39.3,17.3,39.5,39C1025.5,971.5,1020.3,982.2,1011.9,989.4
			L1011.9,989.4z"/>
	</g>
	<g>
		<path class="st2" d="M901.4,942.8L901.4,942.8L901.4,942.8z M947.1,960c-0.1-12.3,5.4-23.2,14.2-30.5l-34.1-5.5
			c-12.3-2-23.9,6.5-25.9,18.8c-1.9,12.3,6.5,24,18.8,25.9l29.4,4.7C948,969.3,947.1,964.7,947.1,960L947.1,960z"/>
	</g>
	<g>
		<path class="st3" d="M1084,570.9c9.5,1.5,15,10.8,12.3,20.8c-2.7,10-12.7,16.8-22.2,15.3c-9.5-1.5-15-10.8-12.3-20.8
			C1064.6,576.3,1074.5,569.4,1084,570.9L1084,570.9z"/>
	</g>
	<g>
		<path class="st2" d="M1366.7,1201.4c1.2,4.7,1.4,9.4,2.5,13.3l23.7,7.1l6.1,10l27.7,5.2c2.2-1.6,4.6-3.1,7-4.5l7.8,7.3l12.6,2.3
			c3.1-0.9,6.3-1.6,9.5-2l5.8-18.5c7.5-0.5,14.8,0,21.7,1.5c1.6,0.2,4.3,5.5,4.8,8l0.3,13.7c3.5,1.6,6.8,3.4,9.8,5.6l19-9.7
			c4.4,4.1,8.2,8.8,11.4,13.9c46-3.7,58-47.7,58-47.7l174.9-596.7c0,0,13.3-37,5.5-64.1c-0.2-0.6-0.4-1.2-0.6-1.8
			c-8.9-25.4-43.6-27.4-43.6-27.4l-11.8-1.8l-7.1,26.4l3.4,0.5c38.1,9.8,32.9,40.4,26.1,60.6l-173.4,591.3
			c-7.7,28.1-34.3,32.7-57.8,28l-138.9-25.8L1366.7,1201.4L1366.7,1201.4z M1197.9,1176.5l-5.8-13.9l-310.9-57.8
			c-2.5,10-6.5,19.6-12.3,28.4l319,59.3C1190.6,1186.9,1194,1181.5,1197.9,1176.5L1197.9,1176.5z M1278.7,1183
			c-16.8,0.5-31.8,7.6-42.2,18.6l94.7,17.6c-0.7-5-2-9.7-4-14.2C1316.1,1191.2,1298.4,1182.4,1278.7,1183L1278.7,1183z"/>
	</g>
	<g>
		<path class="st2" d="M1180.4,462.6l19.2-26.5l-161.8-24.5c-24.3-3.8-42.7,3.4-55.9,14.4c-0.5,0.7-1.1,1.4-1.6,2.1l12.7,23.7
			c-8.4,8.7-18.1,16.3-28.9,22.5l-8.4-7.8c-0.7,2.4-1.2,4.6-1.5,6.6l-58.5,213.6c8.6,10.3,15.4,21.2,20.6,31.7l64.9-237.5
			c8.3-28.5,28.1-43.6,55.3-39.5L1180.4,462.6L1180.4,462.6z M856.5,937.2l5.6-21.6c-9.6,5.3-20.5,10-32.9,14l-3.4,12.4
			c3,1.9,6.6,4.4,10.7,7.8c0,0,5.7,0.3,15.7,4.2L856.5,937.2L856.5,937.2z"/>
	</g>
	<g>
		<path class="st2" d="M1305.9,1145.1c8.4,2.9,16.1,6.9,23.1,11.9l30.3-15.5c7.5,7,13.9,15,19.1,23.8l-21.1,25.6
			c3.2,7,5.5,14.5,6.6,22.4l29,8.7c-0.2,11-2.1,21.8-5.4,32.1l-28.3,1c-3.3,8.6-8,16.6-13.8,23.8l12.7,23.7
			c-8.4,8.7-18.1,16.3-28.9,22.5l-20.1-18.7c-8.4,3.7-17.5,6.2-27.1,7.4l-9.4,28.7c-11.1,0.8-22,0.1-32.3-1.8l-1.2-31
			c-8.2-2.8-15.9-6.6-22.9-11.3l-28.8,17.4c-8.3-7-15.5-15.3-21.3-24.4l21.4-25.9c-3.9-8.1-6.6-16.8-7.7-26.1l-30-5.6
			c0.1-10.6,1.6-20.9,4.5-30.9l30.4-3.3c3.1-8.2,7.5-15.9,13-22.9l-11.4-27.2c8-7.9,17.1-14.9,27-20.6l21,19.5
			c8.3-3.7,17.3-6.2,26.7-7.5l9.2-29.6c12-0.8,23.6,0,34.6,2.4L1305.9,1145.1L1305.9,1145.1z M1271,1170.2
			c32.6-0.9,59.8,23.6,60.7,54.8c0.9,31.1-24.7,57.1-57.3,57.9c-32.6,0.9-59.8-23.6-60.7-54.8
			C1212.8,1197.1,1238.5,1171.1,1271,1170.2L1271,1170.2z"/>
	</g>
	<g>
		<path class="st2" d="M1491.6,1242.8c5.2,1.8,10.1,4.3,14.5,7.4l19-9.7c4.7,4.4,8.7,9.4,12,14.9l-13.2,16c2,4.4,3.4,9.1,4.2,14
			l18.2,5.4c-0.1,6.9-1.3,13.7-3.4,20.1l-17.7,0.7c-2.1,5.4-5,10.4-8.6,14.9l8,14.8c-5.3,5.5-11.4,10.2-18.1,14.1l-12.6-11.7
			c-5.3,2.3-11,3.9-17,4.6l-5.9,18c-7,0.5-13.8,0.1-20.2-1.1l-0.8-19.4c-5.2-1.7-10-4.1-14.3-7.1l-18,10.9
			c-5.2-4.4-9.7-9.6-13.4-15.3l13.4-16.2c-2.5-5-4.1-10.5-4.8-16.3l-18.8-3.5c0-6.6,1-13.1,2.8-19.4l19-2.1c2-5.2,4.7-10,8.1-14.3
			l-7.1-17c5-5,10.7-9.3,16.9-12.9l13.2,12.2c5.2-2.3,10.8-3.9,16.8-4.7l5.8-18.5c7.5-0.5,14.8,0,21.7,1.5L1491.6,1242.8
			L1491.6,1242.8z M1469.8,1258.5c20.4-0.5,37.5,14.8,38,34.3c0.6,19.5-15.5,35.8-35.9,36.3c-20.4,0.5-37.5-14.8-38-34.3
			C1433.3,1275.3,1449.4,1259.1,1469.8,1258.5L1469.8,1258.5z"/>
	</g>
	<g>
		<path class="st3" d="M1155.8,496.5l225.6-310.8l91.6,13.5l58.5,351.6l-95.1-13.4l-8.8-66.6l-137.9-20.9l-42.4,61L1155.8,496.5
			L1155.8,496.5z M1331,384.9l72.4-105l15.7,119L1331,384.9L1331,384.9z"/>
	</g>
	<g>
		<polygon class="st3" points="1565.6,555.7 1656.8,570 1745.5,240.6 1653.5,227.5 1565.6,555.7 		"/>
	</g>
	<g>
		<path class="st6" d="M630.9,763.5c-28.3-7.1-32.4-44.6-35.5-60.9c-9.1,12.8-16.1,27.3-20.6,43.3c-3.4,12.1-5.8,24.7-7.1,37.5
			c0.7-0.5,1.5-0.9,2.2-1.4c0,0,3.3-4.8,11.1-9c20-10.8,35.1-0.7,43.2,12.9c9,14.9,11,35,9.8,51.9c-2.5,34.2-17.1,40.1-48.9,37.7
			c-0.2,0-0.5,0-0.7-0.1c18,32.1,50.9,57.1,104.7,65.3c28,4.3,61.7,3.9,101.9-2.4c7-1.1,13.6-2.4,19.9-3.8c6.4-1.5,12.5-3.2,18.3-5
			c12.4-3.9,23.3-8.7,32.9-14c0.1-0.1,0.2-0.1,0.4-0.2c15.1-8.4,27-18.3,36.4-29c-88.2,56.3-176.5,29.4-189.1,15.4
			c-10.5-11.6-37.1-84.1-35-135.1C659.5,770.6,650.6,768.4,630.9,763.5L630.9,763.5z"/>
	</g>
	<g>
		<path class="st6" d="M633.1,846.4c-6.4,1.4-13,1.8-18.4,1.8c-4.3,15.9-14.6,27.1-27.5,27.4c-0.7,0-1.4,0-2,0
			C614.1,877.7,628.8,873,633.1,846.4L633.1,846.4z"/>
	</g>
	<g>
		<path class="st6" d="M690.5,945.3c0,0-8.7,5-19.9,14.7c6.4,6.6,16.8,12.9,33.3,13.1c34.6,0.5,103.5-5,121.8-31.1
			c-4.6-2.9-7.5-4.1-7.5-4.1c0-0.9-4-2.3-7.5-3.3c-6.3,1.5-12.9,2.8-19.9,3.8c-40.2,6.3-73.8,6.6-101.9,2.4L690.5,945.3L690.5,945.3
			z"/>
	</g>
	<g>
		<path class="st6" d="M909.1,1070.6c-7.1,4-12.5,5.7-12.5,5.7c6.6,9.4,12.4,21.4,19.1,26.1c10.4,7.3,17.5-1.1,16-6.9
			c-0.1-0.5-0.2-1-0.3-1.5C924.7,1088.2,917,1079.8,909.1,1070.6L909.1,1070.6z"/>
	</g>
	<g>
		<path class="st6" d="M896.6,1076.3c0,0,5.4-1.7,12.5-5.7c-9.6-11.2-19.4-23.6-27.5-34.3c1.7,9.1,2.9,18.8,3.3,28.7
			C889.2,1067,893,1071.3,896.6,1076.3L896.6,1076.3z"/>
	</g>
	<g>
		<path class="st6" d="M670.5,1228l-8.4,70.3c0,0-7,6.4,19.5,14.1c-0.9-5.3-0.9-10.5-0.1-15.5c-2.4-5.2-4.4-13.5-5.4-26.6
			c-0.8-10.9-0.4-24.8,0.5-39.5c1.8-29.6,6-62,8.2-77.5v0c15.3-0.3,39.6,6.4,72.2,37.4l0.1-10.4c0,0-15.9-26.4-43.4-33.5
			c-21-5.4-29-0.3-32.6,6.7h0c-1.1,2.2-1.9,4.5-2.4,6.8L670.5,1228L670.5,1228z M815.8,1292.8c-0.2-6,1.1-13.8,4.1-21.6v0
			c-14.2-4.5-22-8.7-22-8.7s0.2-53.8,7.5-72.4c7.4-18.6,46.3-28.2,58.8-41.2l-0.2-3.2l-0.4-5.4c-13.7,16.9-35.3,30.1-68.1,36.3
			c0,0-3.8,53.4-6.3,63.2c-2.4,9.8-9,38.5,2,45.8C795.3,1288.3,804.4,1290.8,815.8,1292.8L815.8,1292.8z"/>
	</g>
	<g>
		<path class="st3" d="M864.1,1145.7l300.2,55.9l20.7-2.2c0.9-2.3,1.9-4.6,2.9-6.8l-319-59.3c-1.6,2.4-3.3,4.8-5.2,7.1L864.1,1145.7
			L864.1,1145.7z M1594.5,1206.7c0,0-11.9,43.9-58,47.7c0.2,0.3,0.4,0.6,0.6,1c1.9,2.4,3.3,5.3,4.8,8l-5.6,6.7
			c55.5,3.3,69.3-47.8,69.3-47.8l174.9-596.7c0,0,13.3-37,5.5-64.1c-2.2-7.6-6.6-13.2-11.8-17.4c0.2,0.6,0.4,1.2,0.6,1.8
			c7.8,27.1-5.5,64.1-5.5,64.1L1594.5,1206.7L1594.5,1206.7z M1441.5,1239.7l5.4,5c2.3-1,4.7-1.9,7.2-2.7L1441.5,1239.7
			L1441.5,1239.7z M1426.8,1237l-27.7-5.2l1.6,2.7c-0.1,3.7-0.3,7.3-0.8,10.9l18.4,3.4l-1.4-3.5
			C1419.9,1242.3,1423.2,1239.5,1426.8,1237L1426.8,1237z M1236.5,1201.6c-3.4,3.6-6.2,7.5-8.6,11.8l103.5,19.2
			c0.3-2.5,0.4-5.1,0.3-7.7c-0.1-2-0.2-3.9-0.5-5.8L1236.5,1201.6L1236.5,1201.6z"/>
	</g>
	<g>
		<path class="st6" d="M695.1,1013.2c-25.4,23.3-34,93-34,93s4.7,5.9,1,21.6c-0.6,2.7-1.6,4.8-2.8,6.5c4,12.4,19.2,26,19.2,26
			c0.5-2.1,1.2-4.3,2.2-6.3C658.9,1091.2,695.1,1013.2,695.1,1013.2L695.1,1013.2z"/>
	</g>
	<g>
		<path class="st3" d="M790.9,938.4c-40.2,6.3-73.8,6.6-101.9,2.4l2.9,9.1c0,0,41.7,12.9,85.7,4.9c44-8,40.7-15.3,40.6-16.9
			c0-0.9-4-2.3-7.5-3.3C804.5,936,797.9,937.3,790.9,938.4L790.9,938.4z"/>
	</g>
	<g>
		<path class="st6" d="M593.1,1125c-5.8-3.5-7.5-14.3-8-21.4c-2.1,3.3-3.8,7.5-4.2,12.5c-1.1,13.3,3.1,16.7,11.8,18.2
			C592.7,1134.4,592.1,1130,593.1,1125L593.1,1125z"/>
	</g>
	<g>
		<path class="st6" d="M620.7,1134c-1.7,6.1-2.2,12.3-2.2,12.3s9.5,7.4,16.8,2.8c3.5-2.2,6.4-5.7,8.3-10.1c1.1-2.4,1.8-5.1,2.2-7.9
			c-4.1,7-10.1,12.2-16.1,12.3C622,1143.5,620.7,1134,620.7,1134L620.7,1134z"/>
	</g>
	<g>
		<path class="st6" d="M592.7,1134.4c0,0,6,19.5,25.8,11.9c0,0,0.4-6.2,2.2-12.3c0,0-4.4,6-16.2,3.4c-11.8-2.6-6.8-21.1-6.8-21.1
			c-2.6,2.5-3.9,5.7-4.6,8.8C592.1,1130,592.7,1134.4,592.7,1134.4L592.7,1134.4z"/>
	</g>
	<g>
		<path class="st6" d="M663.2,1121.4c-7,9.1-17.1,7.8-17.1,7.8c-0.1,0.6-0.1,1.2-0.2,1.8c-0.4,2.9-1.2,5.5-2.2,7.9
			c0,0,10.1,3.1,15.6-4.7c1.2-1.6,2.1-3.7,2.8-6.5C662.7,1125.5,663,1123.4,663.2,1121.4L663.2,1121.4z"/>
	</g>
	<g>
		<path class="st7" d="M728.9,945.2c-87,0-127.3-35.6-145.9-68.9c-0.4-0.8-0.2-1.8,0.6-2.2s1.8-0.2,2.2,0.6
			c22.1,39.5,75.6,82.4,204.9,62.1c71.2-11.2,152.8-51.2,136.6-178.3C923,724,891.5,653.3,803.6,633.3
			C716.7,613.4,602,655,576.3,746.4c-3.5,12.3-5.8,24.8-7,37.3c-0.1,0.9-0.9,1.5-1.7,1.4c-0.9-0.1-1.5-0.9-1.4-1.7
			c1.2-12.6,3.6-25.3,7.1-37.8c12.4-44.1,45.6-80,93.5-101.2c42.7-18.8,94.1-24.2,137.7-14.2c89.6,20.5,121.8,92.6,126.2,127.9
			c1.8,14,7.2,56.6-9.8,96.3c-19.9,46.4-63.5,75.2-129.5,85.6C768.1,943.6,747.4,945.2,728.9,945.2z"/>
	</g>
	<g>
		<path class="st7" d="M586.5,877.2c-18.7,0-35.4-21.7-37.4-48.7c-1.2-16.3,3.3-31.8,11.9-41.3c5.4-5.9,12-9.2,19.1-9.4l0,0
			c18.9-0.5,36,21.3,38,48.7c1.2,16.3-3.3,31.8-11.9,41.3c-5.4,5.9-12,9.2-19.1,9.4C587,877.2,586.7,877.2,586.5,877.2z M580.2,781
			c-6.2,0.2-12,3-16.8,8.3c-8.1,8.9-12.2,23.5-11.1,38.9c1.8,25.4,17.1,45.7,34.1,45.7c0.2,0,0.4,0,0.6,0c6.2-0.2,12-3,16.8-8.3
			c8.1-8.9,12.2-23.5,11.1-38.9C613.1,801,597.6,780.5,580.2,781L580.2,781z M580.2,779.4L580.2,779.4L580.2,779.4z"/>
	</g>
	<g>
		<path class="st7" d="M1271.4,1356.9c-7.9,0-15.7-0.7-23.4-2.2c-0.4-0.1-0.8-0.4-1.1-0.7l-7.7-12.7c-0.1-0.2-0.2-0.3-0.2-0.5
			c0,0,0,0,0,0c0,0,0,0,0,0c0,0,0,0,0,0c0,0,0,0,0,0c0-0.1,0-0.2,0-0.3l-0.8-20.1c-4.9-2.2-9.6-4.8-14-7.7l-27.9,16.9
			c-0.6,0.4-1.3,0.3-1.9-0.1c-1.2-1-2.6-2.1-4.1-3.4c-9.3-7.4-23.3-18.6-26.3-33.7c-0.1-0.5,0-1,0.3-1.3l0.9-1c0,0,0,0,0,0
			l20.7-25.1c-2-4.1-3.6-8.4-4.8-12.7l-23.6-4.4c-0.5-0.1-0.9-0.4-1.2-0.9c-0.7-1.5-1.9-3.1-3-4.8c-1.6-2.3-3.4-4.9-4.7-7.9
			c-0.1-0.2-0.1-0.4-0.1-0.6c0,0,0,0,0,0c0,0,0,0,0,0c0,0,0,0,0,0c0,0,0,0,0,0c0,0,0,0,0,0s0,0,0,0c0,0,0,0,0,0c0,0,0,0,0,0
			c0,0,0,0,0,0s0,0,0,0c0,0,0,0,0,0c0.1-10.5,1.6-21.1,4.5-31.3c0.2-0.6,0.7-1.1,1.4-1.1l29.4-3.2c0.5-1.4,1.1-2.8,1.8-4.1
			L869.6,1135c-0.7,1.1-1.5,2.2-2.3,3.2c-0.7,0.9-1.3,1.8-2,2.6l5.2,74.4c0,0,0,0.1,0,0.1l1.5,21.4c10.3,1.4,18.9,6,25.7,13.5
			c10.9,12.2,13.6,28.7,13.3,33l0,0.6c-0.4,7-2,10.8-29.8,13.8c-18,2-45.2,0.2-65.6-3.3c0,0-0.1,0-0.1,0c-11.6-2-20.9-4.6-25.1-7.4
			c-10.2-6.8-7.1-29.6-2.6-47.5c2.1-8.5,5.3-51,6.1-60.9c-10.8,1.9-22.6,3-35.2,3.3l-0.3,46.9c0,0,0,0.1,0,0.1l-0.2,25.7
			c13.6,6.6,23.8,18.2,28.1,32.2c2.7,9,2.4,17.5-0.9,21.5c-7.8,9.6-76.1,13.5-103,6c-0.4-0.1-0.8-0.2-1.2-0.3c0,0-0.1,0-0.1,0
			c-13.2-3.8-20.2-7.9-21.3-12.4c-0.4-1.7,0.2-3.1,0.8-3.9l16.3-136.7c-2.8-2.5-13.6-13-18.1-23.5c-0.8,0.7-1.6,1.3-2.5,1.8
			c-4.4,2.6-9.4,2.1-11.7,1.6c-2,4-4.8,7.4-8.4,9.6c-7,4.4-15.4-0.6-17.9-2.3c-6,2.2-11.5,2.1-16.2-0.2c-6.5-3.2-9.6-9.7-10.6-12.1
			c-8.6-1.7-13.4-5.7-12.3-19.8c1-12.1,9.2-19.5,11.7-21.4c0.5-12.1,6.7-26.3,7.4-27.8c19.8-70.7,54.1-92.9,57.5-94.9
			c14.4-15.4,28.7-24.9,32.8-27.4l-1.1-3.3c-0.2-0.5-0.1-1.1,0.3-1.5s0.9-0.6,1.5-0.5c29.1,4.4,63.2,3.6,101.4-2.4
			c6.8-1.1,13.5-2.4,19.8-3.8c0.3-0.1,0.6-0.1,0.8,0c5.3,1.6,7.4,2.6,8.2,3.6c0.9,0.4,2.7,1.4,5.3,2.9l2.9-10.4
			c0.2-0.9,1.1-1.4,2-1.1c0.9,0.2,1.4,1.1,1.1,2l-3.1,11.4c2.7,1.8,5.9,4,9.3,6.8c1.6,0,6.6,0.4,14.1,2.8l9.8-36
			c0.2-0.9,1.1-1.4,2-1.1c0.9,0.2,1.4,1.1,1.1,2l-9.9,36.3c7.6,2.8,17.3,7.7,28.4,16.2c24.3,18.5,51.8,49.2,67.2,74.9
			c3.3,0.6,16.2,3.1,20.2,10.3c3.2,5.7,2.6,12.7,0.5,16.7c-0.6,1.2-1.4,2.1-2.3,2.6c1.2,3.9,3.6,14.3-4.2,19.8
			c-12.1,8.5-22.5,8.5-31.1-0.2c0.1,1,0.3,1.9,0.5,2.8c0.9,3.6-0.7,7.7-4,10c-1.9,1.3-7.1,3.8-14.4-1.4c-4.9-3.5-9.1-10.2-13.5-17.3
			c-2-3.1-3.9-6.3-6-9.2c0,0,0-0.1-0.1-0.1c-2.7-3.8-5.6-7.2-8.7-9.3c0.3,12-0.6,24.1-3.4,35.7l306.3,56.9l-4.4-10.6
			c-0.3-0.6-0.1-1.3,0.3-1.8c8.1-8.1,17.3-15.1,27.3-20.9c0.6-0.4,1.4-0.3,1.9,0.2l20.2,18.8c8-3.4,16.5-5.8,25.2-7l8.9-28.6
			c0.2-0.6,0.8-1.1,1.4-1.1c11.9-0.8,23.7,0,35,2.4c3.9,0.7,8.2,10.7,9,13.9c0,0.1,0,0.2,0,0.3l0.5,20.8c5,2.3,9.7,5,14.2,8.1
			l29.4-15.1c0.6-0.3,1.3-0.2,1.8,0.3c7.6,7.1,14.1,15.2,19.3,24c2.2,2.8,3.9,6,5.6,9c0.7,1.3,1.4,2.5,2.1,3.8
			c0.3,0.6,0.3,1.3-0.1,1.8l-13.1,15.9l136.2,25.3c10.8,2.2,46.9,6.6,56-26.9L1739.8,602c6-17.7,6.3-31.1,0.9-41.1
			c-4.5-8.3-13.2-14.2-25.8-17.5l-3.3-0.5c-0.9-0.1-1.5-0.9-1.4-1.8c0.1-0.9,0.9-1.5,1.8-1.4l3.4,0.5c0.1,0,0.1,0,0.2,0
			c13.5,3.5,22.9,9.9,27.9,19.1c5.8,10.8,5.6,25.1-0.7,43.6l-173.4,591.2c-6.6,24.4-28.9,35.3-59.7,29.2l-138-25.6l-3.4,4.2
			c0.5,2.1,0.8,4.2,1.1,6.2c0.3,1.9,0.6,3.7,1,5.4l22.9,6.8c0.2,0.1,0.4,0.2,0.6,0.3c0,0,0,0,0,0c0,0,0,0,0,0
			c0.1,0.1,0.2,0.2,0.3,0.4l5.7,9.4l27,5c0.9,0.2,1.4,1,1.3,1.9c-0.2,0.9-1,1.4-1.9,1.3l-24.3-4.5c0,0.2,0.1,0.3,0.1,0.5
			c-0.2,11-2.1,21.9-5.5,32.6c-0.1,0.4-0.3,0.7-0.7,0.9l0,0c0,0,0,0,0,0c0,0,0,0,0,0c0,0,0,0,0,0c0,0,0,0,0,0c0,0,0,0,0,0
			c0,0,0,0,0,0h0c-0.2,0.1-0.5,0.2-0.8,0.2l-27.2,1c-3.2,8-7.5,15.5-13,22.4l12.2,22.7c0.3,0.6,0.2,1.4-0.3,1.9
			c-8.6,8.9-18.4,16.5-29.2,22.7c0,0,0,0,0,0c0,0,0,0,0,0c0,0,0,0,0,0c0,0,0,0,0,0c-0.4,0.2-0.8,0.2-1.2,0.1h0c0,0,0,0,0,0l0,0
			c0,0,0,0,0,0c0,0,0,0,0,0c-0.2-0.1-0.5-0.2-0.7-0.4l-19.3-17.9c-8.1,3.4-16.7,5.8-25.5,7l-9.1,27.7c-0.1,0.3-0.2,0.5-0.4,0.7
			c0,0,0,0,0,0c0,0,0,0,0,0c-0.1,0-0.1,0.1-0.2,0.1c0,0,0,0,0,0c0,0,0,0,0,0c-0.2,0.2-0.5,0.3-0.8,0.3
			C1277.5,1356.8,1274.4,1356.9,1271.4,1356.9z M1249.3,1351.7c9.2,1.7,18.7,2.3,28.2,1.8c-1.9-2.6-4.6-6.6-5.8-9.6
			c-9.4,0.6-18.8,0.1-27.9-1.3L1249.3,1351.7z M1274.5,1342.3c0.8,2.4,3.4,6.4,5.5,9.2l8.2-25l-5.5-9.1L1274.5,1342.3z M1242.1,1339
			c8.1,1,21.5,2.1,29.5,1.7l9.1-27.6c0.1-0.3,0.3-0.6,0.6-0.8l0,0c0,0,0,0,0,0c0.1-0.1,0.2-0.1,0.3-0.2c0,0,0,0,0,0c0,0,0,0,0,0h0
			c0.2-0.1,0.3-0.1,0.5-0.1c9.2-1.1,18.1-3.6,26.6-7.3c0.6-0.3,1.3-0.1,1.7,0.3l19.2,17.9c9.8-5.8,18.7-12.7,26.7-20.8l-12.1-22.6
			c-0.1-0.2-0.2-0.5-0.2-0.8c0-0.4,0.1-0.7,0.4-1c5.8-7.1,10.3-15,13.5-23.4c0.1-0.3,0.3-0.6,0.6-0.8l0,0c0,0,0,0,0,0c0,0,0,0,0,0
			c0,0,0,0,0,0c0,0,0.1,0,0.1,0c0,0,0,0,0,0c0,0,0,0,0,0c0,0,0,0,0,0c0,0,0,0,0,0h0c0.2-0.1,0.5-0.2,0.7-0.2l27.1-1
			c1.4-5.1,2.9-14.2,3.9-22c0,0,0,0,0-0.1c0.4-2.7,0.7-5.2,0.9-7.3l-22.4-6.7c0,0,0,0,0,0l-5.3-1.6c-0.6-0.2-1-0.7-1.1-1.3
			c-1-6.6-2.8-13-5.3-19.2c0,0,0,0,0,0c-0.4-0.9-0.8-1.8-1.2-2.7c-0.3-0.6-0.2-1.3,0.2-1.7l20.3-24.7c-4.8-7.9-10.6-15.2-17.4-21.7
			l-29.3,15c-0.5,0.3-1.2,0.2-1.7-0.1c-4.8-3.4-9.9-6.3-15.3-8.7c0,0,0,0-0.1,0c-2.4-1.1-4.9-2-7.3-2.9c-0.6-0.2-1.1-0.8-1.1-1.5
			l-0.8-30.3c-10.3-2.1-21.1-2.8-31.9-2.1l-8.9,28.5c-0.2,0.6-0.7,1-1.3,1.1c-9.1,1.2-18,3.7-26.3,7.4c-0.6,0.3-1.3,0.1-1.7-0.3
			l-20.1-18.7c-9,5.4-17.4,11.7-24.9,19l11,26.2c0.2,0.5,0.1,1.2-0.2,1.6c-3.9,4.9-7.2,10.2-9.8,15.7c0,0,0,0.1-0.1,0.1
			c-1,2.2-2,4.4-2.9,6.6c-0.2,0.6-0.7,1-1.3,1l-29.3,3.2c-2.6,9.2-3.9,18.6-4.1,28.1l28.6,5.3c0.7,0.1,1.2,0.7,1.3,1.4
			c0,0,0,0.1,0,0.1c0,0,0,0,0,0.1c0,0,0,0,0,0c0,0,0,0.1,0,0.1c0,0,0,0,0,0c0.5,3.8,1.2,7.5,2.2,11.2c0,0,0,0,0,0
			c1.3,4.8,3.1,9.5,5.3,14c0.3,0.6,0.2,1.2-0.2,1.7l-20.6,25c5.4,8.3,11.9,15.8,19.5,22.4l27.8-16.8c0.5-0.3,1.2-0.3,1.7,0
			c6.9,4.7,14.4,8.5,22.5,11.1c0.6,0.2,1.1,0.8,1.1,1.5L1242.1,1339z M1331.6,1325.5l6,10c9.6-5.7,18.5-12.6,26.3-20.6l-5.5-10.3
			C1350.4,1312.6,1341.4,1319.6,1331.6,1325.5z M1317,1317.3c0.4,0,0.8,0.1,1.1,0.4l11.6,10.8l-1.6-2.6l-19.1-17.8
			c-7.7,3.2-15.8,5.5-24.1,6.8l5.9,9.7c8.8-1.2,17.4-3.6,25.6-7.1C1316.6,1317.4,1316.8,1317.3,1317,1317.3z M1169.1,1298.1
			c4.8,10.9,15.6,19.5,23.1,25.5c1.2,0.9,2.3,1.8,3.3,2.7l27.8-16.8c0.5-0.3,1.2-0.3,1.7,0c4.1,2.8,8.4,5.3,12.9,7.4l-0.2-6.2
			c-7.6-2.6-14.8-6.2-21.3-10.6l-27.9,16.9c-0.2,0.2-0.5,0.2-0.8,0.2c-0.2,0-0.4,0-0.6-0.1c0,0,0,0,0,0c0,0,0,0,0,0c0,0,0,0,0,0
			c0,0,0,0,0,0c0,0,0,0,0,0c0,0,0,0,0,0c0,0,0,0,0,0c0,0,0,0,0,0c0,0,0,0,0,0c0,0,0,0,0,0l0,0c0,0,0,0,0,0
			C1182.7,1314.7,1174.4,1305.3,1169.1,1298.1z M683,1311.1c0.1,0,0.2,0,0.2,0.1c12.4,3.5,34.7,4.8,58,3.4
			c25.3-1.5,39.3-5.4,41.7-8.3c2.1-2.6,3.1-9.5,0.3-18.6c-4.8-15.8-17.6-28.2-34.3-33.4c-15.9-4.9-34.4-0.5-48.2,11.6
			C687.2,1277.7,680.6,1294.5,683,1311.1z M671.8,1230.5l-8.1,68c0,0.4-0.2,0.7-0.5,1c-0.1,0.1-0.5,0.6-0.3,1.4
			c0.4,1.4,2.8,5,16.7,9.3c-1.9-17.2,5-34.5,18.9-46.6c14.6-12.8,34.3-17.5,51.3-12.2c1.8,0.5,3.5,1.2,5.1,1.8l0.1-21.8
			C715.2,1248.8,680.5,1234.7,671.8,1230.5z M817.4,1291.4c19.4,3.3,45.3,5.1,63.4,3.1c26.5-2.9,26.7-6,27-10.8l0-0.6
			c0.2-3.4-2.2-19.1-12.5-30.6c-6.5-7.2-14.9-11.5-25-12.6c0,0,0,0-0.1,0c-1.2-0.1-2.5-0.2-3.7-0.3c-12.8-0.5-23.7,3.7-32.5,12.4
			C822.6,1263.4,817.5,1280.1,817.4,1291.4z M793.7,1218.3c-1,9.8-2,18.4-2.8,21.9c-5.9,23.9-5.5,39.6,1.3,44.1
			c3.5,2.3,11.7,4.6,22.1,6.5c0.2-12,5.7-29.3,17.6-41.1c9.4-9.4,21.1-13.9,34.8-13.4c0.7,0,1.4,0.1,2.1,0.1l-1.3-18.6
			C826.8,1235.6,801.3,1223.1,793.7,1218.3z M1347.4,1278.9l5.5,10.3c5.1-6.6,9.3-13.8,12.2-21.4l-5.6-9.3
			C1356.5,1265.8,1352.4,1272.6,1347.4,1278.9z M1362.1,1256.4l5.8,9.6l24.6-0.9l-5.8-9.6L1362.1,1256.4z M1389.3,1253.7l5.5,9
			c2.6-9.1,4-18.4,4.3-27.8l-4.7-7.8c-0.1,1.2-0.2,2.4-0.3,3.6c0,0,0,0.1,0,0.1C1393.2,1238.5,1391.7,1246.2,1389.3,1253.7z
			 M1158.8,1244.8l21.3,4c-0.7-2.7-1.2-5.5-1.6-8.3l-25.7-4.8c0.9,1.6,2,3.1,3,4.5C1157,1241.8,1158,1243.3,1158.8,1244.8z
			 M672.2,1227.1c6.1,3.1,41.7,19.5,82.9,0.7l0.3-47c-2-3.2-17.4-26-42.2-32.4c-11.7-3-20.3-2.9-25.6,0.2c-4.6,2.7-6.3,7.3-7.5,12
			L672.2,1227.1z M794.1,1214.7c4.4,3.1,30.4,18.8,73.2-0.2l-4.9-70.1c-15,16.8-36.9,28-65.3,33.6
			C796.8,1182.7,795.5,1199.5,794.1,1214.7z M1365.4,1211.9l1.6,0.5c-0.2-1.2-0.4-2.5-0.6-3.9c-0.3-2.1-0.6-4.2-1.2-6.3l-3.1-3.5
			C1363.6,1203,1364.7,1207.4,1365.4,1211.9z M1364.3,1196.2l2.4,2.7l1.6-2L1364.3,1196.2z M1360.8,1192.3l9.8,1.8l13.5-16.4
			c-0.5-0.9-1.1-1.9-1.6-2.9c-1.3-2.4-2.7-4.9-4.2-7.1l-18.9,22.9L1360.8,1192.3z M871.5,1132.1l315.4,58.7
			c2.5-5.1,5.6-9.9,9.1-14.5l-5.1-12.2l-308.6-57.4C880,1115.5,876.4,1124.1,871.5,1132.1z M698.3,1143c4.5,0,9.7,0.8,15.7,2.3
			c25.4,6.5,40.9,28.8,43.9,33.4c51-1.1,87-15.4,106.9-42.4c0.9-1.3,1.8-2.6,2.7-3.9c0,0,0.1-0.1,0.1-0.1c5.6-8.6,9.4-17.9,12-27.6
			c0-0.1,0-0.1,0-0.2c0-0.1,0.1-0.3,0.1-0.4c3.2-12.5,4.1-25.7,3.6-38.7c-0.1-0.2-0.1-0.5,0-0.7c-0.8-19-4.8-37.7-9.3-53.7
			c-13.3-46.2-45.7-66.1-54.2-70.6c-1.4,4.5-9.4,10.1-41.7,16c-43.9,8-86-4.8-86.5-5c-0.5-0.2-0.9-0.5-1.1-1l-0.8-2.6
			c-4.3,2.7-16,10.7-28.4,23.3c11.5-1.2,20.5,1.3,26.6,7.4c12.3,12.2,9,34.2,8.8,35.1c-0.1,0.4-0.2,0.7-0.5,0.9
			c-23.5,21.5-32.5,84.8-33.4,91.5c1.1,2,4.1,8.7,0.9,22.4c-0.6,2.5-1.4,4.6-2.5,6.4c3.2,9.1,12.6,18.8,16.6,22.7
			c1.4-4.3,3.6-8.7,8.3-11.4C689.2,1143.9,693.3,1143,698.3,1143z M619.8,1145.2c1.5,1.1,9.1,6,14.7,2.5c3.3-2.1,6-5.4,7.7-9.3
			c0,0,0,0,0-0.1c2-4.7,2.8-10.3,2.1-16.1c-0.1-0.9,0.5-1.7,1.4-1.8c0.9-0.1,1.7,0.5,1.8,1.4c0.7,5.6,0.1,11.1-1.7,16
			c2.1,0.3,5.7,0.5,8.8-1.4c2.9-1.7,4.8-4.7,5.8-9c2.7-11.7,0.6-17.7-0.4-19.6c-33.4,2-58.3-13.1-65.5-18c-0.3,1.9-0.5,3.8-0.5,5.7
			c0,0.5-0.3,1-0.7,1.3c-0.1,0.1-10,7.2-11,19.5c-0.9,11.3,1.9,14.5,8.5,16.1c-0.2-4.4,0.3-14.3,8.1-19.3c0.7-0.5,1.7-0.2,2.2,0.5
			c0.5,0.7,0.2,1.7-0.5,2.2c-7.9,5-6.7,16.9-6.5,18.2c0.3,1,2.9,8,9.2,11c3.7,1.8,8,1.9,12.8,0.3c-1.6-3.9-4.3-13.8,3.4-24.2
			c0.5-0.7,1.5-0.9,2.2-0.3c0.7,0.5,0.9,1.5,0.3,2.2C614.6,1133.4,618.9,1143.4,619.8,1145.2z M1307.4,1144c1.4,0.5,2.8,1.1,4.2,1.6
			l-0.5-19.1c-0.7-2.9-2.7-6.9-4.4-9.3L1307.4,1144z M595.3,1086.4c4.7,3.4,29.7,20.3,64.3,18.3c1.3-10,10.3-70,33.9-92.3
			c0.4-3.4,2.2-21.7-8-31.8c-6.1-6.1-15.6-8.1-28.1-6c-3.1,1.9-36.9,24.6-56,93.1c0,0.1-0.1,0.2-0.1,0.2
			C601.3,1068.2,597.3,1076.9,595.3,1086.4z M899.1,1077.1c1.7,2.5,3.3,5.1,4.9,7.7c4.3,6.8,8.3,13.3,12.6,16.3
			c4,2.8,7.9,3.3,10.8,1.4c2.2-1.5,3.3-4.3,2.7-6.5c-1.6-6-0.5-15.8-0.4-16.2c0.1-0.9,0.9-1.5,1.8-1.4c0.9,0.1,1.5,0.9,1.4,1.8
			c0,0.1-0.4,3.3-0.4,7.1c8.1,10.4,17.5,11.2,29.5,2.7c6.3-4.4,3.8-13.8,2.9-16.6c-11-1.6-17.1-8.4-17.4-8.6
			c-0.6-0.7-0.5-1.7,0.1-2.3c0.7-0.6,1.7-0.5,2.3,0.1l0,0c0.1,0.1,5.9,6.4,16.2,7.7c0.4-0.1,0.9-0.6,1.5-1.6
			c1.7-3.1,2.1-8.9-0.5-13.6c-3.1-5.6-14.5-8.2-18.6-8.8c-0.5-0.1-0.9-0.4-1.2-0.8c-1.7-2.8-3.5-5.7-5.4-8.6
			C931.7,1062.9,906.4,1074.3,899.1,1077.1z M886.4,1064c4,2.1,7.5,5.9,10.8,10.4c5.8-2.1,32.9-13.3,42.5-40.9
			c-15.7-22.7-38.6-47.1-59.1-62.7c-18-13.7-32.3-17.7-39.3-18.9c12.7,11.5,27.7,30.1,35.8,58.3
			C881.6,1026.1,885.5,1044.9,886.4,1064z M693.3,948.5c5.9,1.7,44.3,11.9,84.1,4.6c35.6-6.5,39.5-12.4,39.3-14.7
			c-0.5-0.3-1.9-1-6-2.2c-6.3,1.4-12.9,2.7-19.6,3.8l-0.2-1.6l0.2,1.6c-37.4,5.9-70.9,6.8-99.8,2.7l0.7,2.1c0,0,0,0,0,0L693.3,948.5
			z M1272.8,1284.6c-19.4,0-36.7-8.8-47.9-22.5c-0.1-0.1-0.1-0.1-0.2-0.2c-7.8-9.7-12.1-21.2-12.5-33.5c0,0,0,0,0,0c0,0,0,0,0-0.1
			c0,0,0,0,0,0c0,0,0-0.1,0-0.1c0-0.6,0-1.1,0-1.7c0-14.4,5.5-28.1,15.6-38.8c11.2-11.9,26.6-18.6,43.3-19.1
			c20-0.5,38,8.3,49.5,22.3c3.3,4,6.1,8.5,8.2,13.4c0,0.1,0,0.1,0.1,0.2c2,4.5,3.3,9.4,4,14.4c0,0.1,0,0.1,0,0.2
			c0.3,1.9,0.4,3.9,0.5,5.9c0.5,15-5.1,29.4-15.6,40.5c-11.2,11.9-26.6,18.6-43.3,19.1C1273.9,1284.5,1273.3,1284.6,1272.8,1284.6z
			 M1227.3,1260c10.9,13.4,28.1,21.9,47.1,21.3c15.8-0.4,30.4-6.8,41-18.1c9.9-10.5,15.1-24.1,14.7-38.2c0-1.5-0.2-3-0.3-4.5
			l-92.7-17.2c-9.5,10.4-14.5,23.7-14.1,37.5C1223.3,1247.5,1224.7,1253.9,1227.3,1260z M1215.4,1228.3c0.3,7.8,2.2,15.1,5.5,21.7
			c-0.6-3-0.9-6-1-9.1c-0.4-14.9,5.1-29.3,15.5-40.4c0,0,0,0,0.1-0.1c0,0,0,0,0,0c11.2-11.9,26.6-18.6,43.3-19.1l0,1.6l0-1.6
			c15.1-0.4,29.7,4.6,41,13.9c-0.5-0.7-1.1-1.4-1.7-2.1c-11.1-13.5-28.4-21.7-46.9-21.2c0,0-0.1,0-0.1,0l0,0l0,0
			c-13.6,0.4-26.2,5.1-36.2,13.5c-1.7,1.4-3.3,2.9-4.8,4.6c-9.5,10.1-14.7,23.1-14.7,36.6c0,0.5,0,1,0,1.6c0,0,0,0.1,0,0.1
			C1215.4,1228.2,1215.4,1228.2,1215.4,1228.3C1215.4,1228.2,1215.4,1228.3,1215.4,1228.3
			C1215.4,1228.3,1215.4,1228.3,1215.4,1228.3z M1239.8,1200.6l89.5,16.6c-0.7-4-1.9-7.8-3.5-11.4c-11.2-13.8-28.8-21.7-47.1-21.3
			C1263.9,1185,1250.2,1190.6,1239.8,1200.6z M1536.5,1256c-0.8,0-1.5-0.6-1.6-1.5c-0.1-0.9,0.6-1.7,1.5-1.7
			c44.3-3.6,56.4-46.1,56.5-46.5l175-596.7c0.2-0.5,13.1-37,5.5-63.2c-7.4-25.7-42.3-28.1-42.7-28.1c0,0-0.1,0-0.1,0l-11.8-1.8
			c-0.9-0.1-1.5-1-1.3-1.8c0.1-0.9,1-1.5,1.8-1.3l11.7,1.8c2.4,0.2,37.6,2.9,45.5,30.4c7.9,27.3-5,63.6-5.5,65.1L1596,1207.2
			c-0.1,0.4-12.8,45-59.4,48.8C1536.6,1256,1536.5,1256,1536.5,1256z M1454.1,1243.7c-0.1,0-0.2,0-0.3,0l-12.6-2.3
			c-0.9-0.2-1.4-1-1.3-1.9c0.2-0.9,1-1.4,1.9-1.3l12.6,2.3c0.9,0.2,1.4,1,1.3,1.9C1455.5,1243.1,1454.9,1243.7,1454.1,1243.7z
			 M596.2,877.6c-3.6,0-7.6-0.2-12-0.5c-0.9-0.1-1.5-0.8-1.5-1.7c0.1-0.9,0.8-1.5,1.7-1.5c19.4,1.5,30.1-0.3,37-6.2
			c6.3-5.5,9.8-15,10.9-29.9c1.4-19.8-2.1-38.4-9.6-50.9c-4.7-7.8-18.1-24.7-41.1-12.3c-7.3,3.9-10.5,8.5-10.5,8.5
			c-0.5,0.7-1.5,0.9-2.2,0.4c-0.7-0.5-0.9-1.5-0.4-2.2c0.1-0.2,3.6-5.2,11.7-9.5c17.6-9.5,34.6-4.5,45.3,13.5
			c7.9,13.1,11.5,32.3,10.1,52.8c-1.1,15.9-4.9,26.1-12,32.2C617.7,875.2,609.3,877.6,596.2,877.6z M916.3,719.9
			c-0.1,0-0.3,0-0.4-0.1c-0.9-0.2-1.4-1.1-1.1-2l64.9-237.5c8.7-30,29.5-44.8,57.1-40.7l144,21.3c0.9,0.1,1.5,0.9,1.4,1.8
			c-0.1,0.9-0.9,1.5-1.8,1.4l-144-21.3c-25.8-3.9-45.3,10.1-53.5,38.4l-64.9,237.5C917.6,719.4,917,719.9,916.3,719.9z M895.7,688.2
			c-0.1,0-0.3,0-0.4-0.1c-0.9-0.2-1.4-1.1-1.1-2l58.5-213.6c0.3-1.8,0.7-3.7,1.3-5.7l-10.2-9.5c-8.1,3.4-16.7,5.8-25.5,7l-9.1,27.7
			c-0.1,0.3-0.3,0.6-0.5,0.8c0,0,0,0,0,0c0,0,0,0,0,0c0,0,0,0,0,0c0,0,0,0,0,0c0,0,0,0,0,0c0,0,0,0,0,0c0,0,0,0,0,0c0,0,0,0,0,0
			c0,0,0,0,0,0c0,0,0,0,0,0c0,0,0,0,0,0c0,0,0,0,0,0c0,0,0,0,0,0c-0.3,0.2-0.6,0.3-0.9,0.3c-11.1,0.8-22,0.2-32.7-1.8
			c-0.4-0.1-0.8-0.4-1.1-0.7l-7.7-12.7c-0.1-0.2-0.2-0.5-0.2-0.8l-0.8-20.1c-4.9-2.2-9.6-4.8-14-7.7l-27.9,16.9
			c-0.6,0.4-1.3,0.3-1.9-0.1c-1.2-1-2.6-2.1-4.1-3.4c-9.3-7.4-23.3-18.6-26.3-33.7c-0.1-0.5,0-1,0.3-1.3l0.9-1c0,0,0,0,0,0
			l20.7-25.1c-2-4.1-3.6-8.4-4.8-12.7l-23.6-4.4c-0.5-0.1-0.9-0.4-1.2-0.9c-0.7-1.5-1.9-3.1-3-4.8c-1.6-2.3-3.4-4.9-4.7-7.9
			c-0.1-0.1-0.1-0.3-0.1-0.4c0,0,0,0,0,0c0,0,0,0,0,0c0,0,0,0,0,0c0,0,0,0,0,0c0-0.1,0-0.1,0-0.2c0.1-10.5,1.6-21.1,4.5-31.3
			c0.2-0.6,0.7-1.1,1.4-1.1l29.4-3.2c3-7.7,7.1-14.9,12.3-21.6l-11-26.3c-0.3-0.6-0.1-1.3,0.3-1.8c8.1-8.1,17.3-15.1,27.3-20.9
			c0.6-0.4,1.4-0.3,1.9,0.2l20.2,18.8c8-3.4,16.5-5.8,25.2-7l8.9-28.6c0.2-0.6,0.8-1.1,1.4-1.1c11.9-0.8,23.7,0,35,2.4
			c3.9,0.7,8.2,10.7,9,13.9c0,0.1,0,0.2,0,0.3l0.5,20.8c5,2.3,9.7,5,14.2,8.1l29.4-15.1c0.6-0.3,1.3-0.2,1.8,0.3
			c7.6,7.1,14.1,15.2,19.3,24c2.2,2.8,3.9,6,5.6,9c0.7,1.3,1.4,2.5,2.1,3.8c0.3,0.6,0.3,1.3-0.1,1.8l-18.9,22.9
			c0.5,2.1,0.8,4.2,1.1,6.2c0.3,1.9,0.6,3.7,1,5.4l22.9,6.8c0,0,0.1,0,0.1,0c0,0,0,0,0,0s0,0,0,0c0,0,0,0,0,0
			c0.2,0.1,0.3,0.1,0.4,0.2c0,0,0,0,0,0c0,0,0,0,0,0c0.1,0.1,0.2,0.2,0.3,0.4c0,0,0,0,0,0c0,0,0,0,0,0c0,0,0,0,0,0s0,0,0,0
			c0,0,0,0,0,0c0,0,0,0,0,0c0,0,0,0,0,0l7.7,12.7c0.2,0.3,0.2,0.6,0.2,0.9c-0.2,11-2.1,21.9-5.5,32.6c-0.1,0.3-0.3,0.6-0.6,0.9
			c0,0,0,0,0,0c0,0-0.1,0.1-0.1,0.1c0,0,0,0,0,0c0,0,0,0,0,0c0,0,0,0,0,0c0,0,0,0,0,0l0,0c-0.2,0.1-0.5,0.2-0.7,0.2l-27.2,1
			c-1.8,4.7-4.1,9.2-6.7,13.5c14.3-8.9,31.2-12.1,49.7-9.3l161.8,24.5c0.9,0.1,1.5,1,1.3,1.8c-0.1,0.9-1,1.5-1.8,1.3l-161.8-24.5
			c-21.1-3.3-39.4,1.4-54.5,13.9c-0.3,0.4-0.6,0.8-0.9,1.2l12.2,22.7c0.3,0.6,0.2,1.4-0.3,1.9c-8.6,8.9-18.4,16.5-29.2,22.7
			c-0.6,0.4-1.4,0.3-1.9-0.2l-6.4-6c-0.3,1.3-0.6,2.6-0.8,3.8c0,0.1,0,0.1,0,0.2l-58.5,213.6C897,687.8,896.4,688.2,895.7,688.2z
			 M876.3,488.4c9.2,1.7,18.7,2.3,28.2,1.8c-1.9-2.6-4.6-6.6-5.8-9.6c-9.4,0.6-18.8,0.1-27.9-1.3L876.3,488.4z M901.5,479
			c0.8,2.4,3.4,6.4,5.5,9.2l8.2-25l-5.5-9.1L901.5,479z M869.1,475.7c8.1,1,21.5,2.1,29.5,1.7l9.1-27.6c0,0,0,0,0-0.1c0,0,0,0,0,0
			c0,0,0,0,0,0s0,0,0,0c0,0,0,0,0,0c0.1-0.3,0.3-0.5,0.6-0.7l0,0c0,0,0,0,0,0c0.1,0,0.1-0.1,0.2-0.1c0,0,0,0,0,0
			c0.2-0.1,0.4-0.1,0.5-0.2c9.2-1.1,18.1-3.6,26.6-7.3c0.6-0.3,1.3-0.1,1.7,0.3l19.2,17.9c9.8-5.8,18.7-12.7,26.7-20.8L978,429
			c0,0,0-0.1,0-0.1l-6.8-12.7c-0.1-0.2-0.2-0.5-0.2-0.8c0-0.4,0.1-0.7,0.4-1c5.8-7.1,10.3-15,13.5-23.4c0.1-0.3,0.4-0.6,0.7-0.8
			c0.3-0.2,0.5-0.2,0.8-0.2l27.1-1c1.9-6.8,3.9-20.9,4.8-29.4l-27.7-8.3c-0.6-0.2-1-0.7-1.1-1.3c-1.1-7.6-3.3-14.9-6.5-21.9
			c-0.1-0.2-0.2-0.4-0.2-0.7c0,0,0,0,0,0c0,0,0,0,0,0c0,0,0,0,0,0c0,0,0,0,0,0c0,0,0,0,0,0c0,0,0,0,0,0s0,0,0,0c0,0,0,0,0,0
			c0,0,0,0,0,0c0,0,0-0.1,0-0.1c0,0,0,0,0,0c0,0,0,0,0,0c0,0,0,0,0,0c0,0,0,0,0,0c0,0,0,0,0,0c0,0,0,0,0,0c0,0,0,0,0,0c0,0,0,0,0,0
			c0-0.3,0.2-0.6,0.4-0.8l20.3-24.7c-4.8-7.9-10.6-15.2-17.4-21.7l-29.3,15c-0.5,0.3-1.2,0.2-1.7-0.1c-4.8-3.4-9.9-6.3-15.3-8.7
			c0,0,0,0,0,0c-2.4-1.1-4.9-2-7.3-2.9c-0.1,0-0.3-0.1-0.4-0.2c-0.3-0.2-0.5-0.5-0.6-0.8c0,0,0,0,0,0c0,0,0,0,0,0c0,0,0,0,0,0
			c0,0,0,0,0,0c0-0.1,0-0.2-0.1-0.2c0,0,0,0,0,0c0,0,0,0,0-0.1c0,0,0,0,0,0c0,0,0,0,0,0c0,0,0,0,0-0.1l-0.8-30.3
			c-10.3-2.1-21-2.8-31.9-2.1l-8.9,28.5c-0.2,0.6-0.7,1-1.3,1.1c-9.1,1.2-18,3.7-26.3,7.4c-0.6,0.3-1.3,0.1-1.7-0.3l-20.1-18.7
			c-9,5.3-17.4,11.7-24.9,19l11,26.2c0.2,0.5,0.1,1.1-0.2,1.6c-5.4,6.9-9.7,14.5-12.7,22.5c-0.2,0.6-0.7,1-1.3,1l-29.3,3.2
			c-2.6,9.2-3.9,18.6-4.1,28.1l28.6,5.3c0,0,0,0,0,0c0.7,0.1,1.2,0.7,1.3,1.4c0,0,0,0.1,0,0.1c0,0,0,0,0,0c0,0,0,0,0,0.1
			c0,0,0,0,0,0c0,0,0,0,0,0.1c0,0,0,0,0,0c0,0,0,0,0,0c0,0,0,0,0,0.1c0,0,0,0,0,0c0.5,3.7,1.2,7.4,2.2,11c0,0,0,0,0,0
			c1.3,4.8,3.1,9.5,5.3,14c0.3,0.6,0.2,1.2-0.2,1.7l-20.6,25c5.4,8.3,11.9,15.8,19.5,22.4l27.8-16.8c0.5-0.3,1.2-0.3,1.7,0
			c6.9,4.7,14.4,8.5,22.5,11.1c0,0,0,0,0,0c0.6,0.2,1,0.8,1.1,1.4c0,0,0,0,0,0c0,0,0,0,0,0c0,0,0,0,0,0L869.1,475.7z M958.6,462.1
			l6,10c9.6-5.7,18.5-12.6,26.3-20.6l-5.5-10.3C977.4,449.2,968.4,456.3,958.6,462.1z M944,454c0.4,0,0.8,0.1,1.1,0.4l11.6,10.8
			l-1.6-2.6L936,444.8c-7.7,3.2-15.8,5.5-24.1,6.8l5.9,9.7c8.8-1.2,17.4-3.6,25.6-7.1C943.6,454,943.8,454,944,454z M796.1,434.8
			c4.8,10.9,15.6,19.5,23.1,25.5c1.2,0.9,2.3,1.8,3.3,2.7l27.8-16.8c0.5-0.3,1.2-0.3,1.7,0c4.1,2.8,8.4,5.3,12.9,7.4l-0.2-6.2
			c-7.6-2.6-14.8-6.2-21.3-10.6l-27.9,16.9c-0.1,0-0.1,0.1-0.2,0.1c0,0,0,0,0,0c0,0,0,0,0,0c0,0,0,0,0,0c0,0,0,0,0,0c0,0,0,0,0,0
			c0,0,0,0,0,0c0,0,0,0,0,0c0,0,0,0,0,0c0,0,0,0,0,0c0,0,0,0,0,0c0,0,0,0,0,0c-0.1,0-0.1,0-0.2,0.1c0,0,0,0,0,0c0,0,0,0,0,0
			c0,0,0,0,0,0c0,0,0,0,0,0c0,0,0,0,0,0c0,0,0,0,0,0c-0.2,0-0.4,0-0.6,0c0,0,0,0,0,0c0,0,0,0,0,0c-0.1,0-0.2-0.1-0.4-0.1
			C809.6,451.4,801.4,441.9,796.1,434.8z M974.4,415.6l5.4,10.1c0.3-0.2,0.6-0.5,0.9-0.7c4.8-6.3,8.7-13.2,11.5-20.5l-5.6-9.3
			C983.5,402.4,979.4,409.3,974.4,415.6z M989.1,393.1l5.8,9.6l24.6-0.9l-5.8-9.6L989.1,393.1z M1016.3,390.3l5.5,9
			c2.6-9.1,4-18.4,4.3-27.8l-4.7-7.8C1020.7,372.7,1019,381.7,1016.3,390.3z M785.8,381.4l21.3,4c-0.7-2.7-1.2-5.5-1.6-8.3
			l-25.7-4.8c0.9,1.6,2,3.1,3,4.6C784,378.4,785,379.9,785.8,381.4z M992.4,348.5l1.6,0.5c-0.2-1.2-0.4-2.5-0.6-3.9
			c-0.3-2.1-0.6-4.2-1.2-6.3l-3.1-3.5C990.6,339.7,991.7,344.1,992.4,348.5z M986.4,327.4l7.2,8.2l17.5-21.2
			c-0.5-0.9-1.1-1.9-1.6-2.9c-1.3-2.4-2.7-4.9-4.2-7.1L986.4,327.4z M935,280.8c1.2,0.4,2.4,0.9,3.6,1.4l-0.5-19.1
			c-0.7-2.9-2.7-6.9-4.4-9.3l0.7,26.8C934.6,280.7,934.8,280.7,935,280.8C935,280.8,935,280.8,935,280.8
			C935,280.8,935,280.8,935,280.8z M736.9,653.3c-2.4,0-4.6-0.7-5.9-1.7c-0.6-0.2-1.1-0.8-1-1.5l0-0.2c0.1-3,0.1-6.4-0.1-10.1
			c-0.6-14.8-7.8-40.3-11.3-51.7c-10.4-1.3-18.6-10.1-18.9-20.8c-0.2-5.8,1.9-11.3,5.9-15.4c3.9-4.2,9.3-6.6,15-6.7
			c11.9-0.3,21.8,9.1,22.2,21c0.2,5.8-1.9,11.3-5.9,15.4c-1.3,1.4-2.8,2.6-4.4,3.6c3.5,11.8,10.9,38.2,11.5,54.1
			c0.1,3.8,0.2,7.3,0.1,10.7c0,0.4-0.1,0.7-0.4,1c-1.2,1.4-3.7,2.3-6.5,2.4C737.1,653.3,737,653.3,736.9,653.3z M733.2,649.2
			c0.6,0.5,2.1,0.9,4,0.9c1.7,0,3-0.5,3.8-1c0.1-3,0.1-6.3-0.1-9.7c-0.6-15.3-7.7-40.8-11.2-52.8c-1.2,0.5-2.4,0.9-3.6,1.1
			c-1.3,0.3-2.6,0.5-4,0.5c0,0,0,0,0,0c0,0,0,0,0,0c3.6,11.9,10.5,36.7,11.1,51.4C733.2,643.1,733.2,646.3,733.2,649.2z M720,585
			c0.6,0,1.1,0.1,1.7,0c0,0,0,0,0,0c1.3,0,2.6-0.2,3.8-0.5c1.5-0.4,2.9-0.9,4.2-1.6c0,0,0.1,0,0.1-0.1c1.7-0.9,3.2-2.1,4.6-3.5
			c3.4-3.6,5.1-8.2,5-13.1c-0.3-10.1-8.8-18.2-18.9-17.9c-4.9,0.1-9.4,2.2-12.8,5.7c-3.4,3.6-5.1,8.2-5,13.1
			C703.2,576.7,710.7,584.4,720,585z M1574.9,522.6c-0.1,0-0.2,0-0.2,0l-21.2-3.1c-0.9-0.1-1.5-0.9-1.4-1.8c0.1-0.9,1-1.5,1.8-1.4
			l21.2,3.1c0.9,0.1,1.5,0.9,1.4,1.8C1576.3,522.1,1575.6,522.6,1574.9,522.6z M1582.1,495.8c-0.1,0-0.2,0-0.2,0l-33.2-5
			c-0.9-0.1-1.5-1-1.3-1.8c0.1-0.9,1-1.5,1.8-1.3l33.2,5c0.9,0.1,1.5,1,1.3,1.8C1583.5,495.2,1582.8,495.8,1582.1,495.8z
			 M1427.7,472.4c-0.1,0-0.2,0-0.2,0l-137.9-20.9c-0.9-0.1-1.5-1-1.3-1.8c0.1-0.9,1-1.5,1.8-1.3l137.9,20.9c0.9,0.1,1.5,1,1.3,1.8
			C1429.2,471.8,1428.5,472.4,1427.7,472.4z M899.8,421.2c-19.4,0-36.7-8.8-47.9-22.5c-0.1-0.1-0.1-0.1-0.2-0.2
			c-7.8-9.7-12.1-21.3-12.5-33.5c0,0,0,0,0,0c0,0,0,0,0-0.1c0,0,0,0,0,0c0,0,0,0,0-0.1c0,0,0,0,0,0c0-0.6,0-1.1,0-1.7
			c0-12.4,4.1-24.3,11.7-34.2c1.2-1.6,2.5-3.1,3.9-4.6c11.2-11.9,26.6-18.6,43.3-19.1c19.9-0.5,37.9,8.2,49.4,22.2
			c3.4,4.1,6.2,8.6,8.3,13.5c0,0.1,0,0.1,0.1,0.2c2.7,6.3,4.3,13.2,4.5,20.4c0.5,15-5.1,29.4-15.6,40.5
			c-11.2,11.9-26.6,18.6-43.3,19.1C900.9,421.2,900.3,421.2,899.8,421.2z M854.3,396.6c10.9,13.4,28,21.9,47.1,21.3
			c15.8-0.4,30.4-6.8,41-18.1c9.9-10.5,15.1-24.1,14.7-38.2c-0.2-6.8-1.7-13.3-4.3-19.2c-11.2-13.8-28.8-21.7-47.1-21.3l0-1.6l0,1.6
			c-15.8,0.4-30.4,6.8-41,18.1c-9.9,10.5-15.1,24.1-14.7,38.2C850.3,384.1,851.7,390.5,854.3,396.6z M842.4,365
			c0.3,7.8,2.2,15.1,5.5,21.7c-0.6-3-0.9-6-1-9.1c-0.5-15,5.1-29.4,15.6-40.5c11.2-11.9,26.6-18.6,43.3-19.1
			c15.1-0.4,29.7,4.6,41,13.9c-0.6-0.8-1.1-1.5-1.7-2.2c-11.1-13.5-28.5-21.6-46.9-21.1c0,0,0,0-0.1,0c-15.8,0.4-30.4,6.8-41,18.1
			c-9.5,10.1-14.7,23.1-14.7,36.6c0,0.5,0,1,0,1.6C842.4,364.8,842.4,364.8,842.4,365C842.4,364.9,842.4,364.9,842.4,365
			C842.4,364.9,842.4,364.9,842.4,365C842.4,364.9,842.4,365,842.4,365z"/>
	</g>
	<g>
		<path class="st7" d="M1470,1376.1c-5,0-9.9-0.5-14.8-1.4c-0.4-0.1-0.8-0.4-1.1-0.7l-4.8-8c-0.1-0.2-0.2-0.4-0.2-0.7l0,0
			c0,0,0,0,0,0c0,0,0,0,0,0c0,0,0,0,0-0.1l-0.5-12.2c-2.9-1.3-5.6-2.8-8.2-4.5l-17.2,10.4c-0.6,0.4-1.3,0.3-1.9-0.1
			c-0.7-0.6-1.6-1.3-2.6-2.1c-5.9-4.7-14.8-11.8-16.7-21.5c-0.1-0.5,0-1,0.3-1.3l0.5-0.7c0,0,0,0,0,0l12.7-15.5
			c-1.1-2.4-2-4.9-2.8-7.4l-14.4-2.7c-0.5-0.1-0.9-0.4-1.2-0.9c-0.4-0.9-1.1-1.9-1.9-2.9c-1-1.5-2.2-3.1-3-5.1
			c-0.1-0.2-0.1-0.3-0.1-0.5c0,0,0,0,0,0c0,0,0-0.1,0-0.1c0-6.7,1-13.3,2.9-19.8c0.2-0.6,0.7-1.1,1.4-1.1l18.1-1.9
			c1.9-4.6,4.4-9,7.4-13.1l-6.8-16.2c-0.3-0.6-0.1-1.3,0.3-1.8c5.1-5.1,10.9-9.5,17.2-13.2c0.6-0.4,1.4-0.3,1.9,0.2l12.4,11.5
			c4.9-2,10-3.5,15.2-4.2l5.5-17.6c0.2-0.6,0.8-1.1,1.4-1.1c7.5-0.5,15,0,22.1,1.5c2.9,0.5,5.6,7.2,6.1,9.2c0,0.1,0,0.2,0,0.3
			l0.3,12.7c2.9,1.4,5.7,3,8.4,4.8l18.1-9.3c0.6-0.3,1.3-0.2,1.8,0.3c4.8,4.5,8.9,9.6,12.2,15.2c1.4,1.8,2.5,3.8,3.6,5.7
			c0.4,0.8,0.9,1.6,1.3,2.3c0.3,0.6,0.3,1.3-0.1,1.8l-11.6,14.1c0.3,1.3,0.5,2.5,0.6,3.7c0.2,1.1,0.3,2.1,0.5,3l14,4.2c0,0,0,0,0,0
			h0l0,0c0,0,0,0,0,0c0,0,0,0,0,0c0,0,0,0,0,0c0.2,0.1,0.4,0.2,0.6,0.3c0,0,0,0,0,0c0,0,0,0,0,0c0.1,0.1,0.2,0.2,0.3,0.4
			c0,0,0,0,0,0l0,0c0,0,0,0,0,0l4.8,8c0.2,0.3,0.2,0.6,0.2,0.9c-0.1,6.9-1.3,13.9-3.5,20.6c-0.1,0.3-0.3,0.7-0.7,0.9v0c0,0,0,0,0,0
			c0,0-0.1,0-0.1,0.1c0,0,0,0,0,0l0,0c-0.2,0.1-0.5,0.2-0.7,0.2l-16.6,0.6c-1.9,4.8-4.6,9.4-7.8,13.5l7.5,13.9
			c0.3,0.6,0.2,1.4-0.3,1.9c-5.4,5.6-11.6,10.4-18.4,14.4c-0.4,0.2-0.8,0.3-1.1,0.2c-0.1,0-0.2,0-0.3-0.1c0,0,0,0,0,0v0
			c-0.2-0.1-0.4-0.2-0.5-0.3l-11.8-11c-4.9,2-10.1,3.5-15.4,4.2l-5.6,17c-0.1,0.2-0.2,0.5-0.4,0.7c-0.1,0.1-0.2,0.1-0.2,0.2
			c-0.2,0.2-0.5,0.2-0.8,0.3C1473.9,1376.1,1471.9,1376.1,1470,1376.1z M1456.5,1371.7c5.3,0.9,10.7,1.3,16.2,1.1
			c-1-1.4-2.2-3.3-2.9-4.8c-5.4,0.3-10.7,0.1-15.9-0.7L1456.5,1371.7z M1472.6,1366.4c0.4,1.1,1.5,2.9,2.6,4.5l4.7-14.3l-2.6-4.3
			L1472.6,1366.4z M1452.2,1363.8c5,0.6,12.6,1.2,17.5,1l5.5-16.9c0.1-0.3,0.3-0.7,0.7-0.9c0,0,0.1,0,0.1-0.1
			c0.2-0.1,0.4-0.2,0.6-0.2c5.7-0.7,11.3-2.2,16.5-4.5c0.6-0.3,1.3-0.1,1.7,0.3l11.7,10.9c5.8-3.5,11.1-7.6,15.9-12.4l-7.4-13.8
			c-0.1-0.2-0.2-0.5-0.2-0.8c0-0.4,0.1-0.7,0.4-1c3.6-4.4,6.4-9.3,8.4-14.5c0.1-0.3,0.3-0.6,0.6-0.8c0,0,0.1,0,0.1-0.1
			c0.2-0.1,0.5-0.2,0.7-0.2l16.5-0.6c1.1-4.2,2.2-12.2,2.8-17.4l-13.6-4c0,0,0,0,0,0l-3.3-1c-0.1,0-0.3-0.1-0.4-0.2
			c-0.2-0.1-0.3-0.2-0.4-0.4l0,0c0,0,0,0,0,0c-0.2-0.2-0.3-0.5-0.3-0.7c-0.7-4.7-2-9.2-4-13.5c-0.1-0.2-0.2-0.4-0.2-0.7l0,0
			c0,0,0,0,0,0l0,0c0,0,0,0,0,0c0-0.1,0-0.1,0-0.2l0,0c0,0,0,0,0,0c0-0.3,0.2-0.6,0.4-0.9l12.5-15.1c-2.9-4.7-6.3-9-10.3-12.8
			l-18,9.2c-0.5,0.3-1.2,0.2-1.7-0.1c-3-2.1-6.1-3.9-9.5-5.4c0,0,0,0-0.1,0c-1.2-0.5-2.4-1-3.7-1.5c-0.3-0.1-0.5-0.2-0.8-0.3
			c0,0,0,0-0.1,0c-0.6-0.2-1.1-0.8-1.1-1.5c0,0,0,0,0,0c0,0,0,0,0,0l-0.5-18.5c-6.2-1.2-12.5-1.6-18.9-1.3l-5.5,17.5
			c-0.2,0.6-0.7,1-1.3,1.1c-5.6,0.7-11.1,2.3-16.3,4.6c-0.6,0.3-1.3,0.1-1.7-0.3l-12.3-11.4c-5.4,3.2-10.3,7-14.8,11.3l6.7,16
			c0.2,0.5,0.1,1.2-0.2,1.6c-3.4,4.3-6,9-7.9,13.9c-0.2,0.6-0.7,1-1.3,1l-18,1.9c-1.5,5.4-2.3,11-2.4,16.5l17.5,3.2
			c0.3,0.1,0.6,0.2,0.9,0.5l0,0c0,0,0,0,0,0c0,0,0,0,0,0c0,0,0,0,0,0l0,0c0,0,0,0,0,0c0,0,0,0,0,0l0,0c0,0,0,0,0,0c0,0,0,0,0,0v0
			c0,0,0,0,0,0c0,0,0,0,0,0c0,0,0,0,0,0c0,0,0,0,0,0c0,0,0,0,0,0c0,0,0,0,0,0c0,0,0,0,0,0c0,0,0,0,0,0l0,0c0,0,0,0,0,0h0
			c0,0,0,0,0,0l0,0c0,0,0,0,0,0l0,0c0,0,0,0,0,0c0,0,0,0,0,0c0,0,0,0,0,0c0,0,0,0,0,0c0,0,0,0,0,0c0,0,0,0,0,0c0,0,0,0,0,0
			c0,0,0,0,0,0c0,0,0,0,0,0l0,0c0,0,0,0,0,0c0,0,0,0,0,0l0,0c0,0,0,0,0,0c0,0,0,0,0,0c0,0,0,0,0,0c0,0,0,0,0,0c0,0,0,0,0,0
			c0,0,0,0,0,0c0,0,0,0,0,0l0,0c0,0,0,0,0,0c0,0,0,0,0,0c0,0,0,0,0,0l0,0c0,0,0,0,0,0c0,0,0,0,0,0c0,0,0,0,0,0l0,0c0,0,0,0,0,0v0
			c0,0,0,0,0,0l0,0c0,0,0,0,0,0c0,0,0,0,0,0l0,0c0,0,0,0,0,0c0,0,0,0,0,0c0,0,0,0,0,0c0,0,0,0,0,0c0,0,0,0,0,0l0,0c0,0,0,0,0,0
			c0,0,0,0,0,0c0,0,0,0,0,0l0,0c0,0,0,0,0,0c0,0,0,0,0,0c0,0,0,0,0,0c0,0,0,0,0,0c0,0,0,0,0,0l0,0c0,0,0,0,0,0c0,0,0,0,0,0
			c0,0,0,0,0,0c0,0,0,0,0,0c0,0,0,0,0,0c0,0,0,0,0,0c0,0,0,0,0,0c0,0,0,0,0,0c0,0,0,0,0,0c0,0,0,0,0,0c0,0,0,0,0,0c0,0,0,0,0,0
			c0,0,0,0,0,0c0,0,0,0,0,0c0,0,0,0,0,0c0,0,0,0,0,0c0,0,0,0,0,0l0,0c0,0,0,0,0,0c0,0,0,0,0,0c0,0,0,0,0,0c0,0,0,0,0,0h0
			c0,0,0,0,0,0v0c0,0,0,0,0,0c0,0,0,0,0,0l0,0c0,0,0,0,0,0l0,0c0,0,0,0,0,0c0,0,0,0,0,0l0,0c0,0,0,0,0,0v0c0,0,0,0,0,0c0,0,0,0,0,0
			l0,0c0,0,0,0,0,0l0,0c0,0,0,0,0,0l0,0c0.1,0.2,0.2,0.4,0.2,0.7c0.1,1,0.3,1.9,0.4,2.9c0,0,0,0,0,0c0,0,0,0,0,0
			c0.3,1.4,0.6,2.8,1,4.2c0,0,0,0,0,0c0.8,3,1.9,5.9,3.3,8.7c0.3,0.6,0.2,1.2-0.2,1.7l-12.6,15.3c3.2,4.9,7.1,9.3,11.6,13.2l17-10.3
			c0.5-0.3,1.2-0.3,1.7,0c4.3,2.9,9,5.2,13.9,6.9c0.4,0.1,0.7,0.4,0.9,0.7l0,0c0,0,0,0,0,0l0,0c0,0,0,0,0,0c0,0,0,0,0,0c0,0,0,0,0,0
			c0,0,0,0,0,0c0,0,0,0,0,0l0,0c0,0,0,0,0,0l0,0c0.1,0.1,0.1,0.2,0.1,0.3c0,0,0,0,0,0l0,0c0,0,0,0,0,0v0c0,0,0,0,0,0c0,0,0,0,0,0
			c0,0,0,0,0,0v0c0,0,0,0,0,0c0,0,0,0,0,0c0,0,0,0,0,0c0,0,0,0,0,0l0,0c0,0.1,0,0.2,0,0.3l0.2,6.2c0,0,0,0,0,0L1452.2,1363.8z
			 M1508.6,1356l3.2,5.2c5.7-3.4,10.9-7.5,15.6-12.2l-2.9-5.4C1519.7,1348.4,1514.3,1352.5,1508.6,1356z M1417,1351.1
			c1.3,1.1,2.6,2.2,3.8,3.1c0.6,0.5,1.2,1,1.8,1.4l17.1-10.3c0.5-0.3,1.2-0.3,1.7,0c2.3,1.5,4.6,2.9,7.1,4.1l-0.1-2.5
			c-4.5-1.6-8.8-3.7-12.8-6.4l-17.2,10.4c0,0,0,0,0,0l0,0c0,0,0,0,0,0c0,0,0,0,0,0c0,0,0,0,0,0c-0.3,0.2-0.6,0.2-0.8,0.2l0,0
			c0,0,0,0,0,0c0,0,0,0,0,0c-0.1,0-0.2,0-0.3,0c0,0,0,0,0,0c0,0,0,0,0,0C1417.2,1351.1,1417.1,1351.1,1417,1351.1z M1479.4,1349.6
			l3,5c5.4-0.8,10.6-2.2,15.5-4.4c0.1,0,0.2-0.1,0.3-0.1l-4.8-4.5C1489,1347.5,1484.3,1348.8,1479.4,1349.6z M1518.4,1326.7l2.8,5.3
			c2.9-3.8,5.2-7.9,6.9-12.3l-2.8-4.6C1523.5,1319.2,1521.2,1323.1,1518.4,1326.7z M1527.9,1313.1l2.9,4.8l14.1-0.5l-2.9-4.8
			L1527.9,1313.1z M1544.6,1310.8l2.6,4.2c1.4-5.2,2.1-10.5,2.3-15.7l-1.9-3.2C1547,1301,1546.1,1305.9,1544.6,1310.8z
			 M1399.8,1304.7l12.2,2.3c-0.2-0.8-0.3-1.6-0.5-2.4c-0.1-0.5-0.2-1-0.2-1.5l-14.3-2.7c0.4,0.6,0.8,1.1,1.1,1.7
			C1398.7,1303,1399.4,1303.8,1399.8,1304.7z M1528.3,1278.8c0,0.1,0,0.1,0,0.2C1528.3,1278.9,1528.3,1278.9,1528.3,1278.8
			L1528.3,1278.8z M1526,1271.4l3.7,4.2l10.3-12.4c-0.3-0.5-0.5-1-0.8-1.5c-0.7-1.3-1.4-2.5-2.2-3.7L1526,1271.4z M1493.2,1241.6
			c0.5,0.2,1,0.4,1.4,0.5l-0.3-11c-0.3-1.1-0.9-2.4-1.5-3.7L1493.2,1241.6z M1470.9,1330.8c-12.3,0-23.4-5.6-30.5-14.3
			c-0.1,0-0.1-0.1-0.1-0.2c-4.9-6.1-7.6-13.3-8-20.9c0-0.2,0-0.3,0-0.5c0,0,0,0,0,0c0,0,0,0,0,0c0,0,0,0,0-0.1c0-0.4,0-0.7,0-1.1
			c0-9.2,3.5-17.9,10-24.7c7.1-7.5,16.9-11.9,27.5-12.1c12.8-0.3,24.3,5.3,31.6,14.4c2.1,2.5,3.8,5.3,5.1,8.4c0,0,0,0.1,0.1,0.1
			c1.7,4,2.8,8.4,2.9,13c0.3,9.6-3.2,18.7-9.9,25.8c-7.1,7.5-16.9,11.9-27.5,12.1C1471.6,1330.8,1471.2,1330.8,1470.9,1330.8z
			 M1442.9,1314.5c6.7,8.2,17.3,13.4,29,13.1c9.8-0.3,18.8-4.2,25.3-11.1c6.1-6.5,9.3-14.8,9.1-23.5c-0.1-4.2-1-8.1-2.6-11.8
			c-6.9-8.5-17.7-13.3-29-13l0,0c-9.8,0.3-18.8,4.2-25.3,11.1c-6.1,6.5-9.3,14.8-9.1,23.5
			C1440.4,1306.8,1441.3,1310.7,1442.9,1314.5z M1435.5,1295.4c0.1,3.1,0.7,6,1.7,8.8c0-0.4,0-0.9-0.1-1.3
			c-0.3-9.6,3.2-18.7,9.9-25.8c7.1-7.5,16.9-11.9,27.5-12.1l0,0c7.9-0.2,15.6,1.9,22.1,6c-6.8-6.9-16.6-11-26.9-10.7
			c-9.8,0.3-18.8,4.2-25.3,11.1c-5.9,6.2-9.1,14.2-9.1,22.5c0,0.3,0,0.7,0,1C1435.5,1295,1435.5,1295.2,1435.5,1295.4L1435.5,1295.4
			C1435.5,1295.4,1435.5,1295.4,1435.5,1295.4z"/>
	</g>
	<g>
		<path class="st7" d="M1541.3,1271.8c-1.7,0-3.3,0-5.1-0.2c-0.9-0.1-1.6-0.8-1.5-1.7c0.1-0.9,0.8-1.5,1.7-1.5
			c22.4,1.3,40.6-6.1,54.1-22c10.1-11.9,13.6-24.5,13.6-24.6l175-596.7c0.2-0.5,13.1-37,5.5-63.2c-1.9-6.5-5.7-12.1-11.3-16.6
			c-0.7-0.6-0.8-1.6-0.3-2.3c0.6-0.7,1.6-0.8,2.3-0.3c6.1,4.9,10.3,11,12.4,18.2c7.9,27.3-5,63.6-5.5,65.1l-174.9,596.6
			c-0.1,0.5-3.7,13.2-14.2,25.7C1583.9,1259.3,1567.6,1271.8,1541.3,1271.8z M1418.3,1250.5c-0.1,0-0.2,0-0.3,0l-18.4-3.4
			c-0.9-0.2-1.4-1-1.3-1.9c0.2-0.9,1-1.4,1.9-1.3l18.4,3.4c0.9,0.2,1.4,1,1.3,1.9C1419.7,1249.9,1419,1250.5,1418.3,1250.5z
			 M1390.3,1245.3c-0.1,0-0.2,0-0.3,0l-0.5-0.1c-0.9-0.2-1.4-1-1.3-1.9c0.2-0.9,1-1.5,1.9-1.3l0.5,0.1c0.9,0.2,1.4,1,1.3,1.9
			C1391.8,1244.7,1391.1,1245.3,1390.3,1245.3z M1331.4,1234.3c-0.1,0-0.2,0-0.3,0l-103.5-19.3c-0.9-0.2-1.4-1-1.3-1.9
			c0.2-0.9,1-1.4,1.9-1.3l103.5,19.3c0.9,0.2,1.4,1,1.3,1.9C1332.9,1233.8,1332.2,1234.3,1331.4,1234.3z M1164.2,1203.2
			c-0.1,0-0.2,0-0.3,0l-300.2-55.9c-0.9-0.2-1.4-1-1.3-1.9c0.2-0.9,1-1.4,1.9-1.3l300.2,55.9c0.9,0.2,1.4,1,1.3,1.9
			C1165.7,1202.6,1165,1203.2,1164.2,1203.2z M1246.5,1029.8c-0.1,0-0.1,0-0.2,0c-3.7-0.1-9.6-4.1-17.7-37.9
			c-3.7-15.5-6.4-31.1-7.1-35.4c-38.9-4.5-76.5-10.2-93.7-25.1c-10.8-9.4-15.4-23-13-38.4c1.4-8.7,4.8-17.4,9.8-25.3
			c-7.6,2.9-22,6.6-34.2-0.7c-13.2-7.9-19.8-26.5-19.6-55.1c0.2-28.7,13.3-56,37.7-79.1c42.7-40.3,114.7-63,187.8-59.2
			c54.9,2.8,103.2,28.7,132.6,71.1c27.6,39.8,35.2,88.9,20.7,134.5c-13.5,42.5-37,71-69.8,84.5c-7.9,3.2-15.8,5.4-23.4,6.7
			c-3.7,13.3-11.5,22.9-23.1,28.6c-21,10.2-50.5,5.1-71.8-3C1261,1004.2,1258,1029.8,1246.5,1029.8z M1224.8,956.8
			c0.9,5.3,3.5,19.9,6.9,34.3c7.9,32.8,13.2,35.4,14.7,35.5c8.1,0.2,11.4-22.4,12.1-31.9c-0.8-0.3-1.6-0.7-2.3-1
			c-11.8-5.2-19.3-12-22.2-20.3c-2.4-6.7-1.1-12.6,0-15.6C1230.9,957.5,1227.9,957.2,1224.8,956.8z M1237.3,958.2
			c-0.8,2.2-2.5,7.8-0.2,14.2c2.6,7.4,9.5,13.5,20.4,18.3c20.8,9.1,52.7,15.9,74.6,5.3c10.3-5,17.4-13.5,21-25.1
			c-22.5,3.3-42.6-0.3-54.4-3.4C1282.9,963.3,1260.7,960.8,1237.3,958.2z M1236.4,954.9c0.3,0,0.5,0.1,0.8,0.1
			c23.7,2.6,46.1,5.1,62.3,9.4c10.6,2.8,31.6,6.8,54.9,3.2c0.4-0.2,0.8-0.3,1.3-0.2c33.3-5.5,71.3-26.8,91-89.3
			c14.1-44.7,6.7-92.7-20.3-131.7c-28.8-41.5-76.2-66.9-130.1-69.7C1224,673,1153,695.3,1110.8,735c-23.8,22.5-36.5,49-36.7,76.8
			c-0.2,27.4,5.9,45,18,52.3c14.3,8.6,33,0,35.9-1.5c8.4-11.5,20.1-21.1,33-26.6c1.7-0.7,3.5-1.5,5.2-2.2
			c36-15.3,76.9-32.7,127.1-5.9c13.4,7.2,20.7,15.7,21.5,25.2c1.2,13.9-11.1,26.8-21.7,35.1c-0.7,0.5-1.7,0.4-2.3-0.3
			s-0.4-1.7,0.3-2.3c8.1-6.4,21.6-19.1,20.5-32.3c-0.8-8.4-7.4-16.1-19.9-22.7c-48.8-26-88.9-9-124.3,6.1c-1.7,0.7-3.5,1.5-5.2,2.2
			c-22.2,9.4-40.8,32.2-44.3,54.4c-1.6,10.1-0.8,24.4,11.9,35.5C1148.5,945,1195.1,950.3,1236.4,954.9
			C1236.4,954.9,1236.4,954.9,1236.4,954.9z M1691.4,619C1691.3,619,1691.3,619,1691.4,619C1691.3,619,1691.3,619,1691.4,619
			C1691.3,619,1691.3,619,1691.4,619c-0.1,0-0.1,0-0.1,0c0,0,0,0,0,0c0,0-0.1,0-0.1,0l-91.2-14.3c-0.4-0.1-0.8-0.3-1-0.6l-34.6-47.5
			c-0.2-0.3-0.3-0.7-0.3-1.1v0c0,0,0,0,0,0c0-0.1,0-0.2,0-0.2c0,0,0,0,0,0c0,0,0,0,0,0c0,0,0,0,0,0L1652,227c0.2-0.8,1-1.3,1.8-1.2
			l92,13.1c0.4,0.1,0.8,0.3,1,0.6c0,0,0,0,0,0c0,0,0,0,0,0c0,0,0,0,0,0c0,0,0,0,0,0c0,0,0,0,0,0l34.5,47.5c0.3,0.4,0.4,0.9,0.3,1.4
			l-88.7,329.4c-0.1,0.3-0.3,0.7-0.6,0.9C1692,618.9,1691.7,619,1691.4,619C1691.4,619,1691.4,619,1691.4,619
			C1691.4,619,1691.4,619,1691.4,619C1691.4,619,1691.4,619,1691.4,619C1691.4,619,1691.4,619,1691.4,619
			C1691.4,619,1691.4,619,1691.4,619L1691.4,619C1691.4,619,1691.4,619,1691.4,619z M1601,601.6l86.8,13.6l-31.9-43.8l-86.8-13.6
			L1601,601.6z M1658.6,569.7l32.1,44.1l87.6-325.4l-32.1-44.1L1658.6,569.7z M1567.6,554.3l88,13.8l87.8-326.2l-88.8-12.7
			L1567.6,554.3z M1566.8,598.3c-0.1,0-0.2,0-0.2,0l-95.1-13.4c-0.4-0.1-0.8-0.3-1-0.6l-35.2-45.9c0,0-0.1-0.1-0.1-0.1c0,0,0,0,0,0
			c0,0,0,0,0,0c-0.1-0.2-0.2-0.4-0.2-0.7l-3.1-23.9l-105.9-16.1l-41.8,60.1c-0.1,0.1-0.2,0.2-0.3,0.3c0,0,0,0,0,0
			c0,0-0.1,0.1-0.1,0.1c0,0,0,0,0,0c-0.4,0.2-0.8,0.3-1.2,0.3l-91.6-14.3c-0.4-0.1-0.8-0.3-1-0.6l-35.2-45.9c0,0,0-0.1-0.1-0.1
			c-0.4-0.6-0.4-1.3,0.1-1.9l225.6-310.8c0.4-0.5,0.9-0.7,1.5-0.6l91.6,13.5c0.1,0,0.2,0,0.2,0.1c0,0,0,0,0,0c0,0,0,0,0,0l0,0
			c0.3,0.1,0.5,0.3,0.7,0.5c0,0,0,0,0,0c0,0,0,0,0,0c0,0,0,0,0.1,0.1l35.2,45.9c0.2,0.2,0.3,0.5,0.3,0.7l58.5,351.5
			c0.1,0.6-0.1,1.2-0.6,1.6C1567.5,598.2,1567.1,598.3,1566.8,598.3z M1472.6,581.8l90.6,12.8l-32.4-42.3l-90.6-12.8L1472.6,581.8z
			 M1533.1,550.1l31,40.5l-57.4-344.8l-31-40.5L1533.1,550.1z M1191.9,540.9l87,13.6l-32.4-42.3l-87-13.6L1191.9,540.9z
			 M1249.4,510.8l33.2,43.3l40.5-58.2l-33.2-43.3L1249.4,510.8z M1437.9,535.9l91.7,13l-58-348.3l-89.5-13.2l-223.5,307.9l88,13.8
			l41.8-60.1c0.1-0.1,0.2-0.3,0.4-0.4c0.4-0.3,0.8-0.4,1.2-0.3l137.9,20.9c0.7,0.1,1.3,0.7,1.3,1.4L1437.9,535.9z M1325.9,494.3
			l105.4,16l-5-38.1L1293.5,452L1325.9,494.3z M1419.1,400.5c-0.1,0-0.2,0-0.3,0l-39.1-6.2c0,0-0.1,0-0.1,0l-48.9-7.8
			c-0.5-0.1-1-0.4-1.2-1c-0.2-0.5-0.2-1.1,0.2-1.5l72.4-105c0.4-0.5,1.1-0.8,1.7-0.6s1.1,0.7,1.2,1.3l8.7,66c0,0,0,0.1,0,0.1l7,52.9
			c0.1,0.5-0.1,1-0.5,1.4C1419.9,400.3,1419.5,400.5,1419.1,400.5z M1382.6,391.5l34.5,5.5l-6.1-46.7L1382.6,391.5z M1333.7,383.7
			l45.4,7.2l31.3-45.3l-8.1-61.3L1333.7,383.7z"/>
	</g>
	<g>
		<path class="st7" d="M1125.3,674.3c-1.1,0-2.2-0.1-3.3-0.3l-128.8-21.8c-5-0.8-9.2-3.6-11.8-7.7c-2.6-4.1-3.3-9.2-1.8-14.1
			l32.5-112.9c2.9-10.1,13.6-16.8,23.9-15.1l128.8,21.8c5,0.8,9.2,3.6,11.8,7.7c2.6,4.1,3.3,9.2,1.8,14.1l-32.5,112.9
			C1143.3,667.9,1134.5,674.3,1125.3,674.3z M1032.7,505.3c-7.8,0-15.3,5.4-17.5,13l-32.5,112.9c-1.2,4.1-0.6,8.2,1.5,11.5
			c2.1,3.3,5.5,5.5,9.6,6.2l0,0l128.8,21.8c8.7,1.5,17.8-4.3,20.2-12.8l32.5-112.9c1.2-4.1,0.6-8.2-1.5-11.5
			c-2.1-3.3-5.5-5.5-9.6-6.2l-128.8-21.8C1034.6,505.4,1033.6,505.3,1032.7,505.3z"/>
	</g>
	<g>
		<path class="st7" d="M1018.3,1046.2c-1.1,0-2.2-0.1-3.3-0.3l-75-12.7c-0.9-0.1-1.5-1-1.3-1.8c0.1-0.9,1-1.5,1.8-1.3l75,12.7
			c8.7,1.5,17.8-4.3,20.2-12.8l32.5-112.9c1.2-4.1,0.6-8.2-1.5-11.5c-2.1-3.3-5.5-5.5-9.6-6.2l-128.8-21.8
			c-8.7-1.5-17.8,4.3-20.2,12.8l-23.3,81.1c-0.2,0.9-1.1,1.3-2,1.1c-0.9-0.2-1.3-1.1-1.1-2l23.3-81.1c2.9-10.1,13.6-16.8,23.9-15.1
			l128.8,21.8c5,0.8,9.2,3.6,11.8,7.7c2.6,4.1,3.3,9.2,1.8,14.1l-32.5,112.9C1036.3,1039.8,1027.5,1046.2,1018.3,1046.2z
			 M1622.2,758.5c-1.1,0-2.2-0.1-3.3-0.3l-128.8-21.8c-5-0.8-9.2-3.6-11.8-7.7c-2.6-4.1-3.3-9.2-1.8-14.1l32.5-112.9
			c1.6-5.5,5.5-10.2,10.9-13c0.8-0.4,1.8-0.1,2.2,0.7c0.4,0.8,0.1,1.8-0.7,2.2c-4.6,2.3-7.9,6.4-9.3,11l-32.5,112.9
			c-1.2,4.1-0.6,8.2,1.5,11.5c2.1,3.3,5.5,5.5,9.6,6.2l128.8,21.8c8.7,1.5,17.8-4.3,20.2-12.8l32.5-112.9c1.5-5.3,0.2-10.6-3.7-14.2
			c-0.6-0.6-0.7-1.6-0.1-2.3c0.6-0.7,1.6-0.7,2.3-0.1c4.7,4.3,6.4,11,4.6,17.4l-32.5,112.9C1640.2,752.2,1631.3,758.5,1622.2,758.5z
			 M1597.3,600.8c-0.1,0-0.2,0-0.3,0l-30.9-5.2c-0.9-0.1-1.5-1-1.3-1.8c0.1-0.9,1-1.5,1.8-1.3l30.9,5.2c0.9,0.1,1.5,1,1.3,1.8
			C1598.7,600.2,1598,600.8,1597.3,600.8z"/>
	</g>
	<g>
		<path class="st7" d="M1516.4,1130.7c-1.1,0-2.2-0.1-3.3-0.3l-128.8-21.8c-5-0.8-9.2-3.6-11.8-7.7c-2.6-4.1-3.3-9.2-1.8-14.1
			l32.5-112.9c2.9-10.1,13.6-16.8,23.9-15.1l128.8,21.8c5,0.8,9.2,3.6,11.8,7.7c2.6,4.1,3.3,9.2,1.8,14.1l-32.5,112.9
			C1534.4,1124.3,1525.5,1130.7,1516.4,1130.7z M1423.8,961.7c-7.8,0-15.3,5.4-17.5,13l-32.5,112.9c-1.2,4.1-0.6,8.2,1.5,11.5
			c2.1,3.3,5.5,5.5,9.6,6.2l128.8,21.8c8.7,1.5,17.8-4.3,20.2-12.8l32.5-112.9c1.2-4.1,0.6-8.2-1.5-11.5c-2.1-3.3-5.5-5.5-9.6-6.2
			l-128.8-21.8C1425.6,961.8,1424.7,961.7,1423.8,961.7z"/>
	</g>
	<g>
		<path class="st7" d="M1119.6,985.7c-0.1,0-0.2,0-0.3,0l-65.7-11.1c-0.9-0.1-1.5-1-1.3-1.8c0.1-0.9,1-1.5,1.8-1.3l64.3,10.9
			l14-48.8c0.2-0.9,1.1-1.3,2-1.1c0.9,0.2,1.3,1.1,1.1,2l-14.4,50.2C1120.9,985.2,1120.3,985.7,1119.6,985.7z M784.5,922.2
			c-39.8,0-69.1-11.8-76-19.3c-7.4-8.2-21.2-42.7-29.2-79.2c-5.9-26.6-12.9-74.7,6.1-97.1c13.4-15.9,46.4-30.7,90.6-40.7
			c40.2-9.1,83.1-12.8,112-9.5c0.9,0.1,1.5,0.9,1.4,1.8c-0.1,0.9-0.9,1.5-1.8,1.4c-28.6-3.2-71.1,0.4-110.9,9.5
			c-43.5,9.9-75.9,24.3-88.9,39.6c-18.1,21.4-11.2,68.3-5.4,94.4c8.3,37.8,22.2,70.7,28.5,77.7c5.8,6.5,30.5,16.7,65.1,18.1
			c29.6,1.2,74.7-3.6,122-33.8c0.7-0.5,1.7-0.3,2.2,0.5c0.5,0.7,0.3,1.7-0.5,2.2C858.7,913.9,817.9,922.2,784.5,922.2z
			 M1205.9,685.7c-0.1,0-0.3,0-0.4-0.1c-0.9-0.2-1.3-1.1-1.1-2l19.9-69.2l-63.9-10.8c-0.9-0.1-1.5-1-1.3-1.8c0.1-0.9,1-1.5,1.8-1.3
			l65.7,11.1c0.5,0.1,0.8,0.3,1.1,0.7c0.2,0.4,0.3,0.9,0.2,1.3l-20.4,70.9C1207.2,685.2,1206.6,685.7,1205.9,685.7z"/>
	</g>
	<g>
		<path class="st7" d="M1514.1,1107.6c-0.3,0-0.6,0-0.8-0.1l0,0l-27.7-4.6c-1.4-0.2-2.6-1-3.4-2.3c-1.1-1.7-1.4-4.1-0.7-6.5
			l26.7-98.6c1.1-4.2,4.6-7,7.9-6.5l27.7,4.6c1.4,0.2,2.6,1,3.4,2.3c1.1,1.7,1.4,4.1,0.7,6.5l-26.7,98.6
			C1520.2,1104.9,1517.2,1107.6,1514.1,1107.6z M1513.8,1104.3c1.4,0.2,3.5-1.4,4.3-4.2l26.7-98.6c0.4-1.5,0.3-3-0.3-4
			c-0.3-0.5-0.7-0.8-1.2-0.9l-27.7-4.6c-1.4-0.2-3.5,1.4-4.3,4.2l-26.7,98.6c-0.4,1.5-0.3,3,0.3,4c0.3,0.5,0.7,0.8,1.2,0.9
			L1513.8,1104.3z M1469.4,1100.1c-0.3,0-0.6,0-0.8-0.1l0,0l-27.7-4.6c-1.4-0.2-2.6-1-3.4-2.3c-1.1-1.7-1.4-4.1-0.7-6.5l17.6-65.2
			c1.1-4.2,4.6-7,7.9-6.5l27.7,4.6c1.4,0.2,2.6,1,3.4,2.3c1.1,1.7,1.4,4.1,0.7,6.5l-17.6,65.2
			C1475.4,1097.3,1472.4,1100.1,1469.4,1100.1z M1469.1,1096.8c1.4,0.2,3.5-1.4,4.3-4.2l17.6-65.2c0.4-1.5,0.3-3-0.3-4
			c-0.3-0.5-0.7-0.8-1.2-0.9l-27.7-4.6c-1.4-0.2-3.5,1.4-4.3,4.2l-17.6,65.2c-0.4,1.5-0.3,3,0.3,4c0.3,0.5,0.7,0.8,1.2,0.9
			L1469.1,1096.8z M1424.6,1092.5c-0.3,0-0.6,0-0.8-0.1l-27.7-4.6c-1.4-0.2-2.6-1-3.4-2.3c-1.1-1.7-1.4-4.1-0.7-6.5l8.5-31.3
			c1.1-4.2,4.6-7,7.9-6.5l27.7,4.6c1.4,0.2,2.6,1,3.4,2.3c1.1,1.7,1.4,4.1,0.7,6.5l-8.5,31.3
			C1430.7,1089.8,1427.7,1092.5,1424.6,1092.5z M1407.6,1044.4c-1.4,0-3.3,1.6-4,4.2l-8.5,31.3c-0.4,1.5-0.3,3,0.3,4
			c0.3,0.5,0.7,0.8,1.2,0.9l27.7,4.6c0,0,0,0,0,0c1.4,0.2,3.5-1.4,4.3-4.2l8.5-31.3c0.4-1.5,0.3-3-0.3-4c-0.3-0.5-0.7-0.8-1.2-0.9
			l-27.7-4.6C1407.8,1044.4,1407.7,1044.4,1407.6,1044.4z"/>
	</g>
	<g>
		<path class="st7" d="M1627.9,734.9c-0.3,0-0.7,0-1-0.1l-23.5-4.4c-1.4-0.3-2.6-1.1-3.4-2.3c-0.8-1.2-1.1-2.7-0.7-4.2l4.7-19.8
			c0.7-2.9,3.6-4.9,6.6-4.3l23.5,4.4c1.4,0.3,2.6,1.1,3.4,2.3c0.8,1.2,1.1,2.7,0.7,4.2l-4.7,19.8
			C1632.8,733,1630.4,734.9,1627.9,734.9z M1609.5,702.9c-1.1,0-2.2,0.8-2.5,2l-4.7,19.8c-0.1,0.6,0,1.2,0.3,1.7
			c0.3,0.5,0.8,0.8,1.3,0.9l23.5,4.4c1.2,0.2,2.5-0.7,2.9-1.9l4.7-19.8c0.1-0.6,0-1.2-0.3-1.7c-0.3-0.5-0.8-0.8-1.3-0.9l-23.5-4.4
			c0,0,0,0,0,0C1609.8,702.9,1609.7,702.9,1609.5,702.9z M1578.1,725.6c-0.3,0-0.7,0-1-0.1l-23.5-4.4c-1.4-0.3-2.6-1.1-3.4-2.3
			c-0.8-1.2-1.1-2.7-0.7-4.2l4.7-19.8c0.7-2.9,3.6-4.9,6.6-4.3h0l23.5,4.4c1.4,0.3,2.6,1.1,3.4,2.3c0.8,1.2,1.1,2.7,0.7,4.2
			l-4.7,19.8C1583.1,723.8,1580.7,725.6,1578.1,725.6z M1559.8,693.6c-1.1,0-2.2,0.8-2.5,2l-4.7,19.8c-0.1,0.6,0,1.2,0.3,1.7
			c0.3,0.5,0.8,0.8,1.3,0.9l23.5,4.4c1.3,0.2,2.5-0.7,2.9-1.9l4.7-19.8c0.1-0.6,0-1.2-0.3-1.7c-0.3-0.5-0.8-0.8-1.3-0.9l-23.5-4.4h0
			C1560,693.6,1559.9,693.6,1559.8,693.6z M1528.3,716.3c-0.3,0-0.7,0-1-0.1l-23.5-4.4c-1.4-0.3-2.6-1.1-3.4-2.3
			c-0.8-1.2-1.1-2.7-0.7-4.2l4.7-19.8c0.7-2.9,3.6-4.9,6.6-4.3l0,0l23.5,4.4c1.4,0.3,2.6,1.1,3.4,2.3c0.8,1.2,1.1,2.7,0.7,4.2
			l-4.7,19.8C1533.3,714.5,1530.9,716.3,1528.3,716.3z M1510,684.4c-1.1,0-2.2,0.8-2.5,2l-4.7,19.8c-0.1,0.6,0,1.2,0.3,1.7
			c0.3,0.5,0.8,0.8,1.3,0.9l23.5,4.4c1.2,0.2,2.5-0.7,2.9-1.9l4.7-19.8c0.1-0.6,0-1.2-0.3-1.7c-0.3-0.5-0.8-0.8-1.3-0.9l-23.5-4.4
			C1510.3,684.4,1510.2,684.4,1510,684.4z M1607.7,690.6c-0.3,0-0.7,0-1-0.1l-64.2-11.9c-1.5-0.3-2.7-1.1-3.5-2.3
			c-0.8-1.2-1.1-2.7-0.7-4.2l4.7-19.8c0.7-2.9,3.7-4.9,6.7-4.3l64.2,11.9c1.5,0.3,2.7,1.1,3.5,2.3c0.8,1.2,1.1,2.7,0.7,4.2
			l-4.7,19.8C1612.7,688.8,1610.3,690.6,1607.7,690.6z M1548.7,651.1c-1.1,0-2.2,0.8-2.5,2l-4.7,19.8c-0.1,0.6,0,1.2,0.3,1.7
			c0.3,0.5,0.8,0.8,1.4,0.9l64.2,11.9c1.3,0.2,2.6-0.6,3-1.9l4.7-19.8c0.1-0.6,0-1.2-0.3-1.7c-0.3-0.5-0.8-0.8-1.4-0.9l-64.2-11.9
			l0,0C1549,651.1,1548.8,651.1,1548.7,651.1z M1616.9,652.2c-0.3,0-0.7,0-1-0.1l-64.2-11.9c-1.5-0.3-2.7-1.1-3.5-2.3
			c-0.8-1.2-1.1-2.7-0.7-4.2l4.7-19.8c0.7-2.9,3.7-4.9,6.7-4.3l64.2,11.9c1.5,0.3,2.7,1.1,3.5,2.3c0.8,1.2,1.1,2.7,0.7,4.2
			l-4.7,19.8C1622,650.4,1619.5,652.2,1616.9,652.2z M1557.9,612.6c-1.1,0-2.2,0.8-2.5,2l-4.7,19.8c-0.1,0.6,0,1.2,0.3,1.7
			c0.3,0.5,0.8,0.8,1.4,0.9l64.2,11.9c1.3,0.2,2.6-0.6,3-1.9l4.7-19.8c0.1-0.6,0-1.2-0.3-1.7c-0.3-0.5-0.8-0.8-1.4-0.9l-64.2-11.9
			l0,0C1558.2,612.6,1558.1,612.6,1557.9,612.6z"/>
	</g>
	<g>
		<path class="st7" d="M1572.2,695.9c-0.1,0-0.2,0-0.4,0c-0.9-0.2-1.4-1.1-1.2-1.9l2.7-11.3c0.2-0.9,1.1-1.4,1.9-1.2
			c0.9,0.2,1.4,1.1,1.2,1.9l-2.7,11.3C1573.6,695.4,1573,695.9,1572.2,695.9z"/>
	</g>
	<g>
		<path class="st7" d="M1522.5,686.6c-0.1,0-0.2,0-0.4,0c-0.9-0.2-1.4-1.1-1.2-1.9l4.3-17.9c1.1-4.8,5.9-7.9,10.6-7l6.8,1.3
			c0.9,0.2,1.4,1,1.3,1.9c-0.2,0.9-1,1.4-1.9,1.3l-6.8-1.3c-3.1-0.6-6.1,1.5-6.9,4.6l-4.3,17.9
			C1523.9,686.1,1523.2,686.6,1522.5,686.6z"/>
	</g>
	<g>
		<path class="st7" d="M1622,705.1c-0.1,0-0.2,0-0.4,0c-0.9-0.2-1.4-1.1-1.2-1.9l4.3-17.9c0.4-1.5,0.1-3-0.7-4.3
			c-0.8-1.2-2-2-3.4-2.2l-6.8-1.3c-0.9-0.2-1.4-1-1.3-1.9c0.2-0.9,1-1.4,1.9-1.3l6.8,1.3c2.3,0.4,4.2,1.7,5.5,3.6
			c1.3,2,1.7,4.4,1.1,6.8l-4.3,17.9C1623.4,704.6,1622.7,705.1,1622,705.1z"/>
	</g>
	<g>
		<path class="st7" d="M1581.5,657.1c-0.1,0-0.2,0-0.4,0c-0.9-0.2-1.4-1.1-1.2-1.9l2.6-11c0.2-0.9,1.1-1.4,1.9-1.2
			c0.9,0.2,1.4,1.1,1.2,1.9l-2.6,11C1582.9,656.6,1582.2,657.1,1581.5,657.1z"/>
	</g>
	<g>
		<path class="st7" d="M1388.5,1032.3c-0.1,0-0.2,0-0.3,0l-59.9-10.2c-0.5-0.1-0.8-0.3-1.1-0.7s-0.3-0.9-0.2-1.3l7.1-24.6
			c0.2-0.9,1.1-1.3,2-1.1c0.9,0.2,1.3,1.1,1.1,2l-6.6,22.9l58.2,9.9c0.9,0.1,1.5,1,1.3,1.8C1390,1031.7,1389.3,1032.3,1388.5,1032.3
			z M1327.9,956c-7.1,0-12.9-5.6-13.1-12.8c-0.1-3.5,1.2-6.8,3.6-9.4c2.4-2.5,5.6-4,9.1-4.1l0,0c0.1,0,0.2,0,0.4,0
			c7.1,0,12.9,5.6,13.1,12.8c0,0.3,0,0.7,0,1l33.9,6l2.8-10.6c0.2-0.8,1.1-1.4,1.9-1.1l26.8,6.7c0.9,0.2,1.4,1.1,1.2,1.9
			c-0.2,0.9-1.1,1.4-1.9,1.2l-25.3-6.3l-2.7,10.5c-0.2,0.8-1,1.3-1.8,1.2l-35.4-6.2c-0.6,1.9-1.6,3.7-3,5.2c-2.4,2.5-5.6,4-9.1,4.1
			C1328.2,956,1328,956,1327.9,956z M1327.6,933c-2.6,0.1-5.1,1.2-6.9,3.1c-1.8,1.9-2.8,4.4-2.7,7.1c0.2,5.4,4.6,9.6,9.9,9.6
			c0.1,0,0.2,0,0.3,0c2.6-0.1,5.1-1.2,6.9-3.1c1.3-1.4,2.2-3.2,2.5-5.1c0,0,0,0,0-0.1c0,0,0,0,0,0c0.1-0.6,0.1-1.3,0.1-1.9
			C1337.6,937.2,1333,932.8,1327.6,933L1327.6,933z M1190.4,940.9c-7.1,0-12.9-5.6-13.1-12.8c0-0.5,0-1,0-1.4l-22.2-4.6
			c-0.4-0.1-0.8-0.4-1.1-0.8s-0.3-0.9-0.2-1.3l3.6-11.5l-41.9-8.3c-0.9-0.2-1.4-1-1.3-1.9s1-1.4,1.9-1.3l43.7,8.6
			c0.4,0.1,0.8,0.4,1.1,0.8c0.2,0.4,0.3,0.9,0.2,1.3l-3.6,11.5l20.4,4.2c0.6-1.8,1.6-3.4,2.9-4.8c2.4-2.5,5.6-4,9.1-4.1l0,0
			c7.2-0.2,13.3,5.5,13.5,12.7c0.1,3.5-1.2,6.8-3.6,9.4c-2.4,2.5-5.6,4-9.1,4.1C1190.6,940.9,1190.5,940.9,1190.4,940.9z
			 M1180.6,925.8c-0.1,0.7-0.2,1.5-0.2,2.2c0.2,5.4,4.6,9.6,9.9,9.6c0.1,0,0.2,0,0.3,0c2.6-0.1,5.1-1.2,6.9-3.1
			c1.8-1.9,2.8-4.4,2.7-7.1c-0.2-5.4-4.6-9.6-9.9-9.6c-0.1,0-0.2,0-0.3,0c-2.6,0.1-5.1,1.2-6.9,3.1c-1.3,1.3-2.1,3-2.5,4.7
			C1180.7,925.7,1180.7,925.7,1180.6,925.8C1180.7,925.8,1180.6,925.8,1180.6,925.8z M1190,916.3L1190,916.3L1190,916.3z
			 M1332.3,920.8c-7.1,0-12.9-5.6-13.1-12.8c-0.1-3.5,1.2-6.8,3.6-9.4c2.4-2.5,5.6-4,9.1-4.1c0.9,0,1.7,0,2.5,0.2l16.2-54.9
			l-21.9-3.1c-0.5-0.1-0.9-0.3-1.1-0.7c-0.3-0.4-0.3-0.9-0.2-1.3l8.2-27.4c-4.5-2-7.7-6.4-7.8-11.6c-0.1-3.5,1.2-6.8,3.6-9.4
			c2.4-2.5,5.6-4,9.1-4.1l0,1.6l0-1.6c7.2-0.2,13.3,5.5,13.5,12.7c0.1,3.5-1.2,6.8-3.6,9.4c-2.4,2.5-5.6,4-9.1,4.1
			c-0.9,0-1.7,0-2.6-0.2l-7.6,25.7l21.9,3.1c0.5,0.1,0.9,0.3,1.1,0.7s0.3,0.9,0.2,1.3l-16.7,56.7c4.5,2,7.7,6.4,7.9,11.7
			c0.1,3.5-1.2,6.8-3.6,9.4c-2.4,2.5-5.6,4-9.1,4.1C1332.5,920.8,1332.4,920.8,1332.3,920.8z M1332.2,897.8c-0.1,0-0.2,0-0.3,0
			c-2.6,0.1-5.1,1.2-6.9,3.1c-1.8,1.9-2.8,4.4-2.7,7.1c0.2,5.4,4.6,9.6,9.9,9.6c0.1,0,0.2,0,0.3,0c2.6-0.1,5.1-1.2,6.9-3.1
			c1.8-1.9,2.8-4.4,2.7-7.1C1341.9,902.1,1337.5,897.8,1332.2,897.8z M1340.7,785.4c-0.1,0-0.2,0-0.3,0c-2.6,0.1-5.1,1.2-6.9,3.1
			c-1.8,1.9-2.8,4.4-2.7,7.1c0.2,5.4,4.6,9.6,9.9,9.6c0.1,0,0.2,0,0.3,0c2.6-0.1,5.1-1.2,6.9-3.1c1.8-1.9,2.8-4.4,2.7-7.1
			C1350.5,789.7,1346.1,785.4,1340.7,785.4z M1282.9,906.7c-7.1,0-12.9-5.6-13.1-12.8c-0.1-3.5,1.2-6.8,3.6-9.4
			c2.4-2.5,5.6-4,9.1-4.1l0,0c7.3-0.2,13.3,5.5,13.5,12.7c0.1,3.5-1.2,6.8-3.6,9.4c-2.4,2.5-5.6,4-9.1,4.1
			C1283.2,906.7,1283,906.7,1282.9,906.7z M1282.9,883.7c-0.1,0-0.2,0-0.3,0l0,0c-2.6,0.1-5.1,1.2-6.9,3.1c-1.8,1.9-2.8,4.4-2.7,7.1
			c0.2,5.4,4.6,9.6,9.9,9.6c0.1,0,0.2,0,0.3,0c2.6-0.1,5.1-1.2,6.9-3.1c1.8-1.9,2.8-4.4,2.7-7.1
			C1292.6,887.9,1288.2,883.7,1282.9,883.7z M1282.5,882.1L1282.5,882.1L1282.5,882.1z M1238.8,872.1c-7.1,0-12.9-5.6-13.1-12.8
			c0-0.3,0-0.6,0-0.8l-33.1-5.3l-3.6,9.6c-0.3,0.7-1,1.2-1.8,1l-48.9-9.1c-0.9-0.2-1.4-1-1.3-1.9c0.2-0.9,1-1.5,1.9-1.3l47.6,8.9
			l3.6-9.6c0.3-0.7,1-1.1,1.8-1l34.3,5.5c0.6-2,1.6-3.8,3.1-5.4c2.4-2.5,5.6-4,9.1-4.1l0,0c7.2-0.2,13.3,5.5,13.5,12.7
			c0.1,3.5-1.2,6.8-3.6,9.4c-2.4,2.5-5.6,4-9.1,4.1C1239,872.1,1238.9,872.1,1238.8,872.1z M1229,857.4c-0.1,0.6-0.1,1.2-0.1,1.8
			c0.2,5.4,4.6,9.6,9.9,9.6c0.1,0,0.2,0,0.3,0c2.6-0.1,5.1-1.2,6.9-3.1c1.8-1.9,2.8-4.4,2.7-7.1c-0.2-5.5-4.7-9.8-10.2-9.6l0,0
			c-2.6,0.1-5.1,1.2-6.9,3.1c-1.4,1.5-2.3,3.2-2.6,5.2C1229,857.3,1229,857.4,1229,857.4C1229,857.4,1229,857.4,1229,857.4z
			 M1398.7,839.3c-7.1,0-12.9-5.6-13.1-12.8c-0.1-3.5,1.2-6.8,3.6-9.4c2.4-2.5,5.6-4,9.1-4.1l0,0c0.8,0,1.6,0,2.4,0.1l2.1-7.5
			c0.2-0.8,1-1.3,1.9-1.1c0.4,0.1,37.1,7.5,50,9.9c0.9,0.2,1.4,1,1.3,1.9c-0.2,0.9-1,1.5-1.9,1.3c-11.4-2.1-41.6-8.2-48.6-9.6
			l-1.7,6.1c4.6,1.9,7.9,6.4,8,11.7c0.1,3.5-1.2,6.8-3.6,9.4c-2.4,2.5-5.6,4-9.1,4.1C1399,839.3,1398.9,839.3,1398.7,839.3z
			 M1398.4,816.3c-2.6,0.1-5.1,1.2-6.9,3.1c-1.8,1.9-2.8,4.4-2.7,7.1c0.2,5.4,4.6,9.6,9.9,9.6c0.1,0,0.2,0,0.3,0
			c2.6-0.1,5.1-1.2,6.9-3.1c1.8-1.9,2.8-4.4,2.7-7.1c-0.2-5.4-4.6-9.6-9.9-9.6C1398.6,816.3,1398.5,816.3,1398.4,816.3L1398.4,816.3
			z M1398.4,814.7L1398.4,814.7L1398.4,814.7z M1288.8,807.1c-7.1,0-12.9-5.6-13.1-12.8c0-0.6,0-1.1,0.1-1.7l-16.8-3.9
			c-0.4-0.1-0.8-0.4-1-0.8c-0.2-0.4-0.3-0.8-0.1-1.3l5.5-18.4l-41.6-8.5c-0.6,1.8-1.6,3.4-2.9,4.9c-2.4,2.5-5.6,4-9.1,4.1
			c-7.2,0.2-13.3-5.5-13.5-12.7c-0.1-3.5,1.2-6.8,3.6-9.4c2.4-2.5,5.6-4,9.1-4.1l0,0c7.2-0.2,13.3,5.5,13.5,12.7c0,0.5,0,0.9,0,1.4
			l43.4,8.8c0.4,0.1,0.8,0.4,1.1,0.7c0.2,0.4,0.3,0.9,0.2,1.3l-5.5,18.4l15.2,3.5c0.6-1.7,1.5-3.2,2.8-4.5c2.4-2.5,5.6-4,9.1-4.1
			l0,0c7.2-0.2,13.3,5.5,13.5,12.7c0.1,3.5-1.2,6.8-3.6,9.4c-2.4,2.5-5.6,4-9.1,4.1C1289.1,807.1,1289,807.1,1288.8,807.1z
			 M1279.1,791.8c-0.2,0.8-0.2,1.6-0.2,2.4c0.2,5.4,4.6,9.6,9.9,9.6c0.1,0,0.2,0,0.3,0c2.6-0.1,5.1-1.2,6.9-3.1
			c1.8-1.9,2.8-4.4,2.7-7.1c-0.2-5.4-4.6-9.6-9.9-9.6c-0.1,0-0.2,0-0.3,0c-2.6,0.1-5.1,1.2-6.9,3.1c-1.2,1.3-2.1,2.9-2.4,4.5
			C1279.2,791.7,1279.2,791.7,1279.1,791.8C1279.1,791.7,1279.1,791.8,1279.1,791.8z M1288.5,782.4L1288.5,782.4L1288.5,782.4z
			 M1208.9,745.8c-2.6,0.1-5.1,1.2-6.9,3.1c-1.8,1.9-2.8,4.4-2.7,7.1c0.2,5.5,4.7,9.8,10.2,9.6c2.6-0.1,5.1-1.2,6.9-3.1
			c1.3-1.4,2.1-3,2.5-4.8c0,0,0,0,0-0.1c0,0,0,0,0-0.1c0.1-0.7,0.2-1.4,0.2-2.2c-0.2-5.4-4.6-9.6-9.9-9.6
			C1209.1,745.8,1209,745.8,1208.9,745.8L1208.9,745.8z M1208.8,744.2L1208.8,744.2L1208.8,744.2z M1371.6,784.4
			c-7.1,0-12.9-5.6-13.1-12.8c-0.1-3.5,1.2-6.8,3.6-9.4c2.4-2.5,5.6-4,9.1-4.1l0,0c0.1,0,0.2,0,0.4,0c7.1,0,12.9,5.6,13.1,12.8
			c0,0.4,0,0.9,0,1.3l36.7,7.2l8.2-29.3c0.2-0.9,1.1-1.4,2-1.1c0.9,0.2,1.4,1.1,1.1,2l-8.6,30.7c-0.2,0.8-1,1.3-1.9,1.1l-38.2-7.5
			c-0.6,1.8-1.6,3.5-2.9,5c-2.4,2.5-5.6,4-9.1,4.1C1371.8,784.4,1371.7,784.4,1371.6,784.4z M1371.2,761.4c-2.6,0.1-5.1,1.2-6.9,3.1
			c-1.8,1.9-2.8,4.4-2.7,7.1c0.2,5.4,4.6,9.6,9.9,9.6c0.1,0,0.2,0,0.3,0c2.6-0.1,5.1-1.2,6.9-3.1c1.3-1.4,2.2-3,2.5-4.9
			c0,0,0,0,0-0.1c0,0,0,0,0-0.1c0.1-0.7,0.2-1.4,0.2-2.1C1381.2,765.6,1376.7,761.3,1371.2,761.4L1371.2,761.4z M1172.1,781.6
			c-7.1,0-12.9-5.6-13.1-12.8c0-0.3,0-0.5,0-0.8l-27.6-4.3l-4.6,12.4c-0.3,0.7-1.1,1.2-1.8,1l-41.3-8.6c-0.9-0.2-1.4-1-1.2-1.9
			c0.2-0.9,1-1.4,1.9-1.2l39.9,8.4l4.6-12.3c0.3-0.7,1-1.1,1.8-1l28.8,4.5c0.6-2,1.6-3.9,3.1-5.4c2.4-2.5,5.6-4,9.1-4.1l0,1.6l0-1.6
			c0.1,0,0.2,0,0.4,0c7.1,0,12.9,5.6,13.1,12.8c0.1,3.5-1.2,6.8-3.6,9.4c-2.4,2.5-5.6,4-9.1,4.1
			C1172.4,781.6,1172.3,781.6,1172.1,781.6z M1162.3,767c-0.1,0.6-0.1,1.2-0.1,1.8c0.2,5.5,4.7,9.8,10.2,9.6
			c2.6-0.1,5.1-1.2,6.9-3.1c1.8-1.9,2.8-4.4,2.7-7.1c-0.2-5.5-4.7-9.8-10.2-9.6c-2.6,0.1-5.1,1.2-6.9,3.1
			C1163.5,763.1,1162.6,764.9,1162.3,767C1162.3,766.9,1162.3,766.9,1162.3,767C1162.3,766.9,1162.3,767,1162.3,767z M1304.7,746.7
			c-7.1,0-12.9-5.6-13.1-12.8c-0.1-3.5,1.2-6.8,3.6-9.4c2.4-2.5,5.6-4,9.1-4.1l0,0c0.5,0,1,0,1.6,0.1l9.4-43.6
			c0.2-0.9,1-1.4,1.9-1.2c0.9,0.2,1.4,1,1.2,1.9l-9.4,43.6c5,1.8,8.6,6.4,8.8,12c0.1,3.5-1.2,6.8-3.6,9.4c-2.4,2.5-5.6,4-9.1,4.1
			C1305,746.7,1304.8,746.7,1304.7,746.7z M1304.4,723.7c-2.6,0.1-5.1,1.2-6.9,3.1c-1.8,1.9-2.8,4.4-2.7,7.1
			c0.2,5.5,4.7,9.8,10.2,9.6c2.6-0.1,5.1-1.2,6.9-3.1c1.8-1.9,2.8-4.4,2.7-7.1c-0.2-5.4-4.6-9.6-9.9-9.6
			C1304.6,723.7,1304.5,723.7,1304.4,723.7L1304.4,723.7z M1304.4,722.1L1304.4,722.1L1304.4,722.1z M1222,734.4
			c-7.1,0-12.9-5.6-13.1-12.8c-0.1-3.5,1.2-6.8,3.6-9.4c2.4-2.5,5.6-4,9.1-4.1l0,0c0.8,0,1.5,0,2.3,0.1l8.3-30.4
			c0.2-0.9,1.1-1.4,2-1.1c0.9,0.2,1.4,1.1,1.1,2l-8.3,30.4c4.6,1.9,8,6.4,8.1,11.8c0.1,3.5-1.2,6.8-3.6,9.4c-2.4,2.5-5.6,4-9.1,4.1
			C1222.2,734.4,1222.1,734.4,1222,734.4z M1221.6,711.4c-2.6,0.1-5.1,1.2-6.9,3.1c-1.8,1.9-2.8,4.4-2.7,7.1
			c0.2,5.5,4.7,9.8,10.2,9.6c2.6-0.1,5.1-1.2,6.9-3.1c1.8-1.9,2.8-4.4,2.7-7.1c-0.2-5.4-4.6-9.6-9.9-9.6
			C1221.8,711.4,1221.7,711.4,1221.6,711.4L1221.6,711.4z M1221.6,709.8L1221.6,709.8L1221.6,709.8z M1413,728.9
			c-0.1,0-0.3,0-0.4-0.1c-0.9-0.2-1.3-1.1-1.1-2l22.3-77.7c0.2-0.8,1-1.3,1.8-1.1l58.7,10c0.9,0.1,1.5,1,1.3,1.8s-1,1.5-1.8,1.3
			l-57.3-9.7l-22,76.3C1414.3,728.4,1413.7,728.9,1413,728.9z"/>
	</g>
	<g>
		<path class="st7" d="M1013.9,1029c-0.6,0-1.1-0.3-1.4-0.9l-15.2-29.1c-3.5,1-7.1,1.5-10.7,1.5c-0.1,0-0.1,0-0.2,0
			c-17.1,0-31.9-10.6-37.9-25.7l-28.5-4.6c-13.2-2.1-22.2-14.6-20.1-27.8c1-6.4,4.4-12,9.7-15.8c5.2-3.8,11.6-5.3,18-4.3l33.3,5.4
			c7.1-5.7,15.8-8.8,25.1-8.8c0.1,0,0.1,0,0.2,0c22.4,0,40.7,18.2,40.9,40.6c0.1,11.5-4.6,22.4-13,30.2l15.5,29.6
			c0.2,0.4,0.2,0.8,0.1,1.2c-0.1,0.4-0.4,0.7-0.8,0.9l-14.1,7.4C1014.4,1029,1014.1,1029,1013.9,1029z M998.1,995.6
			c0.6,0,1.1,0.3,1.4,0.9l15.1,28.8l11.2-5.9l-15.3-29.2c-0.3-0.7-0.2-1.5,0.4-2c8.3-7.2,13-17.6,12.9-28.6
			c-0.2-20.7-17-37.4-37.7-37.4c-0.1,0-0.1,0-0.2,0c-8.7,0-16.9,3-23.5,8.5c0,0-0.1,0-0.1,0.1c-0.7,0.5-1.3,1.1-1.9,1.7
			c-0.3,0.3-0.6,0.6-0.9,0.9c-1.4,1.4-2.7,2.9-3.8,4.5c-4.6,6.4-7,14-7,22.1c0,0,0,0,0,0c0,0,0,0,0,0c0,0,0,0,0,0c0,0,0,0,0,0
			c0,0,0,0,0,0l0,0c0,0.1,0,0.2,0,0.3v0c0,0,0,0,0,0c0,0,0,0,0,0c0,0,0,0,0,0c0,0,0,0,0,0c0,0,0,0,0,0c0.3,20.5,17.2,37.1,37.7,37.1
			c0.1,0,0.1,0,0.2,0c3.8,0,7.5-0.6,11-1.7C997.7,995.6,997.9,995.6,998.1,995.6z M902.9,943.3c-1.7,11.4,6.2,22,17.5,23.9l26.8,4.3
			c-1.1-3.6-1.7-7.3-1.7-11.1c0,0,0,0,0,0c0,0,0,0,0,0c0,0,0,0,0,0c0,0,0,0,0,0c0-0.1,0-0.2,0-0.3c0,0,0,0,0,0c0,0,0,0,0,0
			c0,0,0,0,0,0l0,0c0,0,0,0,0,0c0,0,0,0,0,0c0,0,0,0,0,0c0,0,0,0,0,0c-0.1-8.6,2.5-16.9,7.4-23.8c1.4-2,3-3.9,4.8-5.6l-30.7-4.9
			c-5.5-0.9-11.1,0.4-15.6,3.7c-4.5,3.3-7.4,8-8.4,13.4C903,943,903,943.1,902.9,943.3z M986.3,985.3c-14,0-25.4-11.3-25.5-25.4
			c-0.1-6.8,2.5-13.2,7.3-18.1c4.8-4.8,11.1-7.5,17.9-7.5l0,1.6l0-1.6c0,0,0.1,0,0.1,0c14,0,25.4,11.3,25.5,25.4
			c0.1,6.8-2.5,13.2-7.3,18.1c-4.8,4.8-11.1,7.5-17.9,7.5C986.4,985.3,986.4,985.3,986.3,985.3z M986.2,937.5c0,0-0.1,0-0.1,0
			c-5.9,0-11.5,2.4-15.7,6.6c-4.2,4.2-6.4,9.8-6.4,15.8c0.1,12.3,10.1,22.2,22.3,22.2c0,0,0.1,0,0.1,0c5.9,0,11.5-2.4,15.7-6.6
			c4.2-4.2,6.4-9.8,6.4-15.8C1008.4,947.4,998.4,937.5,986.2,937.5z"/>
	</g>
	<g>
		<path class="st7" d="M1084.4,612.3c-3.7,0-7.5-0.3-11.3-0.9c-20.2-3.2-36.4-14.6-41.3-29.2c-0.2-0.6,0-1.2,0.4-1.7
			c12-11.7,32.7-17.3,52.8-14.1c20.2,3.2,36.4,14.6,41.3,29.2c0.2,0.6,0,1.2-0.4,1.7C1116.2,606.9,1100.6,612.3,1084.4,612.3z
			 M1035.2,582.2c4.9,13,19.8,23.2,38.4,26.1c18.7,3,37.9-2,49.3-12.5c-4.9-13-19.8-23.2-38.4-26.1
			C1065.9,566.7,1046.6,571.6,1035.2,582.2z"/>
	</g>
	<g>
		<path class="st7" d="M1076.7,608.8c-1,0-1.9-0.1-2.9-0.2c-4.8-0.8-8.9-3.4-11.5-7.4c-2.8-4.3-3.6-9.9-2.1-15.4
			c2.9-10.7,13.7-18.1,24-16.5l0,0c4.8,0.8,8.9,3.4,11.5,7.4c2.8,4.3,3.6,9.9,2.1,15.4C1095.2,601.8,1086.1,608.8,1076.7,608.8z
			 M1081.4,572.3c-7.9,0-15.7,6-18,14.4c-1.2,4.6-0.6,9.2,1.7,12.8c2.1,3.2,5.4,5.4,9.3,6c8.7,1.4,17.9-5,20.4-14.2
			c1.3-4.6,0.6-9.2-1.7-12.8c-2.1-3.2-5.4-5.4-9.3-6l0,0C1083,572.4,1082.2,572.3,1081.4,572.3z"/>
	</g>
	<g>
		<path class="st7" d="M1129.9,643.9c-0.1,0-0.2,0-0.3,0l-34.5-5.4c-0.9-0.1-1.5-1-1.3-1.8c0.1-0.9,1-1.5,1.8-1.3l33,5.2l9.5-34.7
			c0.2-0.9,1.1-1.4,2-1.1c0.9,0.2,1.4,1.1,1.1,2l-9.9,36.1C1131.3,643.4,1130.7,643.9,1129.9,643.9z M1038.8,629.5
			c-0.1,0-0.2,0-0.3,0l-34.5-5.4c-0.5-0.1-0.9-0.3-1.1-0.7c-0.2-0.4-0.3-0.9-0.2-1.3l9.9-36.1c0.2-0.9,1.1-1.4,2-1.1
			c0.9,0.2,1.4,1.1,1.1,2l-9.4,34.4l32.7,5.2c0.9,0.1,1.5,1,1.3,1.8C1040.3,629,1039.6,629.5,1038.8,629.5z M1143.9,593.1
			c-0.1,0-0.3,0-0.4-0.1c-0.9-0.2-1.4-1.1-1.1-2l9.4-34.4l-32.7-5.2c-0.9-0.1-1.5-1-1.3-1.8c0.1-0.9,1-1.5,1.8-1.3l34.5,5.4
			c0.5,0.1,0.9,0.3,1.1,0.7c0.2,0.4,0.3,0.9,0.2,1.3l-9.9,36.1C1145.2,592.7,1144.6,593.1,1143.9,593.1z M1018.3,573.3
			c-0.1,0-0.3,0-0.4-0.1c-0.9-0.2-1.4-1.1-1.1-2l9.9-36.1c0.2-0.8,1-1.3,1.8-1.2l34.5,5.4c0.9,0.1,1.5,1,1.3,1.8
			c-0.1,0.9-1,1.5-1.8,1.3l-33-5.2l-9.5,34.7C1019.7,572.9,1019,573.3,1018.3,573.3z"/>
	</g>
</g>
</svg>
