<?xml version="1.0" encoding="utf-8"?>
<!-- Generator: Adobe Illustrator 26.5.0, SVG Export Plug-In . SVG Version: 6.00 Build 0)  -->
<svg version="1.1" xmlns="http://www.w3.org/2000/svg" xmlns:xlink="http://www.w3.org/1999/xlink" x="0px" y="0px"
	 viewBox="0 0 2500 2500" style="enable-background:new 0 0 2500 2500;" xml:space="preserve">
<style type="text/css">
	.st0{fill:#EBE9EA;}
	.st1{fill:#FFFFFF;}
	.st2{fill:#CFF500;}
	.st3{fill:#EFEFEF;}
	.st4{fill:#A66CFF;}
	.st5{fill:#F8F9FB;}
</style>
<g id="Background">
	<g>
		<rect y="0" class="st0" width="2498" height="2500"/>
	</g>
</g>
<g id="Object">
	<g>
		<g>
			<g>
				<g>
					<polygon points="1642.7,135.8 1643.9,134.7 1642.7,135.8 					"/>
				</g>
				<g>
					<polygon points="1642.7,135.8 1642.7,135.8 1642.7,135.8 					"/>
				</g>
			</g>
		</g>
		<g>
			<g>
				<path class="st1" d="M650,904.7l-20.1,130.8l87.4,5.8l-1.6-92.7c0,0,49.3,18.1,72.2-12c31-40.7-4.8-142.6-12.2-162.5l-131.5-5.8
					L650,904.7z"/>
				<path d="M723.1,1047.5l-99.9-6.6l21-136.5l-6.1-142.1l141.6,6.3l1.3,3.5c7.7,20.5,44.3,124.7,11.4,168
					C782,954,764.8,960.8,743,959.7c-8.5-0.4-16.1-1.9-21.4-3.3L723.1,1047.5z M636.5,1030.3l75,5l-1.6-94.9l7.8,2.9
					c0.4,0.2,45.7,16.2,65.7-10.1c11.9-15.7,14.4-44.9,7.2-84.5c-5.4-29.6-14.7-57.2-19-68.9l-121.5-5.4l5.6,130.7L636.5,1030.3z"/>
			</g>
			<g>
				<g>
					<path d="M835.2,762c-1.1-27.8-41.6-28.7-41.6-28.7c13.3-3.9,17-11.6,16.2-17.5c-4.7-33.6-71.2-7.3-71.2-7.3
						c12.9-14-7.4-16.6-7.4-16.6c-24.8-1.1-67.6,18.7-97.2,34.2c-10.3,0.9-110.1,17.7,7.4,201.1c0,0,43.6-10.4,42.8-58
						c0,0-22.2-33.9,9-41.8c5.9-1.5,12.3,0.8,16.1,5.6c5.1,6.6,8.1,12.3,9.7,16.2c1.3,3,4.2,4.9,7.5,4.8l0,0
						c4.3-0.2,7.6-3.8,7.5-8.1l-1.1-27.9C789.5,812.5,836,781.6,835.2,762z"/>
				</g>
			</g>
		</g>
		<g>
			<g>
				<path class="st1" d="M914.2,2372.1H387.3c-20.3,0-36.7-16.4-36.7-36.7v-532.9c0-20.3,16.4-36.7,36.7-36.7h526.9
					c20.3,0,36.7,16.4,36.7,36.7v532.9C951,2355.7,934.5,2372.1,914.2,2372.1z"/>
				<path d="M914.2,2377.8H387.3c-23.4,0-42.5-19.1-42.5-42.5v-532.9c0-23.4,19.1-42.5,42.5-42.5h526.9c23.4,0,42.5,19.1,42.5,42.5
					v532.9C956.7,2358.8,937.7,2377.8,914.2,2377.8z M387.3,1771.5c-17.1,0-31,13.9-31,31v532.9c0,17.1,13.9,31,31,31h526.9
					c17.1,0,31-13.9,31-31v-532.9c0-17.1-13.9-31-31-31H387.3z"/>
			</g>
			<g>
				<g>
					<path class="st1" d="M418.7,2162.8h-55.7c-6.9,0-12.4-5.6-12.4-12.4l0,0c0-6.9,5.6-12.4,12.4-12.4h55.7V2162.8z"/>
					<path d="M424.5,2168.5h-61.4c-10,0-18.2-8.2-18.2-18.2c0-10,8.2-18.2,18.2-18.2h61.4V2168.5z M363.1,2143.6
						c-3.7,0-6.7,3-6.7,6.7c0,3.7,3,6.7,6.7,6.7H413v-13.4H363.1z"/>
				</g>
				<g>
					<path class="st1" d="M418.7,2111h-55.7c-6.9,0-12.4-5.6-12.4-12.4l0,0c0-6.9,5.6-12.4,12.4-12.4h55.7V2111z"/>
					<path d="M424.5,2116.7h-61.4c-10,0-18.2-8.2-18.2-18.2c0-10,8.2-18.2,18.2-18.2h61.4V2116.7z M363.1,2091.9
						c-3.7,0-6.7,3-6.7,6.7c0,3.7,3,6.7,6.7,6.7H413v-13.4H363.1z"/>
				</g>
				<g>
					<path class="st1" d="M418.7,2058h-55.7c-6.9,0-12.4-5.6-12.4-12.4l0,0c0-6.9,5.6-12.4,12.4-12.4h55.7V2058z"/>
					<path d="M424.5,2063.7h-61.4c-10,0-18.2-8.2-18.2-18.2c0-10,8.2-18.2,18.2-18.2h61.4V2063.7z M363.1,2038.9
						c-3.7,0-6.7,3-6.7,6.7s3,6.7,6.7,6.7H413v-13.4H363.1z"/>
				</g>
				<g>
					<path class="st1" d="M418.7,2005.3h-55.7c-6.9,0-12.4-5.6-12.4-12.4l0,0c0-6.9,5.6-12.4,12.4-12.4h55.7V2005.3z"/>
					<path d="M424.5,2011h-61.4c-10,0-18.2-8.2-18.2-18.2s8.2-18.2,18.2-18.2h61.4V2011z M363.1,1986.1c-3.7,0-6.7,3-6.7,6.7
						c0,3.7,3,6.7,6.7,6.7H413v-13.4H363.1z"/>
				</g>
			</g>
			<g>
				<g>
					<path class="st1" d="M560.5,1837.4v-55.7c0-6.9,5.6-12.4,12.4-12.4l0,0c6.9,0,12.4,5.6,12.4,12.4v55.7H560.5z"/>
					<path d="M591.1,1843.1h-36.3v-61.4c0-10,8.2-18.2,18.2-18.2c10,0,18.2,8.2,18.2,18.2V1843.1z M566.2,1831.6h13.4v-49.9
						c0-3.7-3-6.7-6.7-6.7c-3.7,0-6.7,3-6.7,6.7V1831.6z"/>
				</g>
				<g>
					<path class="st1" d="M612.3,1837.4v-55.7c0-6.9,5.6-12.4,12.4-12.4h0c6.9,0,12.4,5.6,12.4,12.4v55.7H612.3z"/>
					<path d="M642.9,1843.1h-36.3v-61.4c0-10,8.2-18.2,18.2-18.2c10,0,18.2,8.2,18.2,18.2V1843.1z M618,1831.6h13.4v-49.9
						c0-3.7-3-6.7-6.7-6.7c-3.7,0-6.7,3-6.7,6.7V1831.6z"/>
				</g>
				<g>
					<path class="st1" d="M665.3,1837.4v-55.7c0-6.9,5.6-12.4,12.4-12.4l0,0c6.9,0,12.4,5.6,12.4,12.4v55.7H665.3z"/>
					<path d="M695.9,1843.1h-36.3v-61.4c0-10,8.2-18.2,18.2-18.2s18.2,8.2,18.2,18.2V1843.1z M671,1831.6h13.4v-49.9
						c0-3.7-3-6.7-6.7-6.7c-3.7,0-6.7,3-6.7,6.7V1831.6z"/>
				</g>
				<g>
					<path class="st1" d="M718,1837.4v-55.7c0-6.9,5.6-12.4,12.4-12.4l0,0c6.9,0,12.4,5.6,12.4,12.4v55.7H718z"/>
					<path d="M748.6,1843.1h-36.3v-61.4c0-10,8.2-18.2,18.2-18.2c10,0,18.2,8.2,18.2,18.2V1843.1z M723.7,1831.6h13.4v-49.9
						c0-3.7-3-6.7-6.7-6.7s-6.7,3-6.7,6.7V1831.6z"/>
				</g>
			</g>
			<g>
				<g>
					<path class="st1" d="M882.7,2162.8h55.7c6.9,0,12.4-5.6,12.4-12.4l0,0c0-6.9-5.6-12.4-12.4-12.4h-55.7V2162.8z"/>
					<path d="M938.4,2168.5H877v-36.3h61.4c10,0,18.2,8.2,18.2,18.2C956.6,2160.4,948.4,2168.5,938.4,2168.5z M888.4,2157h49.9
						c3.7,0,6.7-3,6.7-6.7c0-3.7-3-6.7-6.7-6.7h-49.9V2157z"/>
				</g>
				<g>
					<path class="st1" d="M882.7,2111h55.7c6.9,0,12.4-5.6,12.4-12.4l0,0c0-6.9-5.6-12.4-12.4-12.4h-55.7V2111z"/>
					<path d="M938.4,2116.7H877v-36.3h61.4c10,0,18.2,8.2,18.2,18.2C956.6,2108.6,948.4,2116.7,938.4,2116.7z M888.4,2105.3h49.9
						c3.7,0,6.7-3,6.7-6.7c0-3.7-3-6.7-6.7-6.7h-49.9V2105.3z"/>
				</g>
				<g>
					<path class="st1" d="M882.7,2058h55.7c6.9,0,12.4-5.6,12.4-12.4l0,0c0-6.9-5.6-12.4-12.4-12.4h-55.7V2058z"/>
					<path d="M938.4,2063.7H877v-36.3h61.4c10,0,18.2,8.2,18.2,18.2C956.6,2055.6,948.4,2063.7,938.4,2063.7z M888.4,2052.3h49.9
						c3.7,0,6.7-3,6.7-6.7s-3-6.7-6.7-6.7h-49.9V2052.3z"/>
				</g>
				<g>
					<path class="st1" d="M882.7,2005.3h55.7c6.9,0,12.4-5.6,12.4-12.4l0,0c0-6.9-5.6-12.4-12.4-12.4h-55.7V2005.3z"/>
					<path d="M938.4,2011H877v-36.3h61.4c10,0,18.2,8.2,18.2,18.2S948.4,2011,938.4,2011z M888.4,1999.5h49.9c3.7,0,6.7-3,6.7-6.7
						c0-3.7-3-6.7-6.7-6.7h-49.9V1999.5z"/>
				</g>
			</g>
			<g>
				<g>
					<path class="st1" d="M560.5,2303.3v55.7c0,6.9,5.6,12.4,12.4,12.4l0,0c6.9,0,12.4-5.6,12.4-12.4v-55.7H560.5z"/>
					<path d="M572.9,2377.1c-10,0-18.2-8.2-18.2-18.2v-61.4h36.3v61.4C591.1,2369,583,2377.1,572.9,2377.1z M566.2,2309v49.9
						c0,3.7,3,6.7,6.7,6.7c3.7,0,6.7-3,6.7-6.7V2309H566.2z"/>
				</g>
				<g>
					<path class="st1" d="M612.3,2303.3v55.7c0,6.9,5.6,12.4,12.4,12.4h0c6.9,0,12.4-5.6,12.4-12.4v-55.7H612.3z"/>
					<path d="M624.7,2377.1c-10,0-18.2-8.2-18.2-18.2v-61.4h36.3v61.4C642.9,2369,634.7,2377.1,624.7,2377.1z M618,2309v49.9
						c0,3.7,3,6.7,6.7,6.7c3.7,0,6.7-3,6.7-6.7V2309H618z"/>
				</g>
				<g>
					<path class="st1" d="M665.3,2303.3v55.7c0,6.9,5.6,12.4,12.4,12.4l0,0c6.9,0,12.4-5.6,12.4-12.4v-55.7H665.3z"/>
					<path d="M677.7,2377.1c-10,0-18.2-8.2-18.2-18.2v-61.4h36.3v61.4C695.9,2369,687.7,2377.1,677.7,2377.1z M671,2309v49.9
						c0,3.7,3,6.7,6.7,6.7c3.7,0,6.7-3,6.7-6.7V2309H671z"/>
				</g>
				<g>
					<path class="st1" d="M718,2303.3v55.7c0,6.9,5.6,12.4,12.4,12.4l0,0c6.9,0,12.4-5.6,12.4-12.4v-55.7H718z"/>
					<path d="M730.5,2377.1c-10,0-18.2-8.2-18.2-18.2v-61.4h36.3v61.4C748.6,2369,740.5,2377.1,730.5,2377.1z M723.7,2309v49.9
						c0,3.7,3,6.7,6.7,6.7s6.7-3,6.7-6.7V2309H723.7z"/>
				</g>
			</g>
			<g>
				<path class="st1" d="M478.1,1837.1h345.3c35.5,0,64.3,28.8,64.3,64.3v340.2c0,35.5-28.8,64.3-64.3,64.3H478.1
					c-35.5,0-64.3-28.8-64.3-64.3v-340.2C413.8,1865.9,442.6,1837.1,478.1,1837.1z"/>
				<path d="M823.4,2311.6H478.1c-38.6,0-70-31.4-70-70v-340.2c0-38.6,31.4-70,70-70h345.3c38.6,0,70,31.4,70,70v340.2
					C893.5,2280.2,862.1,2311.6,823.4,2311.6z M478.1,1842.8c-32.3,0-58.6,26.3-58.6,58.6v340.2c0,32.3,26.3,58.6,58.6,58.6h345.3
					c32.3,0,58.6-26.3,58.6-58.6v-340.2c0-32.3-26.3-58.6-58.6-58.6H478.1z"/>
			</g>
			<g>
				<g>
					<rect x="840.4" y="2169.3" class="st1" width="47.4" height="14.6"/>
					<path d="M893.5,2189.6h-58.9v-26.1h58.9V2189.6z M846.1,2178.2H882v-3.1h-35.9V2178.2z"/>
				</g>
				<g>
					<path class="st1" d="M817.2,2159.7h15.1c9.3,0,16.9,7.6,16.9,16.9l0,0c0,9.3-7.6,16.9-16.9,16.9h-15.1V2159.7z"/>
					<path d="M832.3,2199.2h-20.9V2154h20.9c12.5,0,22.6,10.2,22.6,22.6C855,2189.1,844.8,2199.2,832.3,2199.2z M823,2187.8h9.4
						c6.2,0,11.2-5,11.2-11.2c0-6.2-5-11.2-11.2-11.2H823V2187.8z"/>
				</g>
				<g>
					<rect x="840.4" y="2117.3" class="st1" width="47.4" height="14.6"/>
					<path d="M893.5,2137.6h-58.9v-26.1h58.9V2137.6z M846.1,2126.1H882v-3.1h-35.9V2126.1z"/>
				</g>
				<g>
					<path class="st1" d="M817.2,2107.7h15.1c9.3,0,16.9,7.6,16.9,16.9l0,0c0,9.3-7.6,16.9-16.9,16.9h-15.1V2107.7z"/>
					<path d="M832.3,2147.2h-20.9v-45.3h20.9c12.5,0,22.6,10.2,22.6,22.6C855,2137.1,844.8,2147.2,832.3,2147.2z M823,2135.7h9.4
						c6.2,0,11.2-5,11.2-11.2c0-6.2-5-11.2-11.2-11.2H823V2135.7z"/>
				</g>
				<g>
					<rect x="840.4" y="2064.9" class="st1" width="47.4" height="14.6"/>
					<path d="M893.5,2085.2h-58.9v-26.1h58.9V2085.2z M846.1,2073.8H882v-3.1h-35.9V2073.8z"/>
				</g>
				<g>
					<path class="st1" d="M817.2,2055.3h15.1c9.3,0,16.9,7.6,16.9,16.9l0,0c0,9.3-7.6,16.9-16.9,16.9h-15.1V2055.3z"/>
					<path d="M832.3,2094.8h-20.9v-45.3h20.9c12.5,0,22.6,10.2,22.6,22.6C855,2084.7,844.8,2094.8,832.3,2094.8z M823,2083.4h9.4
						c6.2,0,11.2-5,11.2-11.2c0-6.2-5-11.2-11.2-11.2H823V2083.4z"/>
				</g>
			</g>
			<g>
				<g>
					<rect x="644.5" y="1837.4" class="st1" width="14.6" height="47.4"/>
					<path d="M664.8,1890.5h-26.1v-58.9h26.1V1890.5z M650.3,1879h3.1v-35.9h-3.1V1879z"/>
				</g>
				<g>
					<path class="st1" d="M668.7,1907.9v-15.1c0-9.3-7.6-16.9-16.9-16.9h0c-9.3,0-16.9,7.6-16.9,16.9v15.1H668.7z"/>
					<path d="M674.5,1913.6h-45.3v-20.9c0-12.5,10.2-22.6,22.6-22.6c12.5,0,22.6,10.2,22.6,22.6V1913.6z M640.7,1902.2H663v-9.4
						c0-6.2-5-11.2-11.2-11.2c-6.2,0-11.2,5-11.2,11.2V1902.2z"/>
				</g>
				<g>
					<rect x="696.5" y="1837.4" class="st1" width="14.6" height="47.4"/>
					<path d="M716.9,1890.5h-26.1v-58.9h26.1V1890.5z M702.3,1879h3.1v-35.9h-3.1V1879z"/>
				</g>
				<g>
					<path class="st1" d="M720.7,1907.9v-15.1c0-9.3-7.6-16.9-16.9-16.9h0c-9.3,0-16.9,7.6-16.9,16.9v15.1H720.7z"/>
					<path d="M726.5,1913.6h-45.3v-20.9c0-12.5,10.2-22.6,22.6-22.6c12.5,0,22.6,10.2,22.6,22.6V1913.6z M692.7,1902.2H715v-9.4
						c0-6.2-5-11.2-11.2-11.2c-6.2,0-11.2,5-11.2,11.2V1902.2z"/>
				</g>
				<g>
					<rect x="748.9" y="1837.4" class="st1" width="14.6" height="47.4"/>
					<path d="M769.2,1890.5h-26.1v-58.9h26.1V1890.5z M754.7,1879h3.1v-35.9h-3.1V1879z"/>
				</g>
				<g>
					<path class="st1" d="M773.1,1907.9v-15.1c0-9.3-7.6-16.9-16.9-16.9h0c-9.3,0-16.9,7.6-16.9,16.9v15.1H773.1z"/>
					<path d="M778.8,1913.6h-45.3v-20.9c0-12.5,10.2-22.6,22.6-22.6c12.5,0,22.6,10.2,22.6,22.6V1913.6z M745,1902.2h22.3v-9.4
						c0-6.2-5-11.2-11.2-11.2c-6.2,0-11.2,5-11.2,11.2V1902.2z"/>
				</g>
			</g>
			<g>
				<g>
					<rect x="536.8" y="2258.1" class="st1" width="14.6" height="47.4"/>
					<path d="M557.1,2311.2H531v-58.9h26.1V2311.2z M542.5,2299.7h3.1v-35.9h-3.1V2299.7z"/>
				</g>
				<g>
					<path class="st1" d="M560.9,2234.9v15.1c0,9.3-7.6,16.9-16.9,16.9l0,0c-9.3,0-16.9-7.6-16.9-16.9v-15.1H560.9z"/>
					<path d="M544,2272.7c-12.5,0-22.6-10.2-22.6-22.6v-20.9h45.3v20.9C566.7,2262.5,556.5,2272.7,544,2272.7z M532.9,2240.6v9.4
						c0,6.2,5,11.2,11.2,11.2s11.2-5,11.2-11.2v-9.4H532.9z"/>
				</g>
				<g>
					<rect x="588.8" y="2258.1" class="st1" width="14.6" height="47.4"/>
					<path d="M609.1,2311.2H583v-58.9h26.1V2311.2z M594.5,2299.7h3.1v-35.9h-3.1V2299.7z"/>
				</g>
				<g>
					<path class="st1" d="M613,2234.9v15.1c0,9.3-7.6,16.9-16.9,16.9l0,0c-9.3,0-16.9-7.6-16.9-16.9v-15.1H613z"/>
					<path d="M596.1,2272.7c-12.5,0-22.6-10.2-22.6-22.6v-20.9h45.3v20.9C618.7,2262.5,608.5,2272.7,596.1,2272.7z M584.9,2240.6
						v9.4c0,6.2,5,11.2,11.2,11.2s11.2-5,11.2-11.2v-9.4H584.9z"/>
				</g>
				<g>
					<rect x="641.1" y="2258.1" class="st1" width="14.6" height="47.4"/>
					<path d="M661.5,2311.2h-26.1v-58.9h26.1V2311.2z M646.9,2299.7h3.1v-35.9h-3.1V2299.7z"/>
				</g>
				<g>
					<path class="st1" d="M665.3,2234.9v15.1c0,9.3-7.6,16.9-16.9,16.9l0,0c-9.3,0-16.9-7.6-16.9-16.9v-15.1H665.3z"/>
					<path d="M648.4,2272.7c-12.5,0-22.6-10.2-22.6-22.6v-20.9h45.3v20.9C671.1,2262.5,660.9,2272.7,648.4,2272.7z M637.3,2240.6
						v9.4c0,6.2,5,11.2,11.2,11.2s11.2-5,11.2-11.2v-9.4H637.3z"/>
				</g>
			</g>
			<g>
				<rect x="413.6" y="2064.8" class="st1" width="47.4" height="14.6"/>
				<path d="M466.7,2085.1h-58.9v-26.1h58.9V2085.1z M419.3,2073.7h35.9v-3.1h-35.9V2073.7z"/>
			</g>
			<g>
				<path class="st1" d="M484.1,2055.2H469c-9.3,0-16.9,7.6-16.9,16.9l0,0c0,9.3,7.6,16.9,16.9,16.9h15.1V2055.2z"/>
				<path d="M489.9,2094.7H469c-12.5,0-22.6-10.2-22.6-22.6c0-12.5,10.2-22.6,22.6-22.6h20.9V2094.7z M469,2060.9
					c-6.2,0-11.2,5-11.2,11.2c0,6.2,5,11.2,11.2,11.2h9.4v-22.3H469z"/>
			</g>
			<g>
				<rect x="413.6" y="2011.9" class="st1" width="47.4" height="14.6"/>
				<path d="M466.7,2032.2h-58.9v-26.1h58.9V2032.2z M419.3,2020.7h35.9v-3.1h-35.9V2020.7z"/>
			</g>
			<g>
				<path class="st1" d="M484.1,2002.3H469c-9.3,0-16.9,7.6-16.9,16.9l0,0c0,9.3,7.6,16.9,16.9,16.9h15.1V2002.3z"/>
				<path d="M489.9,2041.8H469c-12.5,0-22.6-10.2-22.6-22.6s10.2-22.6,22.6-22.6h20.9V2041.8z M469,2008c-6.2,0-11.2,5-11.2,11.2
					c0,6.2,5,11.2,11.2,11.2h9.4V2008H469z"/>
			</g>
			<g>
				<rect x="413.6" y="1958.1" class="st1" width="47.4" height="14.6"/>
				<path d="M466.7,1978.4h-58.9v-26.1h58.9V1978.4z M419.3,1966.9h35.9v-3.1h-35.9V1966.9z"/>
			</g>
			<g>
				<path class="st1" d="M484.1,1948.5H469c-9.3,0-16.9,7.6-16.9,16.9l0,0c0,9.3,7.6,16.9,16.9,16.9h15.1V1948.5z"/>
				<path d="M489.9,1988H469c-12.5,0-22.6-10.2-22.6-22.6c0-12.5,10.2-22.6,22.6-22.6h20.9V1988z M469,1954.2
					c-6.2,0-11.2,5-11.2,11.2c0,6.2,5,11.2,11.2,11.2h9.4v-22.3H469z"/>
			</g>
			<g>
				<path class="st2" d="M511,1904.9h279.5c15.8,0,28.6,12.8,28.6,28.6v275.9c0,15.8-12.8,28.6-28.6,28.6H511
					c-15.8,0-28.6-12.8-28.6-28.6v-275.9C482.4,1917.7,495.2,1904.9,511,1904.9z"/>
				<path d="M790.6,2243.8H511c-18.9,0-34.3-15.4-34.3-34.3v-275.9c0-18.9,15.4-34.3,34.3-34.3h279.5c18.9,0,34.3,15.4,34.3,34.3
					v275.9C824.9,2228.4,809.5,2243.8,790.6,2243.8z M511,1910.6c-12.6,0-22.9,10.3-22.9,22.9v275.9c0,12.6,10.3,22.9,22.9,22.9
					h279.5c12.6,0,22.9-10.3,22.9-22.9v-275.9c0-12.6-10.3-22.9-22.9-22.9H511z"/>
			</g>
			<g>
				<path d="M591.4,1989.3h65.3l59.6,162.3h-53.7l-12.1-41h-52.8l-12.1,41H532L591.4,1989.3z M643.3,2080.4l-19.1-64.4l-19.3,64.4
					H643.3z"/>
			</g>
			<g>
				<path d="M770.4,2151.6h-45.1v-162.3h45.1V2151.6z"/>
			</g>
			<g>
				<circle class="st1" cx="525.2" cy="1948.5" r="11.3"/>
				<path d="M525.2,1965.5c-9.4,0-17-7.6-17-17c0-9.4,7.6-17,17-17c9.4,0,17,7.6,17,17C542.2,1957.9,534.6,1965.5,525.2,1965.5z
					 M525.2,1943c-3.1,0-5.5,2.5-5.5,5.5c0,3.1,2.5,5.5,5.5,5.5s5.5-2.5,5.5-5.5C530.7,1945.5,528.2,1943,525.2,1943z"/>
			</g>
			<g>
				<circle class="st1" cx="774.6" cy="1948.5" r="11.3"/>
				<path d="M774.6,1965.5c-9.4,0-17-7.6-17-17c0-9.4,7.6-17,17-17c9.4,0,17,7.6,17,17C791.6,1957.9,784,1965.5,774.6,1965.5z
					 M774.6,1943c-3.1,0-5.5,2.5-5.5,5.5c0,3.1,2.5,5.5,5.5,5.5s5.5-2.5,5.5-5.5C780.2,1945.5,777.7,1943,774.6,1943z"/>
			</g>
			<g>
				<circle class="st1" cx="776.7" cy="2195.6" r="11.3"/>
				<path d="M776.7,2212.6c-9.4,0-17-7.6-17-17c0-9.4,7.6-17,17-17c9.4,0,17,7.6,17,17C793.7,2205,786.1,2212.6,776.7,2212.6z
					 M776.7,2190c-3.1,0-5.5,2.5-5.5,5.5c0,3.1,2.5,5.5,5.5,5.5s5.5-2.5,5.5-5.5C782.2,2192.5,779.8,2190,776.7,2190z"/>
			</g>
			<g>
				<circle class="st1" cx="525" cy="2194.9" r="11.3"/>
				<path d="M525,2211.9c-9.4,0-17-7.6-17-17s7.6-17,17-17c9.4,0,17,7.6,17,17S534.4,2211.9,525,2211.9z M525,2189.3
					c-3.1,0-5.5,2.5-5.5,5.5c0,3.1,2.5,5.5,5.5,5.5s5.5-2.5,5.5-5.5C530.5,2191.8,528.1,2189.3,525,2189.3z"/>
			</g>
		</g>
		<g>
			<path class="st1" d="M1450,800.9L1450,800.9c22.2,3,37.9,23.3,35.1,45.5c-7.3,58.5-16.4,163.8,8.3,195.2c0,0,21.1,35.2,82.5,41.6
				l30.5,1.7c24.9,1.4,44.5,21.7,44.9,46.6v0c0.5,27.3-21.9,49.4-49.2,48.4c-69.7-2.5-189.7-25-208.2-148.9
				c-7.8-52.2-7-94,10.3-196.4C1408,812.8,1428.2,798,1450,800.9z"/>
			<path d="M1603.9,1185.6c-0.6,0-1.3,0-1.9,0c-33.8-1.2-83.1-7.3-125.8-29.6c-49.9-26.1-79.5-67.9-87.9-124.2
				c-7.5-50.4-7.8-91,10.3-198.2c4.2-24.9,27.1-41.7,52.1-38.4c25.2,3.4,43.2,26.7,40,51.9c-12.5,99.7-9.9,169.2,7.2,190.9l0.4,0.6
				c0.2,0.3,20.7,32.8,78,38.8l30.4,1.7c27.7,1.5,49.8,24.4,50.4,52.2c0.3,14.8-5.4,28.6-15.9,39
				C1631.1,1180.2,1618,1185.6,1603.9,1185.6z M1444.5,806.2c-16.9,0-31.6,12.1-34.5,29.2c-17.9,105.6-17.6,145.4-10.3,194.6
				c17.9,119.7,134.7,141.6,202.7,144c11.6,0.4,22.5-3.8,30.8-12c8.3-8.1,12.7-19,12.5-30.6c-0.4-21.8-17.8-39.8-39.5-40.9
				l-30.8-1.7c-61-6.3-84.1-40-86.6-44c-13.5-17.5-26-66.3-9.3-199.2c2.4-19-11.1-36.6-30.2-39.1l0,0
				C1447.6,806.4,1446,806.2,1444.5,806.2z"/>
		</g>
		<g>
			<path d="M1473.3,938.7c-27.5-30.3-79-4.1-79.5-3.8l-5.3-10.2c0.6-0.3,14.9-7.7,33.3-10.8c25.2-4.3,46,1.7,60,17.1L1473.3,938.7z"
				/>
		</g>
		<g>
			<path d="M1400,1041l-9.6-6.2c0.3-0.5,33.8-50.9,91.7-35l-3,11.1C1429.3,997.1,1401.1,1039.2,1400,1041z"/>
		</g>
		<g>
			<path d="M1457.8,1142.2c0-0.7-2.9-69.9,58-82.7l2.4,11.2c-21.3,4.5-36,17.5-43.7,38.8c-5.9,16.5-5.2,31.9-5.2,32L1457.8,1142.2z"
				/>
		</g>
		<g>
			<path d="M1549.7,1177.3c-0.3-0.7-26.5-67.3,23-99l6.2,9.7c-17.2,11-25.7,28.4-25.1,51.7c0.5,18.1,6.4,33.1,6.5,33.3
				L1549.7,1177.3z"/>
		</g>
		<g>
			<path class="st1" d="M1430.8,825.5l-1.2,1c-8.7,7.4-21.8,5.9-28.7-3.3c-15.3-20.3-33.7-58.4-3.6-101.2
				c6.2-8.9,18.4-11.2,27.4-5.1l0,0c7.8,5.3,10.9,15.5,7.1,24.2c-6.3,14.2-12,37,2.6,58.2C1440,807.6,1438.5,818.9,1430.8,825.5z"/>
			<path d="M1416.9,837c-0.9,0-1.9-0.1-2.8-0.2c-7-0.8-13.5-4.5-17.7-10.1c-15.3-20.4-36.2-61.6-3.7-107.9
				c8-11.4,23.8-14.4,35.3-6.6c10.2,7,14.1,20.1,9.1,31.3c-6.1,13.7-10.7,34,2.1,52.7c7.4,10.8,5.5,25.3-4.5,33.7l-1.2,1
				C1428.7,834.9,1422.9,837,1416.9,837z M1413.7,719.3c-4.5,0-8.9,2.1-11.7,6.1c-26.9,38.4-13,72.6,3.5,94.5
				c2.4,3.2,5.9,5.2,9.8,5.6c3.9,0.4,7.6-0.7,10.6-3.3l1.2-1c5.5-4.7,6.5-12.6,2.5-18.5c-12.3-17.9-13.4-40.6-3.1-63.8
				c2.7-6.1,0.6-13.3-5.1-17.1C1419.1,720.1,1416.4,719.3,1413.7,719.3z"/>
		</g>
		<g>
			<path class="st1" d="M1719.3,962.1l5.6,20.6c4.7,17,20.3,28.7,38,28.2l206.3-5.3c15.5-0.4,29.3-10.1,34.9-24.7l10.1-26.4
				L1719.3,962.1z"/>
			<path d="M1761.9,1016.6c-19.9,0-37.2-13.2-42.5-32.4l-7.6-27.6l310.7-7.9l-13.1,34.4c-6.4,16.8-22.1,27.9-40.1,28.3l-206.3,5.3
				C1762.6,1016.6,1762.3,1016.6,1761.9,1016.6z M1726.7,967.7l3.7,13.5c4,14.5,17.2,24.4,32.3,24l206.3-5.3
				c13.3-0.3,24.9-8.6,29.7-21l7-18.4L1726.7,967.7z"/>
		</g>
		<g>
			
				<ellipse transform="matrix(0.9997 -2.552350e-02 2.552350e-02 0.9997 -20.6073 41.6515)" class="st1" cx="1621.3" cy="828.1" rx="71.9" ry="89"/>
			<path d="M1622.1,922.8c-42.1,0-77.1-41.2-78.4-92.8c-0.6-25.1,6.7-48.9,20.6-67.1c14.2-18.6,33.6-29.1,54.6-29.6
				c21-0.5,40.8,9,56,26.8c14.8,17.5,23.4,40.9,24,66l0,0c0.6,25.1-6.7,48.9-20.6,67.1c-14.2,18.6-33.6,29.1-54.6,29.6
				C1623.2,922.8,1622.6,922.8,1622.1,922.8z M1620.6,744.8c-0.5,0-0.9,0-1.4,0c-17.4,0.4-33.7,9.4-45.7,25.1
				c-12.3,16.1-18.8,37.4-18.3,59.8c1.2,45.3,31,81.6,66.9,81.6c0.5,0,0.9,0,1.4,0c17.4-0.4,33.7-9.4,45.7-25.1
				c12.3-16.1,18.8-37.4,18.3-59.8l0,0c-0.6-22.5-8.1-43.4-21.3-58.8C1653.6,752.8,1637.5,744.8,1620.6,744.8z"/>
		</g>
		<g>
			<path class="st1" d="M1734.4,974.5l256.8-6.6c73.7-1.9,131.9-63.2,130.1-136.9v0c-3.7-144-123.4-257.7-267.3-254h0
				c-145.9,3.7-260.3,126.4-253.8,272.2v0C1603.3,920.6,1663,976.3,1734.4,974.5z"/>
			<path d="M1731,980.2c-34.7,0-67.7-13-93.2-36.8c-26.4-24.6-41.8-58-43.4-94c-3.2-72.1,22.1-140.8,71.3-193.5
				c49.2-52.7,116-82.8,188.1-84.7c146.9-3.7,269.4,112.7,273.2,259.6c2,76.8-58.9,140.8-135.7,142.8l-256.8,6.6
				C1733.4,980.2,1732.2,980.2,1731,980.2z M1860.8,582.7c-2.2,0-4.4,0-6.7,0.1c-69,1.8-132.9,30.5-180,81
				c-47.1,50.5-71.3,116.3-68.3,185.2c1.5,33,15.6,63.6,39.7,86.1c24.2,22.5,55.7,34.5,88.7,33.6l256.8-6.6
				c34.1-0.9,65.9-15,89.4-39.7c23.5-24.7,36-57.2,35.1-91.3c-1.7-68.1-29.9-131.4-79.3-178.4
				C1988.5,607.4,1926.4,582.7,1860.8,582.7z"/>
		</g>
		<g>
			
				<ellipse transform="matrix(0.9997 -2.552350e-02 2.552350e-02 0.9997 -20.1415 53.8111)" class="st1" cx="2097.9" cy="815.9" rx="71.9" ry="89"/>
			<path d="M2098.6,910.7c-20.3,0-39.6-9.5-54.3-26.8c-14.8-17.5-23.4-40.9-24-66c-0.6-25.1,6.7-48.9,20.6-67.1
				c14.2-18.6,33.6-29.1,54.6-29.6c42.8-1.1,78.7,40.5,80,92.8l0,0c1.3,52.2-32.4,95.6-75.2,96.7
				C2099.7,910.7,2099.2,910.7,2098.6,910.7z M2097.1,732.6c-0.5,0-0.9,0-1.4,0c-17.4,0.4-33.7,9.4-45.7,25.1
				c-12.3,16.1-18.8,37.4-18.3,59.8c0.6,22.5,8.1,43.4,21.3,58.8c12.9,15.1,29.5,23.2,47,22.8c36.5-0.9,65.2-39,64-85l0,0
				C2162.9,768.9,2133,732.6,2097.1,732.6z"/>
		</g>
		<g>
			
				<ellipse transform="matrix(0.9997 -2.552350e-02 2.552350e-02 0.9997 -20.114 54.2324)" class="st2" cx="2114.4" cy="815" rx="51.1" ry="63.3"/>
			<path d="M2114.9,884.1c-15,0-29.1-6.9-39.9-19.7c-10.8-12.7-17-29.7-17.5-48c-1-38.1,23.7-69.7,55.1-70.5
				c31.4-0.8,57.6,29.5,58.6,67.6l0,0c0.5,18.2-4.9,35.5-15,48.8c-10.4,13.6-24.7,21.3-40.1,21.7
				C2115.7,884.1,2115.3,884.1,2114.9,884.1z M2113.9,757.4c-0.3,0-0.6,0-0.9,0c-25,0.6-44.7,27-43.9,58.8
				c0.4,15.6,5.6,30.1,14.8,40.8c8.8,10.4,20.2,15.9,32.1,15.6c11.9-0.3,23-6.4,31.3-17.2c8.6-11.2,13-25.9,12.7-41.5l0,0
				C2159,782.5,2138.5,757.4,2113.9,757.4z"/>
		</g>
		<g>
			<path d="M1732.5,848l55-17.8c14.2-4.6,29.4-5,43.8-1.1l55.9,14.9c50,13.3,98.8-25.1,97.4-76.8v0c-0.9-34.1-23.9-63.6-56.8-72.7
				l0,0c-80-22.1-164.7-19.9-243.5,6.2l0,0c-32.4,10.7-53.9,41.4-53,75.5v0C1632.6,828,1683.3,863.9,1732.5,848z"/>
		</g>
		<g>
			
				<ellipse transform="matrix(0.9997 -2.552350e-02 2.552350e-02 0.9997 -28.3179 42.6604)" class="st1" cx="1657" cy="1130.6" rx="49.8" ry="60.6"/>
			<path d="M1657.4,1197c-14.6,0-28.4-6.7-38.9-18.8c-10.6-12.2-16.6-28.6-17.1-46.1c-0.9-36.6,23.2-66.9,53.8-67.7
				c15-0.4,29.3,6.3,40.1,18.8c10.6,12.2,16.6,28.6,17.1,46.1c0.9,36.6-23.2,66.9-53.8,67.7C1658.3,1196.9,1657.9,1197,1657.4,1197z
				 M1656.5,1075.8c-0.3,0-0.6,0-0.9,0c-24.3,0.6-43.4,25.7-42.7,56c0.4,14.9,5.5,28.7,14.3,38.9c8.6,9.9,19.6,15.2,31.2,14.9
				c24.3-0.6,43.4-25.7,42.7-56c-0.4-14.9-5.5-28.7-14.3-38.9C1678.4,1081,1667.7,1075.8,1656.5,1075.8z"/>
		</g>
		<g>
			<path class="st1" d="M2101.2,1065.4l-464.2,11.9c0,0-16.4,481.3,244.9,512.8l1,0C2142.1,1545.2,2101.2,1065.4,2101.2,1065.4z"/>
			<path d="M1881.5,1595.7l-0.4-0.1c-61.3-7.4-112.6-39.6-152.5-95.8c-31.6-44.5-56.1-103.9-72.8-176.8
				c-28.4-123.6-24.6-244.8-24.6-246.1l0.2-5.4l475-12.1l0.5,5.4c0.1,1.2,10,122.1-12,247c-13,73.6-34.4,134.3-63.7,180.3
				c-37,58.1-86.6,92.9-147.4,103.4l-0.8,0.1L1881.5,1595.7z M1642.5,1082.8c-0.4,24.7-0.2,130.5,24.5,237.9
				c16.4,71.4,40.3,129.4,71,172.6c37.9,53.2,86.3,83.8,144,90.9l0.2,0c57.3-10,104.1-43,139.2-98.1c28.5-44.7,49.4-103.9,62.1-176
				c19.2-108.5,13.9-214.2,12.3-238.8L1642.5,1082.8z"/>
		</g>
		<g>
			
				<ellipse transform="matrix(0.9997 -2.552350e-02 2.552350e-02 0.9997 -26.7336 48.0667)" class="st1" cx="1869.6" cy="1071.3" rx="232.7" ry="37.2"/>
			<path d="M1833.3,1114.7c-48.3,0-92.9-2.5-128.3-7.2c-65.7-8.8-73.6-21.4-73.8-30.1c-0.2-8.7,7-21.7,72.2-33.8
				c44-8.2,102.7-13.6,165.1-15.2c62.4-1.6,121.3,0.8,165.7,6.7c65.7,8.8,73.6,21.4,73.8,30.1c0.2,8.7-7,21.7-72.2,33.8
				c-44,8.2-102.7,13.6-165.1,15.2C1858,1114.5,1845.5,1114.7,1833.3,1114.7z M1905.9,1039.4c-12.2,0-24.6,0.2-37.1,0.5
				c-61.8,1.6-119.8,6.9-163.3,15c-60.3,11.2-62.8,22.1-62.8,22.2s3,10.9,63.8,19c43.8,5.9,102,8.2,163.9,6.6
				c61.8-1.6,119.8-6.9,163.3-15c60.3-11.2,62.8-22.1,62.8-22.2c0-0.1-3-10.9-63.8-19C1997.7,1041.8,1953.6,1039.4,1905.9,1039.4z"
				/>
		</g>
		<g>
			
				<ellipse transform="matrix(0.9997 -2.552350e-02 2.552350e-02 0.9997 -28.0587 53.9465)" class="st1" cx="2099.2" cy="1126.1" rx="49.8" ry="60.6"/>
			<path d="M2099.7,1192.4c-14.6,0-28.4-6.7-38.9-18.8c-10.6-12.2-16.6-28.6-17.1-46.1l0,0c-0.4-17.5,4.8-34.2,14.7-46.9
				c10.2-13.1,24.1-20.5,39.1-20.8c15.1-0.4,29.3,6.3,40.1,18.8c10.6,12.2,16.6,28.6,17.1,46.1c0.9,36.6-23.2,66.9-53.8,67.7
				C2100.5,1192.4,2100.1,1192.4,2099.7,1192.4z M2098.7,1071.3c-0.3,0-0.6,0-0.9,0c-11.6,0.3-22.3,6.1-30.4,16.4
				c-8.3,10.6-12.7,24.7-12.3,39.5l0,0c0.4,14.9,5.5,28.7,14.3,38.9c8.6,9.9,19.6,15.1,31.2,14.9c24.3-0.6,43.4-25.7,42.7-56
				c-0.4-14.9-5.5-28.7-14.3-38.9C2120.7,1076.5,2110,1071.3,2098.7,1071.3z"/>
		</g>
		<g>
			
				<ellipse transform="matrix(0.9997 -2.552350e-02 2.552350e-02 0.9997 -28.0463 54.2702)" class="st1" cx="2111.9" cy="1125.8" rx="32.9" ry="40.1"/>
			<path d="M2112.2,1171.6c-10.2,0-19.8-4.6-27.2-13.1c-7.3-8.4-11.5-19.7-11.8-31.7l0,0c-0.3-12,3.3-23.5,10.1-32.2
				c7.1-9.1,16.8-14.3,27.3-14.5c21.3-0.6,39.2,19.5,39.8,44.8c0.6,25.2-16.2,46.2-37.5,46.8
				C2112.8,1171.6,2112.5,1171.6,2112.2,1171.6z M2111.6,1091.5c-0.2,0-0.4,0-0.6,0c-7,0.2-13.7,3.8-18.6,10.1
				c-5.2,6.7-7.9,15.5-7.7,24.9l0,0c0.2,9.4,3.4,18.1,9,24.5c5.3,6.1,12,9.3,19.1,9.2c15-0.4,26.8-16.1,26.3-35
				C2138.6,1106.4,2126.3,1091.5,2111.6,1091.5z"/>
		</g>
		<g>
			
				<ellipse transform="matrix(0.9997 -2.552350e-02 2.552350e-02 0.9997 -30.2611 47.4253)" class="st2" cx="1842.7" cy="1209.1" rx="63" ry="47.4"/>
			<path d="M1841.7,1262.3c-17.2,0-33.4-4.9-46-13.8c-13.6-9.7-21.3-23.1-21.7-37.6c-0.7-29.3,29.4-53.9,67.3-54.9
				c18.1-0.5,35.2,4.4,48.3,13.8c13.6,9.7,21.3,23.1,21.7,37.5c0.7,29.3-29.4,53.9-67.3,54.9
				C1843.2,1262.3,1842.5,1262.3,1841.7,1262.3z M1843.7,1167.5c-0.7,0-1.4,0-2,0c-31.5,0.8-56.7,20.1-56.1,43.1
				c0.3,10.8,6.3,20.9,16.9,28.5c11.1,7.9,25.8,12.1,41.4,11.7c31.5-0.8,56.7-20.1,56.1-43.1c-0.3-10.8-6.3-20.9-16.9-28.5
				C1872.4,1171.6,1858.5,1167.5,1843.7,1167.5z"/>
		</g>
		<g>
			<path class="st1" d="M1806.7,802.8c-24.6,0-44-11.3-44.3-26.3l11.5-0.3c0.2,7.5,15.1,15.6,34.6,15.1c19.6-0.5,34-9.3,33.8-16.8
				l11.5-0.3c0.4,15.4-19.4,27.9-45,28.6C1808.1,802.8,1807.4,802.8,1806.7,802.8z"/>
		</g>
		<g>
			
				<ellipse transform="matrix(0.9997 -2.552350e-02 2.552350e-02 0.9997 -26.7664 47.7951)" cx="1858.9" cy="1072.4" rx="136.8" ry="21.9"/>
		</g>
		<g>
			<path d="M1850.7,1326.1c-31.6,0-62.4-10.9-87-30.9c-25.5-20.7-42.8-49.9-48.8-82.2l-20.4-110.9l11.3-2.1l20.4,110.9
				c5.4,29.6,21.3,56.4,44.7,75.4c23.4,19,52.9,29,83,28.3c61.9-1.6,113.3-47.2,122.1-108.6l15.4-107.5l11.4,1.6l-15.4,107.5
				c-9.6,66.9-65.6,116.7-133.1,118.4C1853,1326,1851.9,1326.1,1850.7,1326.1z"/>
		</g>
		<g>
			<path d="M1852.8,1397.1c-25.5,0-50.6-2.5-74.9-7.5c-73.7-15.2-114.9-47.7-116.7-49.1l7.2-9c0,0,0,0,0,0l0,0
				c0.3,0.2,10.5,8.3,29.2,18c17.4,9,46,21.4,83.2,29c41.8,8.5,85.8,9.4,130.7,2.7c56.3-8.4,114.2-29,172.2-61l5.5,10
				c-59.4,32.8-118.8,53.8-176.5,62.4C1892.6,1395.6,1872.5,1397.1,1852.8,1397.1z"/>
		</g>
		<g>
			
				<ellipse transform="matrix(0.9997 -2.552350e-02 2.552350e-02 0.9997 -18.7874 44.091)" class="st3" cx="1717.8" cy="758" rx="20.4" ry="26.2"/>
		</g>
		<g>
			
				<ellipse transform="matrix(0.9997 -2.552350e-02 2.552350e-02 0.9997 -18.6094 48.7379)" class="st3" cx="1899.9" cy="753.4" rx="20.4" ry="26.2"/>
		</g>
		<g>
			<path class="st1" d="M2323.2,801.5L2323.2,801.5c-22.3,1.8-39,21.3-37.4,43.7c4.4,58.8,8,164.4-18.3,194.5
				c0,0-22.9,34.1-84.5,37.3l-30.5,0.1c-24.9,0.1-45.5,19.4-47.3,44.2v0c-1.9,27.2,19.4,50.5,46.6,50.9
				c69.8,1.1,190.7-15.3,215.5-138.1c10.4-51.7,11.8-93.5-0.3-196.7C2364.6,815.6,2345.2,799.7,2323.2,801.5z"/>
			<path d="M2158,1177.9c-2.1,0-4.2,0-6.2,0c-14.8-0.2-28.4-6.4-38.4-17.2c-10-10.9-14.9-25-13.9-39.8c1.9-27.7,25.2-49.4,53-49.5
				l30.4-0.1c57.6-3,79.7-34.5,79.9-34.8l0.4-0.6c18.2-20.8,24.3-90.1,16.9-190.3c-1.9-25.4,17.2-47.7,42.6-49.8l0,0
				c25.1-2.1,47.1,15.9,50,41c12.7,107.9,10.3,148.5,0.2,198.5c-11.3,55.8-42.9,96.1-94.1,119.6
				C2237.8,1173.6,2191.6,1177.9,2158,1177.9z M2272.1,1043.1c-2.7,3.9-27.5,36.3-88.8,39.5l-0.3,0l-30.5,0.1
				c-21.8,0.1-40,17.2-41.6,38.9c-0.8,11.6,3.1,22.7,10.9,31.2c7.8,8.5,18.5,13.3,30.1,13.5c68.1,1.1,185.9-14.8,209.8-133.5
				c9.8-48.8,12.1-88.5-0.4-194.8c-2.2-18.9-18.8-32.4-37.7-30.9l0,0c-19.1,1.6-33.5,18.4-32.1,37.5
				C2301.5,978.3,2286.5,1026.4,2272.1,1043.1z"/>
		</g>
		<g>
			<path d="M2372.5,938.2C2372.5,938.2,2372.5,938.2,2372.5,938.2l2.9-4.9L2372.5,938.2z M2372.5,938.2c-0.8-0.4-50.6-29-79.6-0.2
				l-8.1-8.1c14.8-14.7,35.8-19.5,60.8-14c18.2,4,32.1,12.1,32.7,12.5L2372.5,938.2z"/>
		</g>
		<g>
			<path d="M2360.9,1043.8c-1.1-1.9-27.1-45.3-77.4-34.1l-2.5-11.2c58.7-13,89.5,39.1,89.8,39.6L2360.9,1043.8l5-2.9L2360.9,1043.8z
				"/>
		</g>
		<g>
			<path d="M2298,1142l-11.4-1.2l5.7,0.6l-5.7-0.6c0-0.2,1.5-15.5-3.6-32.3c-6.5-21.6-20.5-35.4-41.6-41l2.9-11.1
				C2304.5,1072.3,2298.1,1141.3,2298,1142z"/>
		</g>
		<g>
			<path d="M2204.5,1172.3l-10.4-4.8l5.2,2.4l-5.2-2.4c0.1-0.1,6.8-14.8,8.2-32.9c1.8-23.3-5.7-41.1-22.4-52.9l6.7-9.3
				C2234.4,1106.5,2204.8,1171.7,2204.5,1172.3z"/>
		</g>
		<g>
			<path class="st1" d="M2298.7,825.9l-1.2,1c-8.7,7.4-21.8,5.9-28.7-3.3c-15.3-20.3-33.7-58.4-3.6-101.2
				c6.2-8.9,18.4-11.2,27.4-5.1v0c7.8,5.3,10.9,15.5,7.1,24.2c-6.3,14.2-12,37,2.6,58.2C2307.9,808.1,2306.4,819.4,2298.7,825.9z"/>
			<path d="M2284.8,837.4c-0.9,0-1.9-0.1-2.8-0.2c-7-0.8-13.5-4.5-17.7-10.1c-15.3-20.4-36.2-61.6-3.7-107.9
				c8-11.4,23.8-14.4,35.3-6.6c10.2,7,14.1,20.1,9.1,31.3c-6.1,13.7-10.7,34,2.1,52.7c7.4,10.8,5.5,25.3-4.5,33.7l-1.2,1
				C2296.5,835.3,2290.8,837.4,2284.8,837.4z M2281.5,719.7c-4.5,0-8.9,2.1-11.7,6.1c-26.9,38.4-13,72.6,3.5,94.5
				c2.4,3.2,5.9,5.2,9.8,5.6c3.9,0.4,7.6-0.7,10.6-3.3l1.2-1c5.5-4.7,6.5-12.6,2.5-18.5c-12.3-17.9-13.4-40.6-3.1-63.8
				c2.7-6.1,0.6-13.3-5.1-17.1C2286.9,720.5,2284.2,719.7,2281.5,719.7z"/>
		</g>
		<g>
			<path class="st1" d="M923.5,1197.5l43.1,63.3l59.2-144.3c0,0,10.8-77,51.8-119.5c0,0,22,4.3,8.9,36c0,0,48.2-43,84-57.6
				c0,0,12.3-2.3,13.8,13.4c0,0,18.7-4,20,10.9c0,0,13.1,0.6,10.9,16.4l-6.8,6.1c0,0,14.7,1.8,9.8,12.8s-118.9,102.3-118.9,102.3
				s-18.3,206.7-54.4,265.5c0,0-17.4,39-69.3,20.9l-130.1-77.6l-6.9-125.2L923.5,1197.5z"/>
			<path d="M1001.4,1434.1c-8.2,0-17.3-1.5-27.5-5.1c-0.4-0.1-0.7-0.3-1-0.5L842.7,1351c-1.6-1-2.7-2.7-2.8-4.6l-6.9-125.2
				c-0.1-2.7,1.6-5.1,4.2-5.8L922,1192c2.4-0.6,4.9,0.3,6.3,2.3l37.1,54.5l54.9-133.8c1.3-8.5,13.1-80.3,53.2-122
				c1.4-1.4,3.3-2,5.2-1.6c1,0.2,9.9,2.2,14.7,11.3c2.2,4.1,3.2,9,2.9,14.5c17.1-14,47.2-36.9,72-47.1c0.4-0.1,0.7-0.3,1.1-0.3
				c0.7-0.1,7.3-1.2,13.1,3.1c3,2.3,5.2,5.5,6.4,9.6c4.2-0.1,9.9,0.6,14.4,3.9c2.1,1.6,4.6,4.2,5.9,8.4c2.4,0.8,5.4,2.4,7.8,5.3
				c3.5,4.2,4.8,9.8,3.8,16.7c-0.2,1.3-0.8,2.5-1.7,3.4c1.7,1.2,3.2,2.7,4.3,4.6c1.4,2.6,2.6,6.8,0,12.5
				c-5,11-89.6,79.6-118.7,102.9c-2.3,24.6-20.2,208.3-54.8,265.2C1044.8,1417.2,1028.9,1434.1,1001.4,1434.1z M978.2,1418.4
				c45.7,15.6,61-16.6,61.6-18c0.1-0.2,0.2-0.4,0.3-0.6c35-57,53.4-260.9,53.6-263c0.1-1.6,0.9-3,2.1-4
				c53.7-43.1,113.1-92.9,117.3-100.3c0.4-0.9,0.5-1.7,0.4-2c-0.6-1.1-3.6-2.3-5.8-2.6c-2.2-0.3-4.1-1.9-4.7-4
				c-0.7-2.1,0-4.4,1.6-5.9l5.1-4.6c0.1-2-0.2-4.3-1.4-5.8c-1.6-2-4.3-2.2-4.3-2.2c-2.9-0.1-5.1-2.4-5.4-5.3
				c-0.2-2.8-1.3-3.9-2.1-4.4c-3.1-2.3-9.1-1.7-11-1.3c-1.6,0.3-3.3,0-4.6-1c-1.3-1-2.2-2.4-2.3-4.1c-0.2-2.5-1-5.7-3-7.3
				c-1.3-1-3-1.1-3.7-1.1c-34.4,14.4-81.2,55.9-81.7,56.3c-2,1.8-5,1.9-7.1,0.4c-2.2-1.5-3-4.4-2-6.9c4-9.8,4.8-17.6,2.2-22.6
				c-1.2-2.2-2.8-3.6-4.3-4.4c-37.1,41.2-47.5,112.8-47.6,113.6c-0.1,0.5-0.2,0.9-0.4,1.4L971.9,1263c-0.8,2-2.6,3.3-4.7,3.5
				c-2.1,0.2-4.1-0.7-5.3-2.5l-40.8-59.9l-76.4,21l6.5,117.6L978.2,1418.4z"/>
		</g>
		<g>
			<path class="st1" d="M1091.2,1112.8c0,0,22.4-32.1-4.6-79.9L1091.2,1112.8z"/>
			<path d="M1095.9,1116.1l-9.4-6.6l4.7,3.3l-4.7-3.3c0.8-1.2,19.9-30-4.9-73.8l10-5.6C1120,1080.5,1096.9,1114.7,1095.9,1116.1z"/>
		</g>
		<g>
			<path class="st1" d="M1107.1,2214.1c0,0,24.2,89.5,81,99.3c71.3,12.3,91.6,50.1,93.4,58.9h-278.3l19.4-155.1L1107.1,2214.1z"/>
			<path d="M1288.5,2377.9H996.7l20.8-166.3l94-3.4l1.2,4.4c0.2,0.9,23.9,86.1,76.5,95.1c72.1,12.4,95.5,50.9,98,63.4L1288.5,2377.9
				z M1009.7,2366.5h262.9c-7.2-12.3-28.6-37.7-85.5-47.5c-25-4.3-47.8-23.7-65.9-56.2c-10-18-16-35.1-18.4-42.9l-75.2,2.8
				L1009.7,2366.5z"/>
		</g>
		<g>
			<path class="st1" d="M1121.9,1029.7c0,0,46.6-34,62.5-41L1121.9,1029.7z"/>
			<path d="M1125.3,1034.3l-6.8-9.3c1.9-1.4,47.2-34.4,63.6-41.6l4.6,10.5C1171.5,1000.7,1125.7,1034,1125.3,1034.3z"/>
		</g>
		<g>
			<path class="st1" d="M1141,1048.5c0,0,40.9-36.9,63.5-48.9L1141,1048.5z"/>
			<path d="M1144.8,1052.7l-7.7-8.5c1.7-1.5,41.7-37.5,64.6-49.7l5.4,10.1C1185.4,1016.2,1145.2,1052.3,1144.8,1052.7z"/>
		</g>
		<g>
			<path class="st1" d="M1493.1,1961.2c0,0,65.9,62.2,127.7,37.9c67.3-26.4,104.1-8,110.4-1.6l-233.2,151.9l-83.3-151.8
				L1493.1,1961.2z"/>
			<path d="M1495.9,2157.5l-89.2-162.6l87.5-40.6l2.8,2.7c0.6,0.6,64,59.4,121.7,36.7c68.9-27.1,108.2-8.8,116.6-0.3l4.9,5
				L1495.9,2157.5z M1422.6,2000.1l77.3,141l220.6-143.7c-4.8-2.2-12.2-4.7-22.4-5.9c-15.1-1.7-40.5-0.9-75.3,12.8
				c-26.9,10.6-58.6,7.1-91.8-10.1c-18.9-9.8-33.2-21.3-39-26.4L1422.6,2000.1z"/>
		</g>
		<g>
			<path class="st1" d="M461.7,1535.9H1216l-52.2,689c0,0-75,54.4-191.6,6.4l20-499.2c0,0-347.2,83.5-463.5,35.7
				C528.6,1767.8,435.3,1730.7,461.7,1535.9z"/>
			<path d="M1066.7,2256.7c-27.1,0-59.9-4.9-96.8-20.1c-2.2-0.9-3.6-3.1-3.6-5.5l19.7-491.7c-52.2,12.1-351,78.4-459.7,33.7
				c-1-0.4-25.3-10.4-46.1-45.3c-27.3-45.8-35.4-110.6-24.3-192.7c0.4-2.8,2.8-5,5.7-5H1216c1.6,0,3.1,0.7,4.2,1.8
				c1.1,1.2,1.6,2.7,1.5,4.3l-52.2,689c-0.1,1.7-1,3.2-2.4,4.2c-0.8,0.6-20.1,14.4-54.2,22.1
				C1100.4,2254.5,1084.8,2256.7,1066.7,2256.7z M978,2227.5c56.9,22.5,102.9,19.6,131.8,13.1c25.8-5.8,42.7-15.4,48.4-19l51.6-680
				H466.7c-12,95.2,5.7,150.1,22.9,179.4c18.8,32,40.9,41.3,41.1,41.4c113.3,46.6,456.6-35.1,460-35.9c1.7-0.4,3.6,0,5,1.1
				c1.4,1.1,2.2,2.9,2.1,4.7L978,2227.5z"/>
		</g>
		<g>
			<path class="st1" d="M795.6,1536.2l369.9-118.9c19.8-6.4,41.5,1.6,52.4,19.4l309.5,514c0,0-27.4,89.1-160.4,103.1l-329.4-517.9
				L795.6,1536.2z"/>
			<path d="M1367,2059.5c-1.9,0-3.8-1-4.8-2.7l-327.7-515.3l-238.8,0.4c0,0,0,0,0,0c-2.8,0-5.2-2.1-5.7-4.8
				c-0.4-2.8,1.2-5.5,3.9-6.4l369.9-118.9c22.4-7.2,46.7,1.8,59,21.8l309.5,514c0.8,1.4,1,3.1,0.6,4.6c-0.3,1-7.5,23.9-31.7,48.6
				c-22.1,22.6-63.2,51.1-133.6,58.5C1367.4,2059.5,1367.2,2059.5,1367,2059.5z M1037.6,1530.1c2,0,3.8,1,4.8,2.7l327.5,514.9
				c113.1-13.3,145.8-82.8,151.2-96.4L1213,1439.7c-9.5-15.5-28.3-22.5-45.7-16.9l-334.9,107.7L1037.6,1530.1
				C1037.5,1530.1,1037.5,1530.1,1037.6,1530.1z"/>
		</g>
		<g>
			<path class="st1" d="M1163.7,1054.6c0,0,25-22.3,44.9-32.4L1163.7,1054.6z"/>
			<path d="M1167.5,1058.9l-7.6-8.6c1-0.9,25.8-22.9,46.1-33.2l5.2,10.2C1192.2,1037,1167.7,1058.7,1167.5,1058.9z"/>
		</g>
		<g>
			<path class="st4" d="M830.6,1029.7l-108.2-52.4c0,0-10,8.2-41.8,6.4c-10.2-0.6-48.2-10.6-48.2-10.6l-129,28.6
				c-11.6,2.6-22,9.2-29.1,18.8l-118.7,158.5l94.1,145.9l-18.8,222.6c0,0,78.2,23.3,188.5,23.3c123.7,0,242.7-29.3,242.7-29.3
				l-9.6-293.8l97.5-32.8L830.6,1029.7z"/>
		</g>
		<g>
			<path class="st1" d="M692.9,1031.9l-36.3,171.5c-2.4,9.8,5.1,19.3,15.2,19.3h259.5c7.2,0,13.5-4.9,15.2-11.9l36.3-171.5
				c2.4-9.8-5.1-19.3-15.2-19.3H708C700.8,1020,694.6,1024.9,692.9,1031.9z"/>
			<path d="M931.3,1228.4H671.8c-6.6,0-12.7-3-16.8-8.2c-4.1-5.2-5.5-11.8-4-18.2l36.3-171.5c2.3-9.6,10.9-16.3,20.8-16.3h259.5
				c6.6,0,12.7,3,16.8,8.2c4.1,5.2,5.5,11.8,4,18.2L952.1,1212C949.7,1221.7,941.2,1228.4,931.3,1228.4z M698.5,1033.2l-36.2,171.4
				c-0.8,3.1-0.1,6.2,1.8,8.6c1.9,2.4,4.7,3.8,7.8,3.8h259.5c4.6,0,8.5-3.1,9.6-7.6l36.2-171.3c0.8-3.1,0.1-6.2-1.8-8.6
				c-1.9-2.4-4.7-3.8-7.8-3.8H708C703.5,1025.7,699.6,1028.8,698.5,1033.2z"/>
		</g>
		<g>
			<path class="st1" d="M712.7,1031.9l-36.3,171.5c-2.4,9.8,5.1,19.3,15.2,19.3h259.5c7.2,0,13.5-4.9,15.2-11.9l36.3-171.5
				c2.4-9.8-5.1-19.3-15.2-19.3H727.9C720.6,1020,714.4,1024.9,712.7,1031.9z"/>
			<path d="M951.1,1228.4H691.6c-6.6,0-12.7-3-16.8-8.2c-4.1-5.2-5.5-11.8-4-18.2l36.3-171.5c2.3-9.6,10.9-16.3,20.8-16.3h259.5
				c6.6,0,12.7,3,16.8,8.2c4.1,5.2,5.5,11.8,4,18.2L971.9,1212C969.5,1221.7,961,1228.4,951.1,1228.4z M718.3,1033.2L682,1204.6
				c-0.8,3.1-0.1,6.2,1.8,8.6c1.9,2.4,4.7,3.8,7.8,3.8h259.5c4.6,0,8.5-3.1,9.6-7.6l36.2-171.3c0.8-3.1,0.1-6.2-1.8-8.6
				c-1.9-2.4-4.7-3.8-7.8-3.8H727.9C723.3,1025.7,719.4,1028.8,718.3,1033.2z"/>
		</g>
		<g>
			<path class="st1" d="M361.7,1181.6c0,0-128.7,173.8-76.2,233.5c81.9,93.3,343.5-140.2,343.5-140.2s106.5-32.7,118.3-51.5
				c0,0,5.8-6.3,0-14.9c0,0,8-6,0-17.4c0,0,11.3-10,3.6-19c0,0,12.7-17,0.6-21.4s-41.8,17.1-85.7,17.7l0.3-23.5l-83.1,65.3
				l-140.1,63.4L361.7,1181.6z"/>
			<path d="M339.2,1442.8c-2.2,0-4.4-0.1-6.5-0.2c-21.5-1.3-38.9-9.3-51.6-23.8c-54.9-62.5,70.6-233.5,76-240.7l4.2-5.7l82.9,94.2
				l135.6-61.3l92-72.3l-0.4,29.5c21.3-1.3,39.2-7.4,52.5-12.1c12.9-4.5,22.2-7.7,29.4-5c5.5,2,7.6,5.8,8.4,8.5
				c1.9,6.5-1.5,14-4.2,18.3c2.3,4.7,2.1,10-0.6,15.4c-0.8,1.6-1.8,3-2.7,4.2c3.7,7.4,2.3,13.5-0.2,17.4c3.2,7.8,0.3,14.5-2.3,17.6
				c-13.1,19.1-99.6,46.8-120,53.1C615.9,1294.1,445.2,1442.8,339.2,1442.8z M362.1,1190.8c-9.5,13.4-33.5,48.6-53.2,87.9
				c-22.5,44.8-44.2,104.2-19.2,132.7c10.7,12.2,25,18.7,43.6,19.9c53.6,3.3,129.9-40.3,184.4-77.5c59.6-40.6,106.9-82.6,107.3-83.1
				l0.9-0.8l1.2-0.4c50.6-15.6,108.2-38,115.1-49.1l0.3-0.4l0.4-0.4c0.5-0.7,2.4-3.5-0.5-7.8l-3.3-4.8l4.6-3c0.7-0.6,3-3.4-1.3-9.5
				l-2.9-4.2l3.8-3.4c0.7-0.6,6.9-6.5,3-11l-3-3.5l2.8-3.7c2.7-3.6,5.3-9.3,4.6-11.6c-0.1-0.2-0.2-0.6-1.4-1
				c-3.4-1.2-12.3,1.8-21.7,5.1c-15.3,5.3-36.3,12.6-62,12.9l-5.9,0.1l0.2-17.4l-74.2,58.3l-144.6,65.4L362.1,1190.8z"/>
		</g>
		<g>
			<rect x="373.4" y="1283.8" transform="matrix(0.8999 -0.4362 0.4362 0.8999 -521.4186 307.9283)" width="72.9" height="11.5"/>
		</g>
		<g>
			<path class="st1" d="M696,1190.6c0,0,29.2-5.7,54.7-18.4L696,1190.6z"/>
			<path d="M697.1,1196.2l-2.2-11.3c0.3-0.1,28.8-5.7,53.3-17.9l5.1,10.3C727.4,1190.2,698.4,1196,697.1,1196.2z"/>
		</g>
		<g>
			<path class="st1" d="M694.5,1212.4c0,0,31.9-6.2,52.7-21.2L694.5,1212.4z"/>
			<path d="M695.6,1218.1l-2.2-11.3c0.3-0.1,31-6.1,50.4-20.3l6.7,9.3C729,1211.5,697,1217.8,695.6,1218.1z"/>
		</g>
		<g>
			<path class="st1" d="M690,1235.6c0,0,39.5-10.4,57.2-27L690,1235.6z"/>
			<path d="M691.5,1241.1l-2.9-11.1c0.4-0.1,38.3-10.3,54.7-25.7l7.9,8.4C732.6,1230.1,693.2,1240.7,691.5,1241.1z"/>
		</g>
		<g>
			
				<ellipse transform="matrix(0.2248 -0.9744 0.9744 0.2248 -422.6663 1694.2494)" class="st4" cx="853.4" cy="1112.8" rx="21.6" ry="17.7"/>
		</g>
		<g>
			<g>
				<path class="st1" d="M1474.5,772.4h-330.7c-4.4,0-8.6-2-11.4-5.4c-2.8-3.5-3.9-7.9-3-12.3l32.8-156.6
					c1.4-6.8,7.5-11.7,14.4-11.7h330.7c4.4,0,8.6,2,11.4,5.4c2.8,3.5,3.9,7.9,3,12.3l-32.8,156.6
					C1487.5,767.4,1481.5,772.4,1474.5,772.4z"/>
				<path d="M1474.5,778.1h-330.7c-6.2,0-12-2.8-15.9-7.6c-3.9-4.8-5.4-11-4.1-17.1l32.8-156.6c2-9.4,10.4-16.3,20-16.3h330.7
					c6.2,0,12,2.8,15.9,7.6c3.9,4.8,5.4,11,4.1,17.1l-32.8,156.6C1492.6,771.3,1484.2,778.1,1474.5,778.1z M1176.6,592.1
					c-4.2,0-7.9,3-8.8,7.1l-32.8,156.6c-0.6,2.7,0.1,5.4,1.8,7.5c1.7,2.1,4.2,3.3,7,3.3h330.7c4.2,0,7.9-3,8.8-7.1l32.8-156.6
					c0.6-2.7-0.1-5.4-1.8-7.5c-1.7-2.1-4.2-3.3-7-3.3H1176.6z"/>
			</g>
			<g>
				<g>
					<path class="st1" d="M1189.7,633.4l-18.5,91.3c-0.7,3.2,1.8,6.2,5.1,6.2h95.9c2.5,0,4.6-1.7,5.1-4.2l18.5-91.3
						c0.7-3.2-1.8-6.2-5.1-6.2h-95.9C1192.3,629.2,1190.2,630.9,1189.7,633.4z"/>
					<path d="M1272.2,736.6h-95.9c-3.3,0-6.4-1.5-8.5-4c-2.1-2.5-2.9-5.9-2.2-9.1l18.5-91.3c1-5.1,5.5-8.8,10.7-8.8h95.9
						c3.3,0,6.4,1.5,8.5,4c2.1,2.5,2.9,5.9,2.2,9.1l-18.5,91.3C1281.9,733,1277.4,736.6,1272.2,736.6z M1176.9,725.2h94.8l18.3-90.2
						h-94.8L1176.9,725.2z"/>
				</g>
			</g>
			<g>
				<g>
					<path class="st4" d="M1323.6,649.8l1.5-8.2c0.1-0.8,0.9-1.4,1.7-1.4h149.8c1.1,0,1.9,1,1.7,2l-1.5,8.2
						c-0.1,0.8-0.9,1.4-1.7,1.4h-149.8C1324.2,651.9,1323.4,650.9,1323.6,649.8z"/>
				</g>
			</g>
			<g>
				<g>
					<path class="st4" d="M1317.4,678l1.5-8.2c0.1-0.8,0.9-1.4,1.7-1.4h149.8c1.1,0,1.9,1,1.7,2l-1.5,8.2c-0.1,0.8-0.9,1.4-1.7,1.4
						h-149.8C1318,680.1,1317.2,679.1,1317.4,678z"/>
				</g>
			</g>
			<g>
				<g>
					<path class="st4" d="M1311.9,706.2l1.5-8.2c0.1-0.8,0.9-1.4,1.7-1.4h92.7c1.1,0,1.9,1,1.7,2l-1.5,8.2c-0.1,0.8-0.9,1.4-1.7,1.4
						h-92.7C1312.5,708.2,1311.7,707.3,1311.9,706.2z"/>
				</g>
			</g>
		</g>
		<g>
			<path class="st1" d="M2042.1,779.4h307.7c8.6,0,16-6.1,17.7-14.5l55.3-271.3c2.3-11.2-6.3-21.7-17.7-21.7h-307.7
				c-8.6,0-16,6.1-17.7,14.5l-55.3,271.3C2022.1,768.9,2030.7,779.4,2042.1,779.4z"/>
			<path d="M2349.9,785.1h-307.7c-7.2,0-13.9-3.2-18.5-8.8c-4.5-5.6-6.3-12.8-4.9-19.8l55.3-271.3c2.3-11.1,12.1-19.1,23.4-19.1
				h307.7c7.2,0,13.9,3.2,18.5,8.8s6.3,12.8,4.9,19.8L2373.2,766C2371,777.1,2361.1,785.1,2349.9,785.1z M2097.4,477.6
				c-5.9,0-11,4.2-12.1,9.9L2030,758.8c-0.7,3.7,0.2,7.4,2.5,10.3c2.4,2.9,5.9,4.5,9.6,4.5h307.7c5.9,0,11-4.2,12.1-9.9l55.3-271.3
				c0.7-3.7-0.2-7.4-2.5-10.3c-2.4-2.9-5.9-4.5-9.6-4.5H2097.4z"/>
		</g>
		<g>
			<g>
				<path class="st4" d="M2122.1,702.9h159.1c6.5,0,12-4.5,13.3-10.9l20-98.2c1.7-8.4-4.7-16.3-13.3-16.3h-159.1
					c-6.5,0-12,4.5-13.3,10.9l-20,98.2C2107,695,2113.5,702.9,2122.1,702.9z"/>
			</g>
		</g>
		<g>
			<g>
				<polygon class="st1" points="2208.4,652.3 2124.6,600.9 2129.4,593.2 2209.1,642.1 2311.3,596.2 2315,604.4 				"/>
			</g>
		</g>
		<g>
			<g>
				<ellipse transform="matrix(0.3643 -0.9313 0.9313 0.3643 929.9974 2524.1885)" cx="2313.9" cy="580.9" rx="34.8" ry="29.9"/>
			</g>
		</g>
		<g>
			<g>
				<polygon class="st1" points="2315.2,600.7 2308.6,599.3 2314.3,572.6 2308,573.9 2306.7,567.2 2323.1,563.9 				"/>
			</g>
		</g>
		<g>
			<g>
				
					<rect x="2258.1" y="624.9" transform="matrix(0.7471 -0.6647 0.6647 0.7471 128.7071 1672.8212)" class="st1" width="9.1" height="84.7"/>
			</g>
		</g>
		<g>
			<g>
				
					<rect x="2101.1" y="663" transform="matrix(0.7671 -0.6416 0.6416 0.7671 72.5255 1534.8502)" class="st1" width="97.8" height="9.1"/>
			</g>
		</g>
		<g>
			<g>
				<path class="st1" d="M1852.3,144.4l-63.8,311.4c-1.3,6.4-7,11.1-13.6,11.1h-398c-8.8,0-15.3-8-13.6-16.6l17.3-84.4l46.5-227
					c1.3-6.4,7-11.1,13.6-11.1h398C1847.5,127.8,1854.1,135.8,1852.3,144.4z"/>
				<path d="M1775,472.6h-398c-5.9,0-11.4-2.6-15.2-7.2c-3.7-4.6-5.2-10.5-4-16.3l63.8-311.4c1.9-9.1,9.9-15.6,19.2-15.6h398
					c5.9,0,11.4,2.6,15.2,7.2c3.7,4.6,5.2,10.5,4,16.3L1794.1,457C1792.3,466,1784.2,472.6,1775,472.6z M1440.8,133.5
					c-3.8,0-7.2,2.7-7.9,6.5l-63.8,311.4c-0.5,2.4,0.1,4.9,1.7,6.8c1.5,1.9,3.8,3,6.3,3h398c3.8,0,7.2-2.7,7.9-6.5l63.8-311.4
					c0.5-2.4-0.1-4.9-1.7-6.8c-1.5-1.9-3.8-3-6.3-3H1440.8z"/>
			</g>
		</g>
		<g>
			<g>
				<path class="st1" d="M1719.5,324.9l-4.9,24.1l-30.5,18l23.8,15.1l-4.7,23c-1.3,6.4,3.6,12.4,10.2,12.4h281.1
					c4.9,0,9.2-3.5,10.2-8.3l16.3-80.3c1.3-6.4-3.6-12.4-10.2-12.4h-281.1C1724.7,316.5,1720.5,320,1719.5,324.9z"/>
				<path d="M1994.4,423.3h-281.1c-4.9,0-9.4-2.2-12.5-5.9c-3.1-3.8-4.3-8.6-3.3-13.4l3.9-19.1l-28.3-18l36.4-21.5l4.4-21.6
					c1.5-7.5,8.2-12.9,15.8-12.9h281.1c4.9,0,9.4,2.2,12.5,5.9c3.1,3.8,4.3,8.6,3.3,13.4l-16.3,80.3
					C2008.7,417.9,2002.1,423.3,1994.4,423.3z M1695.1,367.2l19.2,12.2l-5.5,26.9c-0.4,1.9,0.4,3.2,1,3.9s1.7,1.7,3.6,1.7h281.1
					c2.2,0,4.1-1.6,4.6-3.7l16.3-80.3c0.4-1.9-0.4-3.2-1-3.9c-0.5-0.6-1.7-1.7-3.6-1.7h-281.1c-2.2,0-4.1,1.6-4.6,3.7l-5.4,26.6
					L1695.1,367.2z"/>
			</g>
		</g>
		<g>
			<g>
				<path class="st4" d="M1746.7,343l-1.7,8.1c-0.5,2.2,1.2,4.2,3.4,4.2h101c1.6,0,3-1.1,3.4-2.7l1.7-8.1c0.5-2.2-1.2-4.2-3.4-4.2
					h-101C1748.4,340.2,1747,341.4,1746.7,343z"/>
			</g>
		</g>
		<g>
			<g>
				<path class="st4" d="M1739.6,376.9l-1.7,8.1c-0.5,2.2,1.2,4.2,3.4,4.2h233.6c1.6,0,3-1.1,3.4-2.7l1.7-8.1
					c0.5-2.2-1.2-4.2-3.4-4.2h-233.6C1741.3,374.2,1739.9,375.3,1739.6,376.9z"/>
			</g>
		</g>
		<g>
			<g>
				<path class="st4" d="M1463.3,209.9l2.3-12.9c0.2-1.3,1.4-2.2,2.7-2.2h234.3c1.7,0,3,1.5,2.7,3.2l-2.3,12.9
					c-0.2,1.3-1.4,2.2-2.7,2.2H1466C1464.3,213,1463,211.5,1463.3,209.9z"/>
			</g>
		</g>
		<g>
			<g>
				<path class="st4" d="M1453.6,253.9l2.3-12.9c0.2-1.3,1.4-2.2,2.7-2.2h234.3c1.7,0,3,1.5,2.7,3.2l-2.3,12.9
					c-0.2,1.3-1.4,2.2-2.7,2.2h-234.3C1454.6,257.1,1453.3,255.6,1453.6,253.9z"/>
			</g>
		</g>
		<g>
			<g>
				<path class="st4" d="M1445,298l2.3-12.9c0.2-1.3,1.4-2.2,2.7-2.2h145c1.7,0,3,1.5,2.7,3.2l-2.3,12.9c-0.2,1.3-1.4,2.2-2.7,2.2
					h-145C1446,301.2,1444.7,299.7,1445,298z"/>
			</g>
		</g>
		<g>
			<path class="st1" d="M1473.2,826.6l1.2,1.1c8.3,7.9,21.5,7,28.8-1.8c16.3-19.5,36.6-56.6,8.8-100.9c-5.8-9.2-17.8-12.2-27.1-6.5
				l0,0c-8.1,4.9-11.7,14.9-8.3,23.8c5.6,14.5,10.1,37.6-5.5,58C1465,808.3,1465.9,819.6,1473.2,826.6z"/>
			<path d="M1487.9,838.8c-6.5,0-12.7-2.4-17.4-7l-1.2-1.1c-9.5-9-10.7-23.6-2.7-33.9c13.7-18,10.1-38.5,4.7-52.5
				c-4.4-11.4,0.1-24.3,10.7-30.7c11.8-7.2,27.5-3.4,34.9,8.4c30.1,48,7.1,88-9.2,107.6c-4.5,5.4-11.2,8.8-18.2,9.2
				C1488.9,838.8,1488.4,838.8,1487.9,838.8z M1495.1,721.4c-2.5,0-4.9,0.6-7.2,2c-5.8,3.5-8.3,10.6-5.9,16.8
				c9.1,23.7,6.9,46.3-6.3,63.6c-4.3,5.7-3.7,13.7,1.5,18.6l1.2,1.1c2.8,2.7,6.5,4,10.4,3.8c4-0.2,7.5-2,10.1-5.1
				c17.6-21,33.3-54.4,8.3-94.2C1504.5,723.7,1499.8,721.4,1495.1,721.4z"/>
		</g>
		<g>
			<path class="st1" d="M2341.1,827l1.2,1.1c8.3,7.9,21.5,7,28.8-1.8c16.3-19.5,36.6-56.6,8.8-100.9c-5.8-9.2-17.8-12.2-27.1-6.5v0
				c-8.1,4.9-11.7,14.9-8.3,23.8c5.6,14.5,10.1,37.6-5.5,58C2332.9,808.7,2333.8,820.1,2341.1,827z"/>
			<path d="M2355.7,839.2c-6.5,0-12.7-2.4-17.4-7l-1.2-1.1c-9.5-9-10.7-23.6-2.7-33.9c13.7-18,10.1-38.5,4.7-52.5
				c-4.4-11.4,0.1-24.3,10.7-30.7c11.8-7.2,27.5-3.4,34.9,8.4c30.1,48,7.1,88-9.2,107.6c-4.5,5.4-11.2,8.8-18.2,9.2
				C2356.8,839.2,2356.3,839.2,2355.7,839.2z M2363,721.8c-2.5,0-4.9,0.6-7.2,2c-5.8,3.5-8.3,10.6-5.9,16.8
				c9.1,23.7,6.9,46.3-6.3,63.6c-4.4,5.7-3.7,13.7,1.5,18.6l1.2,1.1c2.8,2.7,6.5,4,10.4,3.8c4-0.2,7.5-2,10.1-5.1
				c17.6-21,33.3-54.4,8.3-94.2C2372.3,724.2,2367.7,721.8,2363,721.8z"/>
		</g>
		<g>
			<rect x="941.9" y="1271.7" transform="matrix(0.3785 -0.9256 0.9256 0.3785 -585.8204 1682.4252)" width="35.9" height="11.5"/>
		</g>
		<g>
			<rect x="179.6" y="2366.4" width="1584.9" height="11.5"/>
		</g>
		<g>
			<g>
				<path class="st5" d="M365.6,747.5H129c-8.6,0-16-6-17.7-14.4l-34-166.3c-3.6-17.5,9.9-33.8,27.8-33.5l291.4,4.4
					c9.3,0.1,17.2,6.7,19.1,15.8l47.5,234.4c2,9.9-8.9,17.2-17.3,11.8L365.6,747.5z"/>
				<path d="M451.9,807.2c-3.2,0-6.4-0.9-9.3-2.8l-78.7-51.1H129c-11.3,0-21.1-8-23.3-19l-34-166.3c-2.1-10,0.5-20.3,7.1-28.2
					c6.5-7.9,16.2-12.3,26.4-12.2l291.4,4.4c11.9,0.2,22.3,8.8,24.6,20.4l47.5,234.4c1.4,6.9-1.3,13.6-7.1,17.5
					C458.6,806.2,455.3,807.2,451.9,807.2z M104.7,538.9c-6.6,0-12.8,2.9-17.1,8c-4.3,5.2-6,12-4.7,18.6l34,166.3
					c1.2,5.7,6.2,9.9,12.1,9.9h238.3l81.6,53c2.9,1.9,5.5,0.4,6.2-0.1c0.7-0.5,3-2.4,2.3-5.7L410,554.6c-1.3-6.4-7-11.2-13.5-11.3
					L105,538.9C104.9,538.9,104.8,538.9,104.7,538.9z"/>
			</g>
			<g>
				
					<ellipse transform="matrix(0.9504 -0.3111 0.3111 0.9504 -189.1189 91.1993)" class="st5" cx="191.3" cy="638.4" rx="17.7" ry="20.2"/>
				<path d="M192.6,664.1c-4,0-8-1.1-11.7-3.3c-5.6-3.3-9.8-8.7-11.9-15.1c-2.1-6.5-1.9-13.3,0.7-19.2c2.7-6.2,7.5-10.7,13.6-12.7
					c12.3-4,25.9,3.8,30.4,17.4l0,0c2.1,6.5,1.9,13.3-0.7,19.2c-2.7,6.2-7.5,10.7-13.6,12.7C197.2,663.8,194.9,664.1,192.6,664.1z
					 M189.9,624.1c-1.1,0-2.1,0.2-3.1,0.5c-2.9,1-5.3,3.2-6.6,6.3c-1.4,3.4-1.6,7.4-0.3,11.2c1.2,3.8,3.7,6.9,6.9,8.8
					c2.9,1.7,6.2,2.2,9.1,1.2c2.9-1,5.3-3.2,6.6-6.3c1.4-3.4,1.6-7.4,0.3-11.2l0,0C200.6,628.3,195.3,624.1,189.9,624.1z"/>
			</g>
			<g>
				
					<ellipse transform="matrix(0.9504 -0.3111 0.3111 0.9504 -185.5708 113.4418)" class="st5" cx="262.8" cy="638.4" rx="17.7" ry="20.2"/>
				<path d="M264.1,664.1c-4,0-8-1.1-11.7-3.3c-5.6-3.3-9.8-8.7-11.9-15.1c-2.1-6.5-1.9-13.3,0.7-19.2c2.7-6.2,7.5-10.7,13.6-12.7
					c12.3-4,25.9,3.8,30.4,17.4l0,0c2.1,6.5,1.9,13.3-0.7,19.2c-2.7,6.2-7.5,10.7-13.6,12.7C268.7,663.8,266.4,664.1,264.1,664.1z
					 M261.4,624.1c-1.1,0-2.1,0.2-3.1,0.5c-2.9,1-5.3,3.2-6.6,6.3c-1.4,3.4-1.6,7.4-0.3,11.2c1.2,3.8,3.7,6.9,6.9,8.8
					c2.9,1.7,6.2,2.2,9.1,1.2c2.9-1,5.3-3.2,6.6-6.3c1.4-3.4,1.6-7.4,0.3-11.2l0,0C272.1,628.3,266.8,624.1,261.4,624.1z"/>
			</g>
			<g>
				
					<ellipse transform="matrix(0.9504 -0.3111 0.3111 0.9504 -181.9848 135.9218)" class="st5" cx="335" cy="638.4" rx="17.7" ry="20.2"/>
				<path d="M336.4,664.1c-4,0-8-1.1-11.7-3.3c-5.6-3.3-9.8-8.7-11.9-15.1c-2.1-6.5-1.9-13.3,0.7-19.2c2.7-6.2,7.5-10.7,13.6-12.7
					c12.3-4,25.9,3.8,30.4,17.4l0,0c2.1,6.5,1.9,13.3-0.7,19.2c-2.7,6.2-7.5,10.7-13.6,12.7C340.9,663.8,338.7,664.1,336.4,664.1z
					 M333.7,624.1c-1.1,0-2.1,0.2-3.1,0.5c-2.9,1-5.3,3.2-6.6,6.3c-1.4,3.4-1.6,7.4-0.3,11.2c1.2,3.8,3.7,6.9,6.9,8.8
					c2.9,1.7,6.2,2.2,9.1,1.2c2.9-1,5.3-3.2,6.6-6.3c1.4-3.4,1.6-7.4,0.3-11.2l0,0C344.4,628.3,339,624.1,333.7,624.1z"/>
			</g>
		</g>
	</g>
</g>
</svg>
