<?xml version="1.0" encoding="UTF-8"?>
<svg id="Capa_2" xmlns="http://www.w3.org/2000/svg" version="1.1" viewBox="0 0 500 500">
  <!-- Generator: Adobe Illustrator 29.7.1, SVG Export Plug-In . SVG Version: 2.1.1 Build 8)  -->
  <path d="M250,23.83l-85.78,59.19v92.03l185.5,124.15v107.91l35.73-23.82v-114.77l-183.34-123.07c-.38-.25-.48-2.36-.55-2.82-.2-1.24-.36-2.48-.49-3.73-.32-3.09-.45-6.2-.43-9.31.05-5.62.22-11.46,1.85-16.93,3.48-11.67,15.27-17.86,24.77-24.11,6.23-4.09,17.61-10.42,22.09-12.37,32.28,19.13,65.2,38.49,97.48,57.62l-1.62,27.88-6.5,4.87c-10.61-4.8-21.82-10.32-33.47-16.69-11.72-6.41-22.49-12.92-32.3-19.31,12.37,11.94,25.94,24.57,41.5,36.63,29.82,23.12,48.79,35.53,71.01,49.44v-105.56L250,23.83Z" fill="#22907d"/>
  <path d="M285.09,332.87c-38.18-24.33-173.65-110.64-173.65-110.64v-102.86s35.73-24.9,35.73-24.9v90.32s184.5,124.15,184.5,124.15v110.25s-84.27,56.3-84.27,56.3l-135.96-82.36v-26.71s0-75.26,0-75.26c0,0,78.67,46.2,108.71,78.95-27.88-16.51-62.8-30.86-62.8-30.86l-5.95,5.95v23.55l86.62,51.7s37.76-18.54,54-36.14c4.23-5.97,4.39-21.56,3.89-32.75-.35-7.63-4.38-14.6-10.82-18.7Z" fill="#22907d"/>
</svg>